<svg width="309" height="114" viewBox="0 0 309 114" fill="none" xmlns="http://www.w3.org/2000/svg">
<g filter="url(#filter0_d)">
<rect width="301" height="106" rx="10" fill="#7A4E9D"/>
</g>
<path d="M24.7 34C24.7 32.6267 25.0067 31.4 25.62 30.32C26.2467 29.2267 27.0933 28.38 28.16 27.78C29.24 27.1667 30.4467 26.86 31.78 26.86C33.34 26.86 34.7067 27.26 35.88 28.06C37.0533 28.86 37.8733 29.9667 38.34 31.38H35.12C34.8 30.7133 34.3467 30.2133 33.76 29.88C33.1867 29.5467 32.52 29.38 31.76 29.38C30.9467 29.38 30.22 29.5733 29.58 29.96C28.9533 30.3333 28.46 30.8667 28.1 31.56C27.7533 32.2533 27.58 33.0667 27.58 34C27.58 34.92 27.7533 35.7333 28.1 36.44C28.46 37.1333 28.9533 37.6733 29.58 38.06C30.22 38.4333 30.9467 38.62 31.76 38.62C32.52 38.62 33.1867 38.4533 33.76 38.12C34.3467 37.7733 34.8 37.2667 35.12 36.6H38.34C37.8733 38.0267 37.0533 39.14 35.88 39.94C34.72 40.7267 33.3533 41.12 31.78 41.12C30.4467 41.12 29.24 40.82 28.16 40.22C27.0933 39.6067 26.2467 38.76 25.62 37.68C25.0067 36.6 24.7 35.3733 24.7 34ZM47.9716 29.76C48.8116 29.76 49.5582 29.9467 50.2116 30.32C50.8649 30.68 51.3716 31.22 51.7316 31.94C52.1049 32.6467 52.2916 33.5 52.2916 34.5V41H49.4916V34.88C49.4916 34 49.2716 33.3267 48.8316 32.86C48.3916 32.38 47.7916 32.14 47.0316 32.14C46.2582 32.14 45.6449 32.38 45.1916 32.86C44.7516 33.3267 44.5316 34 44.5316 34.88V41H41.7316V26.2H44.5316V31.3C44.8916 30.82 45.3716 30.4467 45.9716 30.18C46.5716 29.9 47.2382 29.76 47.9716 29.76ZM66.2542 35.22C66.2542 35.62 66.2276 35.98 66.1742 36.3H58.0742C58.1409 37.1 58.4209 37.7267 58.9142 38.18C59.4076 38.6333 60.0142 38.86 60.7342 38.86C61.7742 38.86 62.5142 38.4133 62.9542 37.52H65.9742C65.6542 38.5867 65.0409 39.4667 64.1342 40.16C63.2276 40.84 62.1142 41.18 60.7942 41.18C59.7276 41.18 58.7676 40.9467 57.9142 40.48C57.0742 40 56.4142 39.3267 55.9342 38.46C55.4676 37.5933 55.2342 36.5933 55.2342 35.46C55.2342 34.3133 55.4676 33.3067 55.9342 32.44C56.4009 31.5733 57.0542 30.9067 57.8942 30.44C58.7342 29.9733 59.7009 29.74 60.7942 29.74C61.8476 29.74 62.7876 29.9667 63.6142 30.42C64.4542 30.8733 65.1009 31.52 65.5542 32.36C66.0209 33.1867 66.2542 34.14 66.2542 35.22ZM63.3542 34.42C63.3409 33.7 63.0809 33.1267 62.5742 32.7C62.0676 32.26 61.4476 32.04 60.7142 32.04C60.0209 32.04 59.4342 32.2533 58.9542 32.68C58.4876 33.0933 58.2009 33.6733 58.0942 34.42H63.3542ZM83.058 29.76C84.418 29.76 85.5113 30.18 86.338 31.02C87.178 31.8467 87.598 33.0067 87.598 34.5V41H84.798V34.88C84.798 34.0133 84.578 33.3533 84.138 32.9C83.698 32.4333 83.098 32.2 82.338 32.2C81.578 32.2 80.9713 32.4333 80.518 32.9C80.078 33.3533 79.858 34.0133 79.858 34.88V41H77.058V34.88C77.058 34.0133 76.838 33.3533 76.398 32.9C75.958 32.4333 75.358 32.2 74.598 32.2C73.8246 32.2 73.2113 32.4333 72.758 32.9C72.318 33.3533 72.098 34.0133 72.098 34.88V41H69.298V29.92H72.098V31.26C72.458 30.7933 72.918 30.4267 73.478 30.16C74.0513 29.8933 74.678 29.76 75.358 29.76C76.2246 29.76 76.998 29.9467 77.678 30.32C78.358 30.68 78.8846 31.2 79.258 31.88C79.618 31.24 80.138 30.7267 80.818 30.34C81.5113 29.9533 82.258 29.76 83.058 29.76ZM92.675 28.6C92.1817 28.6 91.7683 28.4467 91.435 28.14C91.115 27.82 90.955 27.4267 90.955 26.96C90.955 26.4933 91.115 26.1067 91.435 25.8C91.7683 25.48 92.1817 25.32 92.675 25.32C93.1683 25.32 93.575 25.48 93.895 25.8C94.2283 26.1067 94.395 26.4933 94.395 26.96C94.395 27.4267 94.2283 27.82 93.895 28.14C93.575 28.4467 93.1683 28.6 92.675 28.6ZM94.055 29.92V41H91.255V29.92H94.055ZM102.061 41.18C101.155 41.18 100.341 41.02 99.6214 40.7C98.9014 40.3667 98.3281 39.92 97.9014 39.36C97.4881 38.8 97.2614 38.18 97.2214 37.5H100.041C100.095 37.9267 100.301 38.28 100.661 38.56C101.035 38.84 101.495 38.98 102.041 38.98C102.575 38.98 102.988 38.8733 103.281 38.66C103.588 38.4467 103.741 38.1733 103.741 37.84C103.741 37.48 103.555 37.2133 103.181 37.04C102.821 36.8533 102.241 36.6533 101.441 36.44C100.615 36.24 99.9347 36.0333 99.4014 35.82C98.8814 35.6067 98.4281 35.28 98.0414 34.84C97.6681 34.4 97.4814 33.8067 97.4814 33.06C97.4814 32.4467 97.6547 31.8867 98.0014 31.38C98.3614 30.8733 98.8681 30.4733 99.5214 30.18C100.188 29.8867 100.968 29.74 101.861 29.74C103.181 29.74 104.235 30.0733 105.021 30.74C105.808 31.3933 106.241 32.28 106.321 33.4H103.641C103.601 32.96 103.415 32.6133 103.081 32.36C102.761 32.0933 102.328 31.96 101.781 31.96C101.275 31.96 100.881 32.0533 100.601 32.24C100.335 32.4267 100.201 32.6867 100.201 33.02C100.201 33.3933 100.388 33.68 100.761 33.88C101.135 34.0667 101.715 34.26 102.501 34.46C103.301 34.66 103.961 34.8667 104.481 35.08C105.001 35.2933 105.448 35.6267 105.821 36.08C106.208 36.52 106.408 37.1067 106.421 37.84C106.421 38.48 106.241 39.0533 105.881 39.56C105.535 40.0667 105.028 40.4667 104.361 40.76C103.708 41.04 102.941 41.18 102.061 41.18ZM112.98 32.22V37.58C112.98 37.9533 113.067 38.2267 113.24 38.4C113.427 38.56 113.733 38.64 114.16 38.64H115.46V41H113.7C111.34 41 110.16 39.8533 110.16 37.56V32.22H108.84V29.92H110.16V27.18H112.98V29.92H115.46V32.22H112.98ZM121.274 31.64C121.634 31.0533 122.1 30.5933 122.674 30.26C123.26 29.9267 123.927 29.76 124.674 29.76V32.7H123.934C123.054 32.7 122.387 32.9067 121.934 33.32C121.494 33.7333 121.274 34.4533 121.274 35.48V41H118.474V29.92H121.274V31.64ZM138.16 29.92L131.3 46.24H128.32L130.72 40.72L126.28 29.92H129.42L132.28 37.66L135.18 29.92H138.16Z" fill="white"/>
<path d="M284 106H185.592C184.387 106 183.217 105.562 182.312 104.767C162.86 87.6826 153.241 75.0573 151.292 50.2821C149.381 25.9896 157.059 16.0939 168.248 1.90996C169.197 0.706311 170.631 0 172.164 0H284.004C286.766 0 289 2.23858 289 5V101C289 103.761 286.761 106 284 106Z" fill="#9D6BC5"/>
<path d="M296 106H197.592C196.387 106 195.217 105.562 194.312 104.767C174.86 87.6826 165.241 75.0573 163.292 50.2821C161.381 25.9896 169.059 16.0939 180.248 1.90996C181.197 0.706311 182.631 0 184.164 0H296.004C298.766 0 301 2.23858 301 5V101C301 103.761 298.761 106 296 106Z" fill="#B183D6"/>
<path d="M214.053 35.7553C213.461 34.7784 212.75 33.9496 211.981 33.1799C212.75 32.4102 213.461 31.5813 214.053 30.6044C214.379 30.0123 214.704 29.3907 214.852 28.621C215 27.8809 215 26.9928 214.556 26.2232C214.083 25.4535 213.343 25.0094 212.632 24.743C211.922 24.4766 211.211 24.4766 210.53 24.447C209.376 24.447 208.28 24.6542 207.244 24.9502C206.978 23.9733 206.623 22.9964 206.119 22.0491C206.297 21.7531 206.415 21.3978 206.415 21.013C206.415 19.8881 205.498 19 204.402 19C203.958 19 203.544 19.148 203.189 19.4144C202.981 19.3552 202.745 19.3256 202.508 19.3256C201.62 19.3256 200.85 19.7697 200.288 20.2433C199.695 20.7466 199.34 21.3386 198.985 21.9011C198.423 22.9076 198.067 23.9437 197.771 24.9798C196.706 24.7134 195.64 24.5062 194.485 24.4766C193.804 24.5062 193.094 24.5062 192.384 24.7726C191.673 25.0094 190.933 25.4535 190.459 26.2232C190.015 26.9928 190.015 27.8809 190.163 28.5914C190.282 29.3315 190.637 29.9531 190.963 30.5748C191.555 31.5517 192.265 32.4102 193.035 33.1799C192.324 33.92 191.643 34.6896 191.081 35.6073C190.726 35.6073 190.371 35.6665 190.015 35.8738C189.038 36.4362 188.713 37.6795 189.275 38.6268C189.512 39.0117 189.838 39.3077 190.223 39.4557C190.282 39.6629 190.371 39.8998 190.489 40.107C190.933 40.8767 191.703 41.3207 192.413 41.5575C193.124 41.824 193.834 41.824 194.515 41.8536C195.64 41.8536 196.735 41.6464 197.771 41.3799C198.067 42.4456 198.423 43.4817 198.985 44.4883C199.34 45.0803 199.725 45.6724 200.317 46.1756C200.88 46.6493 201.649 47.0933 202.537 47.1229C203.455 47.1229 204.225 46.6789 204.758 46.1756C205.35 45.6724 205.705 45.0803 206.09 44.4883C206.652 43.4817 207.007 42.4456 207.303 41.4095C208.31 41.676 209.316 41.8536 210.412 41.8832C210.589 42.1792 210.826 42.4456 211.152 42.6233C212.129 43.1857 213.372 42.8601 213.905 41.8832C214.112 41.4983 214.201 41.0839 214.171 40.6695C214.349 40.4918 214.497 40.3142 214.615 40.107C215.059 39.3077 215.059 38.4196 214.911 37.7091C214.704 36.9691 214.379 36.3474 214.053 35.7553ZM194.485 40.3438C193.42 40.3142 192.384 40.0182 191.939 39.4261C191.969 39.4261 191.999 39.3965 191.999 39.3965C192.976 38.8341 193.301 37.5907 192.739 36.6434C192.65 36.4954 192.561 36.377 192.443 36.2586C192.857 35.5185 193.39 34.808 193.982 34.1272C194.929 34.9561 195.906 35.7257 196.913 36.4066C197.002 37.6499 197.179 38.8933 197.416 40.107C196.439 40.255 195.433 40.3734 194.485 40.3438ZM196.824 34.9857C196.114 34.4232 195.462 33.8015 194.841 33.1799C195.462 32.5286 196.143 31.9365 196.824 31.3445C196.794 31.9661 196.794 32.5582 196.765 33.1799C196.794 33.7719 196.794 34.3936 196.824 34.9857ZM196.942 29.9531C195.906 30.6636 194.929 31.4037 193.982 32.2326C193.331 31.4629 192.709 30.6636 192.265 29.8051C191.732 28.7986 191.466 27.6737 191.851 27.0224C192.236 26.3416 193.331 26.0159 194.485 25.9863C195.433 25.9567 196.439 26.0455 197.446 26.2528C197.179 27.4961 197.031 28.7394 196.942 29.9531ZM200.258 22.6708C200.82 21.7827 201.59 21.013 202.33 20.9242C202.33 20.9538 202.33 20.9834 202.33 20.9834C202.33 22.1083 203.248 22.9964 204.343 22.9964C204.521 22.9964 204.669 22.9668 204.846 22.9372C205.29 23.6773 205.646 24.4766 205.912 25.3055C204.728 25.7199 203.573 26.1935 202.449 26.7264C201.324 26.1935 200.169 25.7199 198.985 25.3351C199.34 24.3878 199.755 23.4701 200.258 22.6708ZM202.478 29.5683C204.462 29.5683 206.09 31.1965 206.09 33.1799C206.09 35.1633 204.462 36.7915 202.478 36.7915C200.495 36.7915 198.867 35.1633 198.867 33.1799C198.867 31.1669 200.495 29.5683 202.478 29.5683ZM198.659 26.5488C199.518 26.7856 200.376 27.052 201.235 27.3777C200.702 27.6737 200.169 27.9401 199.636 28.2362C199.103 28.5322 198.6 28.8578 198.067 29.1835C198.215 28.2954 198.423 27.4073 198.659 26.5488ZM198.689 39.7814C198.452 38.9229 198.245 38.0348 198.097 37.1467C198.6 37.4723 199.133 37.798 199.636 38.094C200.169 38.39 200.702 38.686 201.235 38.9525C200.376 39.2781 199.547 39.5445 198.689 39.7814ZM204.669 43.6594C204.077 44.6067 203.218 45.4059 202.478 45.4059C201.738 45.4059 200.909 44.6363 200.288 43.6594C199.755 42.8601 199.37 41.9424 199.015 40.9655C200.199 40.5806 201.324 40.107 202.449 39.5741C203.573 40.107 204.698 40.5806 205.883 40.9951C205.587 41.9424 205.172 42.8601 204.669 43.6594ZM206.267 39.7518C205.409 39.5445 204.58 39.2781 203.722 38.9525C204.254 38.686 204.787 38.39 205.32 38.094C205.823 37.798 206.356 37.4723 206.859 37.1467C206.711 38.0348 206.504 38.8933 206.267 39.7518ZM205.32 28.2362C204.787 27.9401 204.254 27.6441 203.722 27.3777C204.58 27.052 205.438 26.7856 206.297 26.5784C206.534 27.4369 206.711 28.2954 206.859 29.1835C206.356 28.8578 205.853 28.5618 205.32 28.2362ZM210.471 26.0455C211.596 26.0751 212.691 26.4304 213.076 27.052C213.461 27.7033 213.194 28.7986 212.662 29.8051C212.218 30.6636 211.626 31.4629 210.974 32.2326C210.027 31.4037 209.05 30.6636 208.014 29.9531C207.925 28.7394 207.748 27.4961 207.511 26.2824C208.517 26.1047 209.524 25.9863 210.471 26.0455ZM208.103 31.3741C208.784 31.9365 209.465 32.5582 210.086 33.1799C209.465 33.8015 208.813 34.4232 208.132 34.9857C208.162 34.3936 208.162 33.7719 208.162 33.1799C208.162 32.5582 208.132 31.9661 208.103 31.3741ZM213.106 39.1597L213.076 39.1301C212.099 38.5676 210.856 38.8933 210.323 39.8702C210.234 40.0182 210.175 40.1662 210.145 40.2846C209.287 40.2846 208.428 40.1958 207.54 40.0478C207.777 38.8341 207.955 37.5907 208.044 36.377C209.05 35.6961 210.057 34.9265 210.974 34.0976C211.626 34.8673 212.218 35.6665 212.662 36.525C213.135 37.4723 213.402 38.5084 213.106 39.1597Z" fill="white"/>
<path d="M200.554 33.8015C200.909 33.8015 201.176 33.5351 201.176 33.1798C201.176 32.4694 201.738 31.9069 202.449 31.9069C202.804 31.9069 203.07 31.6405 203.07 31.2852C203.07 30.93 202.804 30.6636 202.449 30.6636C201.057 30.6636 199.903 31.7885 199.903 33.2094C199.932 33.5055 200.228 33.8015 200.554 33.8015Z" fill="white"/>
<path d="M283.439 73.5775C284.009 73.0038 284.009 72.0728 283.439 71.4992L277.409 65.4303C276.839 64.8566 275.914 64.8566 275.344 65.4303L274.584 66.1901C274.014 66.7638 274.014 67.6948 274.584 68.2685L274.729 68.4144L270.504 72.6666C270.504 72.6666 270.499 72.6666 270.499 72.6717C270.499 72.6767 270.499 72.6767 270.494 72.6767L269.014 74.1663H269.009V74.1713L267.529 75.6608L267.524 75.6659L267.519 75.6709L266.044 77.1554L266.039 77.1605L266.034 77.1655L264.559 78.65C264.554 78.655 264.554 78.655 264.549 78.655C264.544 78.655 264.544 78.6601 264.544 78.6651L263.074 80.1446C263.069 80.1496 263.064 80.1496 263.064 80.1546C263.064 80.1597 263.059 80.1647 263.054 80.1647L258.024 85.2322C256.659 86.606 256.659 88.8403 258.024 90.2141L258.814 91.0092C259.494 91.6936 260.394 92.0408 261.289 92.0408C262.184 92.0408 263.079 91.6986 263.764 91.0092L280.469 74.1914L280.614 74.3374C280.899 74.6242 281.274 74.7651 281.644 74.7651C282.014 74.7651 282.394 74.6242 282.679 74.3374L283.439 73.5775ZM263.054 90.2997C262.079 91.281 260.494 91.281 259.519 90.2997L258.729 89.5046C257.754 88.5233 257.754 86.9281 258.729 85.9468L263.419 81.2265L265.579 83.4005C265.679 83.5011 265.804 83.5464 265.934 83.5464C266.064 83.5464 266.189 83.4961 266.289 83.4005C266.484 83.2042 266.484 82.8872 266.289 82.6909L264.129 80.517L264.909 79.7319L266.159 80.99C266.259 81.0906 266.384 81.1359 266.514 81.1359C266.644 81.1359 266.769 81.0856 266.869 80.99C267.064 80.7937 267.064 80.4767 266.869 80.2805L265.619 79.0224L266.399 78.2374L268.559 80.4113C268.659 80.5119 268.784 80.5572 268.914 80.5572C269.044 80.5572 269.169 80.5069 269.269 80.4113C269.464 80.215 269.464 79.898 269.269 79.7017L267.109 77.5278L267.889 76.7428L269.139 78.0008C269.239 78.1015 269.364 78.1468 269.494 78.1468C269.624 78.1468 269.749 78.0965 269.849 78.0008C270.044 77.8046 270.044 77.4875 269.849 77.2913L268.599 76.0332L269.379 75.2482L271.539 77.4221C271.639 77.5228 271.764 77.5681 271.894 77.5681C272.024 77.5681 272.149 77.5177 272.249 77.4221C272.444 77.2259 272.444 76.9088 272.249 76.7126L270.089 74.5386L270.869 73.7536L272.119 75.0117C272.219 75.1123 272.344 75.1576 272.474 75.1576C272.604 75.1576 272.729 75.1073 272.829 75.0117C273.024 74.8154 273.024 74.4984 272.829 74.3021L271.579 73.0441L272.359 72.259L274.519 74.433C274.619 74.5336 274.744 74.5789 274.874 74.5789C275.004 74.5789 275.129 74.5286 275.229 74.433C275.424 74.2367 275.424 73.9197 275.229 73.7234L273.069 71.5495L275.449 69.1541L279.774 73.507L263.054 90.2997ZM281.324 73.6278L275.289 67.5589C275.109 67.3777 275.109 67.0859 275.289 66.9047L276.049 66.1398C276.139 66.0492 276.259 66.0039 276.374 66.0039C276.494 66.0039 276.609 66.0492 276.699 66.1398L282.729 72.2087C282.909 72.3899 282.909 72.6817 282.729 72.8629L281.969 73.6278C281.794 73.809 281.504 73.809 281.324 73.6278Z" fill="white"/>
<path d="M284.949 76.2697C284.874 76.0735 284.689 75.9426 284.479 75.9426C284.269 75.9426 284.084 76.0735 284.009 76.2697C283.774 76.9038 282.609 80.1043 282.609 80.9497C282.609 82.0266 283.449 82.9022 284.479 82.9022C285.509 82.9022 286.349 82.0266 286.349 80.9497C286.349 80.1043 285.184 76.9038 284.949 76.2697ZM284.479 81.9008C283.999 81.9008 283.609 81.4781 283.609 80.9548C283.609 80.5924 284.034 79.2337 284.479 77.9354C284.924 79.2287 285.349 80.5924 285.349 80.9548C285.349 81.4781 284.959 81.9008 284.479 81.9008Z" fill="white"/>
<path d="M212.5 86H206.5C206.324 86 206.161 85.908 206.071 85.7575L203.071 80.7575C202.976 80.599 202.976 80.4015 203.071 80.243L206.071 75.243C206.161 75.092 206.324 75 206.5 75H208V76H206.783L204.083 80.5L206.783 85H212.216L214.916 80.5L212.216 76H211V75H212.5C212.675 75 212.838 75.092 212.928 75.2425L215.928 80.2425C216.023 80.401 216.023 80.5985 215.928 80.757L212.928 85.757C212.838 85.908 212.675 86 212.5 86Z" fill="white"/>
<path d="M210 75H209V76H210V75Z" fill="white"/>
<path d="M227.5 75H226.5V76H227.5V75Z" fill="white"/>
<path d="M229.75 76H228.5V75H229.469L231.914 71L229.469 67H224.53L222.086 71L224.53 75H225.5V76H224.25C224.076 76 223.914 75.9095 223.823 75.7605L221.073 71.2605C220.975 71.1005 220.975 70.899 221.073 70.739L223.823 66.239C223.914 66.0905 224.076 66 224.25 66H229.75C229.924 66 230.085 66.0905 230.177 66.2395L232.927 70.7395C233.024 70.8995 233.024 71.101 232.927 71.261L230.177 75.761C230.085 75.9095 229.924 76 229.75 76Z" fill="white"/>
<path d="M221.5 82C220.673 82 220 81.327 220 80.5C220 79.673 220.673 79 221.5 79C222.327 79 223 79.673 223 80.5C223 81.327 222.327 82 221.5 82ZM221.5 80C221.224 80 221 80.2245 221 80.5C221 80.7755 221.224 81 221.5 81C221.775 81 222 80.7755 222 80.5C222 80.2245 221.775 80 221.5 80Z" fill="white"/>
<path d="M219 80H217V81H219V80Z" fill="white"/>
<path d="M223.917 77.2781L223.085 76.7234L222.085 78.2237L222.917 78.7784L223.917 77.2781Z" fill="white"/>
<path d="M276.226 43.6774V40.9677C276.226 40.3275 275.705 39.8065 275.065 39.8065H274.794C275.219 39.2529 275.452 38.5809 275.452 37.871C275.452 37.0186 275.12 36.2177 274.518 35.6154C274.337 35.4346 274.189 35.2255 274.06 35.0018C274.209 34.691 274.29 34.3503 274.29 34V24.3226H275.065V22H268.871V24.3226H269.645V26.2581H267.32C267.211 26.1121 267.082 25.9828 266.936 25.8737V23.1613C266.936 22.8474 266.813 22.5555 266.597 22.3453C266.38 22.1227 266.088 22 265.774 22C265.134 22 264.613 22.521 264.613 23.1613V25.8741C264.131 26.2356 263.839 26.8081 263.839 27.4194C263.839 28.0306 264.131 28.6031 264.613 28.9646V41.3548H263.521L263.057 43.6774H261.197C262.776 42.7294 263.839 41.0049 263.839 39.0323C263.839 36.928 262.602 34.9972 260.687 34.113C260.243 33.909 259.968 33.4983 259.968 33.04V31.2903H261.129C261.556 31.2903 261.903 30.9431 261.903 30.5161V29.7419C261.903 29.315 261.556 28.9677 261.129 28.9677H260.732C261.676 28.2613 262.29 27.1379 262.29 25.871C262.29 23.7365 260.554 22 258.42 22C256.285 22 254.549 23.7365 254.549 25.871C254.549 27.1379 255.163 28.2613 256.107 28.9677H255.71C255.283 28.9677 254.936 29.315 254.936 29.7419V30.5161C254.936 30.9431 255.283 31.2903 255.71 31.2903H256.871V33.0439C256.871 33.5003 256.601 33.9086 256.169 34.1084C254.382 34.9201 253.176 36.6396 253.021 38.5921C252.99 38.9425 252.993 39.2761 253.029 39.6098C253.207 41.3289 254.208 42.82 255.625 43.6774H253V46H277V43.6774H276.226ZM275.452 40.9677V42.129H273.903V42.9032H275.452V43.6774H270.032V42.9032H273.129V42.129H270.032V40.9677C270.032 40.7541 270.206 40.5806 270.42 40.5806H275.065C275.278 40.5806 275.452 40.7541 275.452 40.9677ZM265.387 29.3107C265.515 29.3374 265.644 29.3548 265.774 29.3548C265.905 29.3548 266.034 29.3374 266.161 29.3111V41.3548H265.387V29.3107ZM267.666 27.0323H271.194V27.8065H267.666C267.692 27.6791 267.71 27.5498 267.71 27.4194C267.71 27.2889 267.692 27.1596 267.666 27.0323ZM266.936 28.965C267.082 28.8559 267.211 28.7266 267.32 28.5806H269.645V34C269.645 34.6705 269.937 35.2832 270.405 35.7125C270.034 35.6076 269.649 35.5484 269.258 35.5484H268.535L269.091 36.381C269.453 36.9295 269.645 37.5625 269.645 38.2116C269.645 38.8143 269.871 39.381 270.279 39.8208C269.706 39.8908 269.258 40.3755 269.258 40.9677V43.6774H268.492L268.027 41.3548H266.936V28.965ZM274.678 37.871C274.678 38.5163 274.426 39.1228 273.97 39.5792L273.743 39.8065H273.129V37.871H272.355V39.8065H272.014C271.589 39.8065 271.188 39.6404 270.887 39.3392C270.586 39.0381 270.42 38.637 270.42 38.2116C270.42 37.5818 270.274 36.9648 269.994 36.4012C270.411 36.4917 270.809 36.6597 271.17 36.8982L271.968 37.4409V36.7097C271.968 36.4608 271.993 36.2212 272.045 35.9928C272.137 35.5577 272.306 35.1547 272.545 34.7955L272.933 34.2152L272.936 34.2284C273.005 34.5675 273.119 34.8915 273.27 35.1853C273.449 35.548 273.685 35.8766 273.97 36.1619C274.426 36.6191 274.678 37.2257 274.678 37.871ZM269.645 22.7742H274.29V23.5484H269.645V22.7742ZM270.42 24.3226H273.516V25.0968H271.968V25.871H273.516V26.6452H272.742V27.4194H273.516V29.3548H271.968V30.129H273.516V30.9032H272.742V31.6774H273.516V33.1875L273.325 32.236L271.901 34.3658C271.681 34.6964 271.51 35.056 271.391 35.4373C270.815 35.2054 270.42 34.6406 270.42 34V28.5806H271.968V26.2581H270.42V24.3226ZM265.774 22.7742C265.878 22.7742 265.973 22.8137 266.05 22.8926C266.122 22.9627 266.161 23.0579 266.161 23.1613V25.5311C265.906 25.48 265.643 25.48 265.387 25.5311V23.1613C265.387 22.948 265.561 22.7742 265.774 22.7742ZM265.193 26.4156C265.374 26.3111 265.57 26.2581 265.774 26.2581C265.979 26.2581 266.174 26.3111 266.356 26.4156C266.532 26.5163 266.677 26.6622 266.778 26.8379V26.8383C266.883 27.0195 266.936 27.215 266.936 27.4194C266.936 27.6237 266.883 27.8192 266.778 28.0008C266.677 28.1765 266.532 28.3225 266.355 28.4231C265.993 28.6321 265.556 28.6325 265.193 28.4231C264.835 28.2175 264.613 27.8328 264.613 27.4194C264.613 27.0059 264.835 26.6212 265.193 26.4156ZM258.032 25.871C258.032 25.6577 258.206 25.4839 258.42 25.4839C258.633 25.4839 258.807 25.6577 258.807 25.871C258.807 26.0843 258.633 26.2581 258.42 26.2581C258.206 26.2581 258.032 26.0843 258.032 25.871ZM255.323 25.871C255.323 24.1635 256.712 22.7742 258.42 22.7742C260.127 22.7742 261.516 24.1635 261.516 25.871C261.516 27.4472 260.332 28.7494 258.807 28.941V26.961C259.256 26.8008 259.581 26.375 259.581 25.871C259.581 25.2307 259.06 24.7097 258.42 24.7097C257.779 24.7097 257.258 25.2307 257.258 25.871C257.258 26.375 257.583 26.8008 258.032 26.961V28.941C256.507 28.7494 255.323 27.4472 255.323 25.871ZM255.71 29.7419H261.129V30.5161H255.71V29.7419ZM256.492 34.8121C257.203 34.4831 257.645 33.8057 257.645 33.0439V31.2903H259.194V33.04C259.194 33.8045 259.642 34.485 260.363 34.816C261.882 35.5178 262.902 36.988 263.046 38.6332C261.105 38.5743 259.923 38.1145 258.881 37.7006C258.065 37.377 257.36 37.0968 256.484 37.0968C255.403 37.0968 254.545 37.4335 253.964 37.7606C254.332 36.4697 255.241 35.3808 256.492 34.8121ZM257.886 43.6488C255.74 43.4084 254.021 41.6765 253.799 39.5285C253.774 39.2924 253.772 39.0547 253.786 38.8089C254.106 38.5445 255.058 37.871 256.484 37.871C257.212 37.871 257.822 38.1137 258.595 38.4206C259.649 38.8391 260.946 39.3539 263.045 39.4135C262.851 41.7969 260.852 43.6774 258.42 43.6774C258.219 43.6774 258.046 43.6685 257.886 43.6488ZM276.226 45.2258H253.774V44.4516H263.692L264.156 42.129H264.613H265H266.549H266.936H267.392L267.857 44.4516H276.226V45.2258Z" fill="white"/>
<path d="M266.162 42.9032H265.387V43.6774H266.162V42.9032Z" fill="white"/>
<path d="M256.484 38.6451C255.844 38.6451 255.323 39.1662 255.323 39.8064C255.323 40.4467 255.844 40.9677 256.484 40.9677C257.124 40.9677 257.645 40.4467 257.645 39.8064C257.645 39.1662 257.124 38.6451 256.484 38.6451ZM256.484 40.1935C256.271 40.1935 256.097 40.0201 256.097 39.8064C256.097 39.5928 256.271 39.4193 256.484 39.4193C256.697 39.4193 256.871 39.5928 256.871 39.8064C256.871 40.0201 256.697 40.1935 256.484 40.1935Z" fill="white"/>
<path d="M260.742 39.8065H259.968V40.5807H260.742V39.8065Z" fill="white"/>
<path d="M258.807 42.129H258.032V42.9032H258.807V42.129Z" fill="white"/>
<path d="M266.162 27.0323H265.387V27.8065H266.162V27.0323Z" fill="white"/>
<defs>
<filter id="filter0_d" x="0" y="0" width="309" height="114" filterUnits="userSpaceOnUse" color-interpolation-filters="sRGB">
<feFlood flood-opacity="0" result="BackgroundImageFix"/>
<feColorMatrix in="SourceAlpha" type="matrix" values="0 0 0 0 0 0 0 0 0 0 0 0 0 0 0 0 0 0 127 0"/>
<feOffset dx="4" dy="4"/>
<feGaussianBlur stdDeviation="2"/>
<feColorMatrix type="matrix" values="0 0 0 0 0 0 0 0 0 0 0 0 0 0 0 0 0 0 0.25 0"/>
<feBlend mode="normal" in2="BackgroundImageFix" result="effect1_dropShadow"/>
<feBlend mode="normal" in="SourceGraphic" in2="effect1_dropShadow" result="shape"/>
</filter>
</defs>
</svg>
