<svg width="309" height="114" viewBox="0 0 309 114" fill="none" xmlns="http://www.w3.org/2000/svg">
<g filter="url(#filter0_d)">
<rect width="301" height="106" rx="10" fill="#B15555"/>
</g>
<path d="M38.18 33.3V36.8H42.88V39.02H38.18V42.72H43.48V45H35.38V31.02H43.48V33.3H38.18ZM59.5645 31.04L54.4445 45H51.0445L45.9245 31.04H48.9245L52.7645 42.14L56.5845 31.04H59.5645ZM67.0633 45.14C66.0899 45.14 65.2099 44.9733 64.4233 44.64C63.6499 44.3067 63.0366 43.8267 62.5833 43.2C62.1299 42.5733 61.8966 41.8333 61.8833 40.98H64.8833C64.9233 41.5533 65.1233 42.0067 65.4833 42.34C65.8566 42.6733 66.3633 42.84 67.0033 42.84C67.6566 42.84 68.1699 42.6867 68.5433 42.38C68.9166 42.06 69.1033 41.6467 69.1033 41.14C69.1033 40.7267 68.9766 40.3867 68.7233 40.12C68.4699 39.8533 68.1499 39.6467 67.7633 39.5C67.3899 39.34 66.8699 39.1667 66.2033 38.98C65.2966 38.7133 64.5566 38.4533 63.9833 38.2C63.4233 37.9333 62.9366 37.54 62.5233 37.02C62.1233 36.4867 61.9233 35.78 61.9233 34.9C61.9233 34.0733 62.1299 33.3533 62.5433 32.74C62.9566 32.1267 63.5366 31.66 64.2833 31.34C65.0299 31.0067 65.8833 30.84 66.8433 30.84C68.2833 30.84 69.4499 31.1933 70.3433 31.9C71.2499 32.5933 71.7499 33.5667 71.8433 34.82H68.7633C68.7366 34.34 68.5299 33.9467 68.1433 33.64C67.7699 33.32 67.2699 33.16 66.6433 33.16C66.0966 33.16 65.6566 33.3 65.3233 33.58C65.0033 33.86 64.8433 34.2667 64.8433 34.8C64.8433 35.1733 64.9633 35.4867 65.2033 35.74C65.4566 35.98 65.7633 36.18 66.1233 36.34C66.4966 36.4867 67.0166 36.66 67.6833 36.86C68.5899 37.1267 69.3299 37.3933 69.9033 37.66C70.4766 37.9267 70.9699 38.3267 71.3833 38.86C71.7966 39.3933 72.0033 40.0933 72.0033 40.96C72.0033 41.7067 71.8099 42.4 71.4233 43.04C71.0366 43.68 70.4699 44.1933 69.7233 44.58C68.9766 44.9533 68.0899 45.14 67.0633 45.14Z" fill="white"/>
<path d="M284 106H185.592C184.387 106 183.217 105.562 182.312 104.767C162.86 87.6826 153.241 75.0573 151.292 50.2821C149.381 25.9896 157.059 16.0939 168.248 1.90996C169.197 0.706311 170.631 0 172.164 0H284.004C286.766 0 289 2.23858 289 5V101C289 103.761 286.761 106 284 106Z" fill="#E26464"/>
<path d="M296 106H197.592C196.387 106 195.217 105.562 194.312 104.767C174.86 87.6826 165.241 75.0573 163.292 50.2821C161.381 25.9896 169.059 16.0939 180.248 1.90996C181.197 0.706311 182.631 0 184.164 0H296.004C298.766 0 301 2.23858 301 5V101C301 103.761 298.761 106 296 106Z" fill="#F88484"/>
<path d="M199.491 18.8455C197.765 18.8455 196.361 20.3527 196.361 22.2053C196.361 24.7357 199.194 27.5011 199.315 27.6177C199.364 27.6657 199.428 27.6894 199.491 27.6894C199.557 27.6894 199.622 27.6642 199.672 27.6137C199.793 27.4917 202.622 24.6037 202.622 22.2053C202.622 20.3527 201.217 18.8455 199.491 18.8455ZM199.488 27.0547C198.869 26.407 196.874 24.1655 196.874 22.2053C196.874 20.6408 198.048 19.3681 199.491 19.3681C200.934 19.3681 202.109 20.6408 202.109 22.2053C202.109 24.0609 200.103 26.3853 199.488 27.0547Z" fill="white"/>
<path d="M199.5 20.2131C198.544 20.2131 197.767 21.005 197.767 21.9784C197.767 22.9518 198.544 23.7437 199.5 23.7437C200.456 23.7437 201.234 22.9518 201.234 21.9784C201.234 21.005 200.456 20.2131 199.5 20.2131ZM199.5 23.221C198.827 23.221 198.28 22.6636 198.28 21.9784C198.28 21.2932 198.827 20.7358 199.5 20.7358C200.173 20.7358 200.721 21.2932 200.721 21.9784C200.721 22.6636 200.173 23.221 199.5 23.221Z" fill="white"/>
<path d="M199.485 17.0745C199.484 17.0745 199.484 17.0745 199.484 17.0745C196.169 17.075 193.473 19.8205 193.472 23.1949C193.472 24.8295 194.097 26.3663 195.232 27.5219C196.367 28.6775 197.876 29.3137 199.481 29.3137C199.481 29.3137 199.482 29.3137 199.482 29.3137C202.796 29.3135 205.493 26.568 205.493 23.1933C205.493 21.5587 204.868 20.0219 203.733 18.8663C202.598 17.7107 201.09 17.0745 199.485 17.0745ZM199.482 28.7911C199.482 28.7911 199.482 28.7911 199.481 28.7911C198.013 28.7911 196.633 28.2092 195.595 27.1524C194.557 26.0953 193.985 24.6899 193.986 23.1949C193.986 20.1086 196.452 17.5976 199.484 17.5971C199.484 17.5971 199.484 17.5971 199.485 17.5971C200.952 17.5971 202.332 18.179 203.37 19.2358C204.408 20.2929 204.98 21.6983 204.98 23.1933C204.979 26.2796 202.513 28.7908 199.482 28.7911Z" fill="white"/>
<path d="M199.483 15C197.334 15 195.313 15.8524 193.794 17.4C191.001 20.244 190.697 24.6742 192.876 27.8667L191.787 28.976C191.679 28.9403 191.567 28.917 191.45 28.917C191.16 28.917 190.887 29.0316 190.683 29.2396L187.592 32.3884C186.803 33.1925 186.803 34.5007 187.592 35.3049C187.973 35.6931 188.481 35.9067 189.024 35.9067C189.566 35.9067 190.075 35.6931 190.456 35.3049L193.547 32.1559C193.845 31.8521 193.928 31.415 193.806 31.032L194.894 29.924C196.231 30.8742 197.818 31.3879 199.483 31.3879C201.632 31.3879 203.652 30.5356 205.172 28.988C208.309 25.7933 208.309 20.5949 205.172 17.4C203.652 15.8524 201.632 15 199.483 15ZM193.184 31.7863L190.093 34.9353C189.809 35.2248 189.429 35.384 189.024 35.384C188.619 35.384 188.239 35.2248 187.955 34.9353C187.366 34.3351 187.366 33.3582 187.955 32.7579L191.046 29.6091C191.153 29.4999 191.297 29.4397 191.45 29.4397C191.603 29.4397 191.747 29.4999 191.854 29.6091L193.184 30.9635C193.407 31.1904 193.407 31.5594 193.184 31.7863ZM193.528 30.5752L192.235 29.2582L193.185 28.291C193.373 28.5319 193.575 28.7652 193.794 28.988C194.012 29.2098 194.241 29.4155 194.478 29.6083L193.528 30.5752ZM204.809 28.6184C203.386 30.0675 201.495 30.8653 199.483 30.8653C197.471 30.8653 195.579 30.0675 194.157 28.6184C191.22 25.6274 191.22 20.7608 194.157 17.7695C195.579 16.3204 197.471 15.5227 199.483 15.5227C201.495 15.5227 203.386 16.3204 204.809 17.7695C207.746 20.7608 207.746 25.6274 204.809 28.6184Z" fill="white"/>
<path d="M279.164 77.1645C278.742 77.1653 278.334 77.3109 278.007 77.5767C277.68 77.8426 277.454 78.2126 277.368 78.625H274.235C274.155 77.4944 273.709 76.4205 272.965 75.5652L275.187 73.3472C275.567 73.5949 276.025 73.693 276.473 73.6227C276.921 73.5524 277.327 73.3187 277.613 72.9666C277.898 72.6144 278.043 72.169 278.02 71.7162C277.996 71.2633 277.806 70.8353 277.485 70.5147C277.165 70.194 276.737 70.0036 276.284 69.9801C275.831 69.9566 275.386 70.1016 275.033 70.3873C274.681 70.673 274.448 71.079 274.377 71.527C274.307 71.9749 274.405 72.433 274.653 72.8128L272.435 75.0346C271.58 74.2908 270.506 73.8453 269.375 73.7653V70.6323C269.82 70.5396 270.214 70.2852 270.482 69.9185C270.75 69.5518 270.872 69.0988 270.826 68.647C270.779 68.1953 270.567 67.7768 270.229 67.4726C269.892 67.1684 269.454 67 269 67C268.546 67 268.108 67.1684 267.771 67.4726C267.433 67.7768 267.221 68.1953 267.174 68.647C267.128 69.0988 267.25 69.5518 267.518 69.9185C267.786 70.2852 268.18 70.5396 268.625 70.6323V73.7653C267.494 73.8453 266.42 74.2908 265.565 75.0346L263.347 72.8128C263.596 72.4323 263.694 71.9732 263.624 71.5243C263.554 71.0753 263.319 70.6683 262.967 70.382C262.614 70.0956 262.167 69.9501 261.713 69.9736C261.26 69.9971 260.831 70.188 260.509 70.5093C260.188 70.8306 259.997 71.2596 259.974 71.7134C259.95 72.1673 260.096 72.6137 260.382 72.9665C260.668 73.3193 261.075 73.5535 261.524 73.6238C261.973 73.6941 262.432 73.5956 262.813 73.3472L265.035 75.5652C264.291 76.4205 263.845 77.4944 263.765 78.625H260.632C260.54 78.1804 260.285 77.786 259.919 77.518C259.552 77.2501 259.099 77.1275 258.647 77.1742C258.195 77.2208 257.777 77.4333 257.473 77.7705C257.168 78.1078 257 78.5458 257 79C257 79.4542 257.168 79.8922 257.473 80.2295C257.777 80.5667 258.195 80.7792 258.647 80.8258C259.099 80.8725 259.552 80.7499 259.919 80.482C260.285 80.214 260.54 79.8196 260.632 79.375H263.765C263.845 80.5056 264.291 81.5795 265.035 82.4348L262.813 84.6528C262.433 84.4051 261.975 84.307 261.527 84.3773C261.079 84.4476 260.673 84.6813 260.387 85.0334C260.102 85.3856 259.957 85.831 259.98 86.2838C260.004 86.7367 260.194 87.1647 260.515 87.4853C260.835 87.806 261.263 87.9964 261.716 88.0199C262.169 88.0434 262.614 87.8983 262.967 87.6127C263.319 87.327 263.552 86.921 263.623 86.473C263.693 86.0251 263.595 85.567 263.347 85.1872L265.565 82.9654C266.42 83.7092 267.494 84.1547 268.625 84.2347V87.3677C268.18 87.4604 267.786 87.7148 267.518 88.0815C267.25 88.4482 267.128 88.9012 267.174 89.353C267.221 89.8047 267.433 90.2232 267.771 90.5274C268.108 90.8316 268.546 91 269 91C269.454 91 269.892 90.8316 270.229 90.5274C270.567 90.2232 270.779 89.8047 270.826 89.353C270.872 88.9012 270.75 88.4482 270.482 88.0815C270.214 87.7148 269.82 87.4604 269.375 87.3677V84.2347C270.506 84.1547 271.58 83.7092 272.435 82.9654L274.653 85.1872C274.405 85.567 274.307 86.0251 274.377 86.473C274.448 86.921 274.681 87.327 275.033 87.6127C275.386 87.8983 275.831 88.0434 276.284 88.0199C276.737 87.9964 277.165 87.806 277.485 87.4853C277.806 87.1647 277.996 86.7367 278.02 86.2838C278.043 85.831 277.898 85.3856 277.613 85.0334C277.327 84.6813 276.921 84.4476 276.473 84.3773C276.025 84.307 275.567 84.4051 275.187 84.6528L272.965 82.4348C273.709 81.5795 274.155 80.5056 274.235 79.375H277.368C277.439 79.7147 277.604 80.0273 277.846 80.2766C278.087 80.5259 278.394 80.7017 278.731 80.7836C279.068 80.8656 279.422 80.8502 279.751 80.7394C280.08 80.6286 280.37 80.4268 280.589 80.1575C280.808 79.8882 280.946 79.5624 280.987 79.2179C281.028 78.8733 280.971 78.5242 280.822 78.2109C280.673 77.8976 280.438 77.633 280.144 77.4478C279.851 77.2626 279.511 77.1643 279.164 77.1645ZM275.414 71.0448C275.566 70.893 275.759 70.7897 275.97 70.7478C276.18 70.706 276.399 70.7275 276.597 70.8097C276.795 70.8919 276.965 71.031 277.084 71.2095C277.203 71.388 277.267 71.5979 277.267 71.8126C277.267 72.0273 277.203 72.2371 277.084 72.4156C276.965 72.5942 276.795 72.7333 276.597 72.8155C276.399 72.8976 276.18 72.9192 275.97 72.8773C275.759 72.8355 275.566 72.7321 275.414 72.5804C275.212 72.3758 275.098 72.0993 275.099 71.8114C275.101 71.5236 275.216 71.2479 275.42 71.0448H275.414ZM267.914 68.8362C267.914 68.6214 267.977 68.4113 268.096 68.2326C268.216 68.0538 268.385 67.9144 268.583 67.8319C268.782 67.7495 269 67.7277 269.211 67.7694C269.421 67.8111 269.615 67.9143 269.767 68.066C269.919 68.2178 270.023 68.4112 270.065 68.6218C270.107 68.8325 270.085 69.0508 270.003 69.2493C269.921 69.4478 269.782 69.6174 269.603 69.7368C269.425 69.8562 269.215 69.9199 269 69.9199C268.713 69.9194 268.437 69.8051 268.234 69.602C268.03 69.399 267.915 69.1236 267.914 68.8362ZM261.045 72.586C260.893 72.4341 260.79 72.2407 260.748 72.0301C260.706 71.8196 260.728 71.6013 260.81 71.403C260.892 71.2047 261.031 71.0351 261.21 70.9159C261.388 70.7966 261.598 70.733 261.813 70.733C262.027 70.733 262.237 70.7966 262.416 70.9159C262.594 71.0351 262.733 71.2047 262.815 71.403C262.898 71.6013 262.919 71.8196 262.877 72.0301C262.835 72.2407 262.732 72.4341 262.58 72.586C262.376 72.788 262.099 72.9008 261.811 72.8997C261.524 72.8987 261.248 72.7839 261.045 72.5804V72.586ZM258.836 80.0856C258.621 80.0859 258.411 80.0226 258.233 79.9035C258.054 79.7845 257.914 79.6151 257.832 79.4167C257.749 79.2184 257.728 79.0001 257.769 78.7894C257.811 78.5787 257.914 78.3851 258.066 78.2331C258.218 78.081 258.411 77.9775 258.622 77.9354C258.832 77.8934 259.051 77.9148 259.249 77.9969C259.448 78.079 259.617 78.2181 259.737 78.3967C259.856 78.5753 259.92 78.7852 259.92 79C259.919 79.2874 259.805 79.563 259.602 79.7664C259.399 79.9698 259.124 80.0846 258.836 80.0856ZM267.658 77.9313C267.658 77.6658 267.736 77.4063 267.884 77.1855C268.031 76.9647 268.241 76.7927 268.486 76.6911C268.732 76.5895 269.001 76.5629 269.262 76.6147C269.522 76.6665 269.761 76.7943 269.949 76.9821C270.137 77.1698 270.265 77.409 270.317 77.6694C270.368 77.9298 270.342 78.1997 270.24 78.445C270.139 78.6903 269.967 78.9 269.746 79.0475C269.525 79.195 269.266 79.2737 269 79.2737C268.644 79.2737 268.303 79.1323 268.051 78.8805C267.799 78.6288 267.658 78.2873 267.658 77.9313ZM269 83.4998C268.018 83.5006 267.062 83.1785 266.281 82.5829C266.326 81.8921 266.632 81.2442 267.137 80.7707C267.642 80.2972 268.308 80.0337 269 80.0337C269.692 80.0337 270.358 80.2972 270.863 80.7707C271.368 81.2442 271.674 81.8921 271.719 82.5829C270.938 83.1785 269.982 83.5006 269 83.4998ZM262.58 86.9552C262.429 87.107 262.235 87.2103 262.025 87.2522C261.814 87.294 261.596 87.2725 261.397 87.1903C261.199 87.1081 261.03 86.969 260.91 86.7905C260.791 86.612 260.727 86.4021 260.727 86.1874C260.727 85.9727 260.791 85.7629 260.91 85.5844C261.03 85.4058 261.199 85.2667 261.397 85.1845C261.596 85.1023 261.814 85.0808 262.025 85.1227C262.235 85.1645 262.429 85.2679 262.58 85.4196C262.783 85.6237 262.897 85.8997 262.897 86.1874C262.897 86.4751 262.783 86.7511 262.58 86.9552ZM270.08 89.1638C270.08 89.3788 270.017 89.5891 269.898 89.768C269.778 89.9469 269.608 90.0863 269.41 90.1686C269.211 90.2509 268.993 90.2723 268.782 90.2302C268.571 90.1881 268.377 90.0843 268.225 89.9319C268.074 89.7796 267.971 89.5857 267.929 89.3747C267.888 89.1637 267.91 88.9452 267.993 88.7468C268.076 88.5484 268.216 88.3791 268.395 88.2605C268.574 88.1418 268.785 88.079 269 88.0801C269.287 88.0806 269.563 88.1949 269.766 88.398C269.97 88.601 270.085 88.8764 270.086 89.1638H270.08ZM276.95 85.414C277.101 85.5659 277.205 85.7593 277.247 85.9699C277.288 86.1804 277.267 86.3987 277.185 86.597C277.103 86.7953 276.963 86.9649 276.785 87.0841C276.606 87.2034 276.396 87.267 276.182 87.267C275.967 87.267 275.757 87.2034 275.579 87.0841C275.4 86.9649 275.261 86.7953 275.179 86.597C275.097 86.3987 275.075 86.1804 275.117 85.9699C275.159 85.7593 275.262 85.5659 275.414 85.414C275.516 85.3131 275.636 85.2333 275.768 85.1789C275.901 85.1246 276.043 85.0969 276.186 85.0975C276.329 85.098 276.471 85.1267 276.603 85.182C276.735 85.2373 276.854 85.318 276.955 85.4196L276.95 85.414ZM272.375 81.9623C272.25 81.4265 272 80.9277 271.646 80.507C271.291 80.0863 270.842 79.7555 270.335 79.5418C270.666 79.2672 270.905 78.8969 271.019 78.4816C271.132 78.0663 271.114 77.6261 270.968 77.2211C270.822 76.8161 270.555 76.466 270.203 76.2185C269.851 75.971 269.431 75.8382 269 75.8382C268.569 75.8382 268.149 75.971 267.797 76.2185C267.445 76.466 267.178 76.8161 267.032 77.2211C266.886 77.6261 266.868 78.0663 266.981 78.4816C267.095 78.8969 267.334 79.2672 267.665 79.5418C267.158 79.7555 266.709 80.0863 266.354 80.507C266 80.9277 265.75 81.4265 265.625 81.9623C265.052 81.3129 264.679 80.5119 264.55 79.6556C264.421 78.7993 264.542 77.9239 264.899 77.1347C265.255 76.3454 265.832 75.6757 266.559 75.2059C267.286 74.7362 268.134 74.4863 269 74.4863C269.866 74.4863 270.714 74.7362 271.441 75.2059C272.168 75.6757 272.745 76.3454 273.101 77.1347C273.458 77.9239 273.579 78.7993 273.45 79.6556C273.321 80.5119 272.948 81.3129 272.375 81.9623ZM279.156 80.0874C278.942 80.086 278.733 80.0211 278.555 79.901C278.378 79.7809 278.24 79.6109 278.159 79.4126C278.078 79.2142 278.057 78.9963 278.1 78.7862C278.142 78.5762 278.246 78.3835 278.398 78.2323C278.55 78.0812 278.743 77.9784 278.954 77.9369C279.164 77.8954 279.382 77.917 279.58 77.9991C279.778 78.0812 279.947 78.2201 280.066 78.3982C280.185 78.5763 280.249 78.7857 280.249 79C280.249 79.1426 280.221 79.2837 280.167 79.4154C280.112 79.5471 280.032 79.6668 279.931 79.7676C279.831 79.8684 279.711 79.9484 279.579 80.0029C279.448 80.0575 279.306 80.0856 279.164 80.0856L279.156 80.0874Z" fill="white"/>
<path d="M281.539 27.177C281.831 26.5824 281.936 25.4323 281.313 25.5257C280.124 25.735 278.958 26.0637 277.835 26.5067C279.937 22.2281 279.7 22.6441 279.785 22.6856C279.757 22.9388 279.819 23.1936 279.961 23.4055C280.102 23.6175 280.313 23.773 280.557 23.845C280.802 23.9169 281.063 23.9008 281.297 23.7993C281.531 23.6978 281.721 23.5174 281.835 23.2897L282.474 21.9902C282.584 21.7608 282.611 21.4998 282.548 21.2529C282.486 21.006 282.339 20.7889 282.132 20.6395C281.926 20.4901 281.674 20.4179 281.42 20.4357C281.166 20.4534 280.926 20.5598 280.742 20.7364L270.229 15.5712C270.257 15.318 270.195 15.0632 270.054 14.8513C269.912 14.6393 269.701 14.4838 269.457 14.4118C269.213 14.3399 268.951 14.356 268.717 14.4575C268.484 14.559 268.293 14.7394 268.179 14.9671L267.541 16.2666C267.43 16.496 267.404 16.757 267.466 17.0039C267.528 17.2508 267.676 17.4679 267.882 17.6173C268.088 17.7667 268.34 17.8388 268.594 17.8211C268.848 17.8034 269.088 17.697 269.272 17.5204C269.363 17.5651 269.724 16.7467 264.222 27.9452L264.164 27.9165C264.192 27.6633 264.129 27.4085 263.988 27.1966C263.847 26.9847 263.636 26.8291 263.391 26.7572C263.147 26.6852 262.885 26.7014 262.652 26.8029C262.418 26.9043 262.228 27.0847 262.114 27.3124L261.475 28.6119C261.365 28.8413 261.338 29.1023 261.401 29.3492C261.463 29.5961 261.61 29.8133 261.816 29.9627C262.023 30.112 262.275 30.1842 262.529 30.1665C262.783 30.1488 263.023 30.0423 263.206 29.8658L273.719 35.031C273.692 35.2841 273.754 35.5389 273.895 35.7509C274.036 35.9628 274.248 36.1183 274.492 36.1903C274.736 36.2623 274.998 36.2461 275.232 36.1446C275.465 36.0431 275.656 35.8627 275.77 35.6351L276.408 34.3355C276.519 34.1061 276.545 33.8451 276.483 33.5982C276.42 33.3513 276.273 33.1342 276.067 32.9848C275.861 32.8354 275.608 32.7633 275.354 32.781C275.1 32.7987 274.861 32.9051 274.677 33.0817C274.593 33.0402 274.427 33.4428 276.339 29.5508C277.156 29.6536 278.158 29.666 278.134 28.8438C278.882 28.8078 279.863 28.6083 280.095 27.8912C280.537 27.8946 281.245 27.7747 281.539 27.177ZM281.824 21.671L281.185 22.9705C281.143 23.0567 281.068 23.1225 280.977 23.1535C280.887 23.1845 280.787 23.1781 280.701 23.1357C280.615 23.0934 280.549 23.0186 280.518 22.9277C280.487 22.8369 280.493 22.7374 280.536 22.6513L281.174 21.3517C281.216 21.2656 281.291 21.1998 281.382 21.1688C281.473 21.1378 281.572 21.1442 281.659 21.1865C281.745 21.2288 281.811 21.3036 281.842 21.3945C281.873 21.4854 281.866 21.5848 281.824 21.671ZM280.046 22.0071L269.649 16.8994L269.969 16.2497L280.365 21.3574L280.046 22.0071ZM268.19 16.5858L268.829 15.2863C268.871 15.2001 268.946 15.1343 269.037 15.1033C269.128 15.0723 269.227 15.0787 269.313 15.121C269.399 15.1634 269.465 15.2382 269.496 15.3291C269.527 15.4199 269.521 15.5194 269.479 15.6055L268.84 16.905C268.798 16.9912 268.723 17.057 268.632 17.088C268.541 17.119 268.442 17.1126 268.356 17.0703C268.269 17.028 268.204 16.9531 268.173 16.8623C268.142 16.7714 268.148 16.672 268.19 16.5858ZM262.125 28.9311L262.763 27.6316C262.806 27.5455 262.881 27.4797 262.971 27.4487C263.062 27.4177 263.162 27.424 263.248 27.4664C263.334 27.5087 263.4 27.5835 263.431 27.6744C263.462 27.7653 263.455 27.8647 263.413 27.9509L262.775 29.2504C262.732 29.3365 262.657 29.4024 262.567 29.4333C262.476 29.4643 262.376 29.458 262.29 29.4156C262.204 29.3733 262.138 29.2985 262.107 29.2076C262.076 29.1168 262.083 29.0173 262.125 28.9311ZM263.903 28.595L274.299 33.7027L273.98 34.3525L263.584 29.2447L263.903 28.595ZM275.758 34.0163L275.12 35.3158C275.078 35.402 275.003 35.4678 274.912 35.4988C274.821 35.5298 274.722 35.5234 274.635 35.4811C274.549 35.4387 274.483 35.3639 274.453 35.2731C274.422 35.1822 274.428 35.0827 274.47 34.9966L275.109 33.6971C275.151 33.6109 275.226 33.5451 275.317 33.5141C275.408 33.4831 275.507 33.4895 275.593 33.5318C275.679 33.5741 275.745 33.649 275.776 33.7398C275.807 33.8307 275.801 33.9301 275.758 34.0163ZM273.969 32.7337L264.872 28.2645L269.98 17.8684L279.077 22.3377L276.818 26.9347C274.956 27.7372 273.279 28.915 271.892 30.3944C271.854 30.4369 271.826 30.4878 271.811 30.5429C271.797 30.598 271.795 30.6558 271.807 30.7116C271.819 30.7674 271.844 30.8196 271.88 30.8639C271.916 30.9082 271.962 30.9434 272.014 30.9667C272.459 31.1853 272.423 30.619 274.225 29.2741C274.682 29.2971 275.138 29.3524 275.587 29.4395L273.969 32.7337ZM279.808 27.1534C279.748 27.1456 279.688 27.1527 279.631 27.1741C279.575 27.1956 279.525 27.2307 279.486 27.2762C279.447 27.3218 279.42 27.3764 279.407 27.4352C279.394 27.4939 279.396 27.5549 279.413 27.6127C279.412 27.6364 279.406 27.6597 279.396 27.681C279.385 27.7022 279.37 27.7211 279.352 27.7361C279.259 27.8517 278.905 28.1213 277.645 28.1317C277.584 28.1325 277.524 28.1489 277.47 28.1794C277.417 28.2098 277.372 28.2534 277.341 28.3059C277.309 28.3584 277.291 28.4182 277.288 28.4796C277.286 28.541 277.299 28.602 277.327 28.6568C277.358 28.7121 277.381 28.7721 277.393 28.8344C277.091 28.9806 275.675 28.712 275.149 28.6315C276.969 27.5288 278.962 26.7436 281.045 26.3095C281.028 26.5005 280.975 26.6866 280.889 26.8577C280.729 27.1826 280.035 27.1842 279.808 27.1534Z" fill="white"/>
<path d="M270.972 20.7752L270.322 20.456L270.641 19.8062C270.683 19.7201 270.69 19.6206 270.659 19.5297C270.628 19.4389 270.562 19.3641 270.476 19.3217C270.39 19.2794 270.29 19.273 270.199 19.304C270.108 19.335 270.034 19.4008 269.991 19.487L269.512 20.4616C269.47 20.5478 269.464 20.6472 269.495 20.7381C269.526 20.829 269.592 20.9038 269.678 20.9461L270.652 21.425C270.738 21.4673 270.838 21.4737 270.929 21.4427C271.02 21.4117 271.094 21.3459 271.137 21.2597C271.179 21.1735 271.186 21.0741 271.155 20.9832C271.124 20.8924 271.058 20.8175 270.972 20.7752Z" fill="white"/>
<path d="M272.761 22.0578L273.24 21.0832C273.282 20.997 273.289 20.8976 273.258 20.8067C273.227 20.7159 273.161 20.641 273.075 20.5987C272.988 20.5564 272.889 20.55 272.798 20.581C272.707 20.612 272.632 20.6778 272.59 20.764L272.111 21.7386C272.069 21.8248 272.063 21.9242 272.094 22.0151C272.125 22.1059 272.19 22.1808 272.277 22.2231C272.363 22.2654 272.462 22.2718 272.553 22.2408C272.644 22.2098 272.719 22.144 272.761 22.0578Z" fill="white"/>
<path d="M276.329 23.0043L277.304 23.4832C277.39 23.5255 277.489 23.5319 277.58 23.5009C277.671 23.4699 277.746 23.4041 277.788 23.3179C277.831 23.2317 277.837 23.1323 277.806 23.0414C277.775 22.9506 277.709 22.8757 277.623 22.8334L276.648 22.3546C276.562 22.3122 276.463 22.3059 276.372 22.3369C276.281 22.3678 276.206 22.4337 276.164 22.5198C276.122 22.606 276.115 22.7054 276.146 22.7963C276.177 22.8872 276.243 22.962 276.329 23.0043Z" fill="white"/>
<path d="M277.144 23.8081L276.494 23.4888C276.408 23.4465 276.309 23.4401 276.218 23.4711C276.127 23.5021 276.052 23.5679 276.01 23.6541C275.968 23.7403 275.961 23.8397 275.992 23.9306C276.023 24.0214 276.089 24.0963 276.175 24.1386L276.825 24.4578C276.911 24.5002 277.011 24.5065 277.101 24.4755C277.192 24.4445 277.267 24.3787 277.309 24.2926C277.352 24.2064 277.358 24.107 277.327 24.0161C277.296 23.9252 277.23 23.8504 277.144 23.8081Z" fill="white"/>
<path d="M272.448 23.517L271.473 23.0382C271.387 22.9958 271.287 22.9895 271.196 23.0204C271.106 23.0514 271.031 23.1173 270.988 23.2034L270.51 24.178C270.467 24.2642 270.461 24.3637 270.492 24.4545C270.523 24.5454 270.589 24.6202 270.675 24.6625C270.761 24.7049 270.86 24.7112 270.951 24.6803C271.042 24.6493 271.117 24.5834 271.159 24.4973L271.479 23.8475L272.128 24.1668C272.215 24.2091 272.314 24.2155 272.405 24.1845C272.496 24.1535 272.571 24.0877 272.613 24.0015C272.655 23.9153 272.662 23.8159 272.631 23.725C272.6 23.6342 272.534 23.5593 272.448 23.517Z" fill="white"/>
<path d="M273.263 24.3206L272.784 25.2952C272.741 25.3814 272.735 25.4808 272.766 25.5717C272.797 25.6626 272.863 25.7374 272.949 25.7797C273.035 25.8221 273.135 25.8284 273.226 25.7974C273.316 25.7664 273.391 25.7006 273.434 25.6145L273.912 24.6398C273.955 24.5537 273.961 24.4542 273.93 24.3634C273.899 24.2725 273.833 24.1977 273.747 24.1553C273.661 24.113 273.562 24.1066 273.471 24.1376C273.38 24.1686 273.305 24.2344 273.263 24.3206Z" fill="white"/>
<path d="M276.346 25.4323L275.696 25.1131C275.61 25.0708 275.511 25.0644 275.42 25.0954C275.329 25.1264 275.254 25.1922 275.212 25.2784L274.733 26.253C274.691 26.3392 274.684 26.4386 274.715 26.5295C274.746 26.6203 274.812 26.6952 274.898 26.7375C274.985 26.7798 275.084 26.7862 275.175 26.7552C275.266 26.7242 275.341 26.6584 275.383 26.5722L275.702 25.9225L276.027 26.0821C276.113 26.1244 276.213 26.1308 276.303 26.0998C276.394 26.0688 276.469 26.003 276.511 25.9168C276.554 25.8307 276.56 25.7312 276.529 25.6404C276.498 25.5495 276.432 25.4747 276.346 25.4323Z" fill="white"/>
<path d="M270.173 22.3997L269.199 21.9208C269.113 21.8785 269.013 21.8721 268.922 21.9031C268.831 21.9341 268.757 21.9999 268.714 22.0861C268.672 22.1723 268.666 22.2717 268.697 22.3626C268.728 22.4534 268.793 22.5283 268.88 22.5706L269.854 23.0495C269.94 23.0918 270.04 23.0982 270.131 23.0672C270.222 23.0362 270.296 22.9704 270.339 22.8842C270.381 22.798 270.387 22.6986 270.356 22.6077C270.325 22.5169 270.26 22.442 270.173 22.3997Z" fill="white"/>
<path d="M268.401 23.5452L269.051 23.8644C269.137 23.9068 269.236 23.9131 269.327 23.8822C269.418 23.8512 269.493 23.7853 269.535 23.6992C269.577 23.613 269.584 23.5136 269.553 23.4227C269.522 23.3319 269.456 23.257 269.37 23.2147L268.72 22.8955C268.634 22.8531 268.535 22.8468 268.444 22.8777C268.353 22.9087 268.278 22.9746 268.236 23.0607C268.193 23.1469 268.187 23.2463 268.218 23.3372C268.249 23.4281 268.315 23.5029 268.401 23.5452Z" fill="white"/>
<path d="M274.385 22.8559L274.71 23.0155C274.797 23.0578 274.896 23.0642 274.987 23.0332C275.078 23.0022 275.153 22.9364 275.195 22.8502L275.514 22.2005C275.556 22.1143 275.563 22.0149 275.532 21.924C275.501 21.8331 275.435 21.7583 275.349 21.716C275.263 21.6736 275.163 21.6673 275.072 21.6983C274.981 21.7293 274.907 21.7951 274.864 21.8812L274.705 22.2061L274.055 21.8869C273.969 21.8446 273.869 21.8382 273.778 21.8692C273.688 21.9002 273.613 21.966 273.57 22.0521C273.528 22.1383 273.522 22.2378 273.553 22.3286C273.584 22.4195 273.65 22.4943 273.736 22.5366C273.693 22.6228 273.687 22.7223 273.718 22.8131C273.749 22.904 273.815 22.9788 273.901 23.0211C273.987 23.0635 274.087 23.0698 274.177 23.0388C274.268 23.0079 274.343 22.942 274.385 22.8559Z" fill="white"/>
<path d="M272.641 28.0483L272.316 27.8887L272.635 27.239C272.678 27.1528 272.684 27.0533 272.653 26.9625C272.622 26.8716 272.556 26.7968 272.47 26.7545C272.384 26.7121 272.284 26.7058 272.194 26.7368C272.103 26.7677 272.028 26.8336 271.986 26.9197L271.507 27.8944C271.464 27.9805 271.458 28.08 271.489 28.1708C271.52 28.2617 271.586 28.3365 271.672 28.3789L272.322 28.6981C272.408 28.7404 272.507 28.7468 272.598 28.7158C272.689 28.6848 272.764 28.619 272.806 28.5328C272.849 28.4467 272.855 28.3472 272.824 28.2564C272.793 28.1655 272.727 28.0907 272.641 28.0483Z" fill="white"/>
<path d="M270.686 26.2812L270.207 27.2558C270.165 27.342 270.159 27.4414 270.19 27.5323C270.221 27.6231 270.286 27.698 270.373 27.7403C270.459 27.7826 270.558 27.789 270.649 27.758C270.74 27.727 270.815 27.6612 270.857 27.575L271.336 26.6004C271.378 26.5142 271.385 26.4148 271.354 26.3239C271.323 26.2331 271.257 26.1582 271.171 26.1159C271.085 26.0736 270.985 26.0672 270.894 26.0982C270.803 26.1292 270.729 26.195 270.686 26.2812Z" fill="white"/>
<path d="M269.552 26.1272L269.233 26.777C269.19 26.8632 269.184 26.9626 269.215 27.0535C269.246 27.1443 269.312 27.2192 269.398 27.2615C269.484 27.3038 269.584 27.3102 269.674 27.2792C269.765 27.2482 269.84 27.1824 269.882 27.0962L270.202 26.4465C270.244 26.3603 270.25 26.2609 270.219 26.17C270.188 26.0791 270.123 26.0043 270.036 25.962C269.95 25.9197 269.851 25.9133 269.76 25.9443C269.669 25.9753 269.594 26.0411 269.552 26.1272Z" fill="white"/>
<path d="M268.412 25.164L268.093 25.8137L267.768 25.6541L268.087 25.0043C268.13 24.9182 268.136 24.8187 268.105 24.7279C268.074 24.637 268.008 24.5622 267.922 24.5198C267.836 24.4775 267.736 24.4711 267.645 24.5021C267.555 24.5331 267.48 24.5989 267.437 24.6851L266.959 25.6597C266.916 25.7459 266.91 25.8454 266.941 25.9362C266.972 26.0271 267.038 26.1019 267.124 26.1442L268.098 26.6231C268.185 26.6654 268.284 26.6718 268.375 26.6408C268.466 26.6098 268.541 26.544 268.583 26.4578L269.062 25.4832C269.104 25.397 269.111 25.2976 269.08 25.2067C269.049 25.1159 268.983 25.041 268.897 24.9987C268.81 24.9564 268.711 24.95 268.62 24.981C268.529 25.012 268.454 25.0778 268.412 25.164Z" fill="white"/>
<path d="M217.737 80.475H211.978L210.239 71.2489L212.44 72.8046C212.624 72.9343 212.843 73.0025 213.064 73.0025C213.141 73.0025 213.218 72.9943 213.295 72.9776C213.591 72.9127 213.847 72.7248 213.999 72.4626L214.695 71.2557C214.847 70.9935 214.881 70.6776 214.789 70.389C214.698 70.1004 214.487 69.8619 214.212 69.7351L210.245 67.9061L214.212 66.0772C214.487 65.9503 214.698 65.7119 214.789 65.4233C214.881 65.1346 214.847 64.8188 214.695 64.5566L213.999 63.3497C213.847 63.0875 213.591 62.8995 213.295 62.8347C212.999 62.7701 212.687 62.8329 212.44 63.0077L208.873 65.5288L209.272 61.1787C209.3 60.8772 209.199 60.576 208.995 60.3522C208.79 60.1284 208.5 60 208.197 60H206.803C206.5 60 206.21 60.1284 206.005 60.3522C205.801 60.576 205.7 60.8772 205.728 61.1787L206.127 65.5288L202.56 63.0077C202.312 62.8329 202.001 62.7698 201.705 62.8347C201.409 62.8995 201.153 63.0875 201.001 63.3497L200.305 64.5566C200.153 64.8188 200.119 65.1346 200.211 65.4233C200.302 65.7119 200.513 65.9503 200.788 66.0772L204.755 67.9061L200.788 69.7351C200.513 69.8619 200.302 70.1004 200.211 70.389C200.119 70.6776 200.153 70.9935 200.305 71.2557L201.001 72.4626C201.153 72.7248 201.409 72.9127 201.705 72.9776C201.782 72.9943 201.859 73.0025 201.936 73.0025C202.157 73.0025 202.376 72.9343 202.56 72.8046L204.761 71.2489L203.022 80.475H197.262C197.117 80.475 197 80.5924 197 80.7375C197 80.8826 197.117 81 197.262 81H217.737C217.883 81 218 80.8826 218 80.7375C218 80.5924 217.883 80.475 217.737 80.475ZM214.289 70.5479C214.337 70.6984 214.32 70.8566 214.241 70.9932L213.544 72.2001C213.465 72.337 213.337 72.4308 213.182 72.4646C213.028 72.499 212.872 72.4672 212.743 72.376L208.831 69.6114C209.263 69.2732 209.563 68.7753 209.643 68.2066L213.992 70.2119C214.136 70.278 214.241 70.3975 214.289 70.5479ZM207.5 66.2651C208.405 66.2651 209.141 67.0014 209.141 67.9063C209.141 68.8112 208.405 69.5472 207.5 69.5472C206.595 69.5472 205.859 68.8112 205.859 67.9063C205.859 67.0014 206.595 66.2651 207.5 66.2651ZM206.689 69.9131C206.94 70.0148 207.213 70.0722 207.5 70.0722C207.787 70.0722 208.06 70.0148 208.311 69.9131L208.749 74.6818C208.764 74.8389 208.713 74.9897 208.607 75.1063C208.5 75.2229 208.355 75.2873 208.197 75.2873H206.803C206.645 75.2873 206.5 75.2229 206.393 75.1063C206.287 74.9897 206.236 74.8389 206.251 74.6818L206.689 69.9131ZM212.743 63.4363C212.872 63.3453 213.028 63.3133 213.182 63.3476C213.337 63.3815 213.465 63.4753 213.544 63.6122L214.241 64.8191C214.32 64.9557 214.337 65.1139 214.289 65.2644C214.241 65.4148 214.136 65.5343 213.992 65.6004L209.643 67.6057C209.563 67.037 209.263 66.5392 208.831 66.201L212.743 63.4363ZM206.393 60.706C206.5 60.5893 206.645 60.525 206.803 60.525H208.197C208.355 60.525 208.5 60.5893 208.607 60.706C208.713 60.8226 208.764 60.9734 208.749 61.1305L208.311 65.8992C208.06 65.7975 207.787 65.7401 207.5 65.7401C207.213 65.7401 206.94 65.7975 206.689 65.8992L206.251 61.1305C206.236 60.9734 206.287 60.8226 206.393 60.706ZM200.711 65.2644C200.663 65.1139 200.68 64.9557 200.759 64.8191L201.456 63.6122C201.535 63.4753 201.663 63.3815 201.818 63.3476C201.972 63.3138 202.128 63.3453 202.257 63.4363L206.169 66.201C205.737 66.5392 205.437 67.037 205.357 67.6057L201.008 65.6004C200.864 65.5343 200.759 65.4148 200.711 65.2644ZM202.257 72.376C202.128 72.467 201.972 72.499 201.818 72.4646C201.663 72.4308 201.535 72.337 201.456 72.2001L200.759 70.9932C200.68 70.8566 200.663 70.6984 200.711 70.5479C200.759 70.3975 200.864 70.278 201.008 70.2119L205.357 68.2066C205.437 68.7753 205.737 69.2732 206.169 69.6114L202.257 72.376ZM205.377 70.8134L206.127 70.2835L205.728 74.6336C205.7 74.9351 205.801 75.2363 206.005 75.4601C206.21 75.6839 206.5 75.8123 206.803 75.8123H208.197C208.5 75.8123 208.79 75.6839 208.995 75.4601C209.199 75.2363 209.3 74.9351 209.272 74.6336L208.873 70.2835L209.623 70.8134L211.443 80.475H203.556L205.377 70.8134Z" fill="white"/>
<path d="M241.403 51.4888C242.139 51.9589 242.961 51.7156 243.646 51.328C243.891 51.2034 244.465 50.8242 244.689 50.4437C245.052 49.8698 245.177 49.1618 245.033 48.4984C244.982 48.1574 244.872 47.6801 244.514 47.4197C244.299 47.2638 244.033 47.2117 243.723 47.2647C243.368 47.3522 243.078 47.6795 242.889 47.9483C242.629 48.2955 242.361 48.6545 241.619 48.8136C241.32 48.8756 240.985 49.1068 240.818 49.3935C240.435 50.0688 240.708 51.0479 241.403 51.4888ZM241.32 49.6975C241.389 49.577 241.546 49.4346 241.745 49.3859C242.699 49.1814 243.08 48.6714 243.358 48.299C243.525 48.0755 243.648 47.912 243.845 47.8387C243.984 47.8182 244.09 47.8364 244.169 47.8939C244.285 47.9681 244.409 48.2495 244.458 48.615C244.574 49.1327 244.477 49.6863 244.192 50.134C244.081 50.3386 243.639 50.6743 243.381 50.8055C242.829 51.0904 242.328 51.3458 241.711 50.9905C241.334 50.7462 241.085 50.1352 241.32 49.6975Z" fill="white"/>
<path d="M230.886 49.7483C231.353 51.9155 232.636 53.7712 234.499 54.9735C235.857 55.85 237.405 56.3027 238.983 56.3027C243.819 56.2906 247.422 52.3129 247.297 47.7692C247.25 46.1297 246.728 44.5567 245.788 43.2202C245.695 43.0879 245.512 43.0561 245.38 43.1492C245.247 43.2423 245.216 43.4251 245.309 43.5574C245.646 44.0366 245.923 44.5435 246.139 45.0681C245.423 45.1586 244.807 45.1346 244.212 44.702C243.718 44.3939 243.043 43.972 242.309 44.7552C242.016 45.2011 241.561 45.7151 240.922 45.7125C240.411 45.7314 239.882 45.4298 239.637 44.9557C239.363 44.4993 239.312 43.8989 239.515 43.4956C239.658 43.2103 239.91 43.0479 240.263 43.0131C241.251 42.904 241.773 41.7011 241.612 40.7391C242.157 40.9365 242.684 41.1967 243.183 41.519C243.646 41.8174 244.075 42.164 244.461 42.5493C244.575 42.6637 244.761 42.6637 244.875 42.5492C244.989 42.4348 244.989 42.2493 244.875 42.1349C241.032 38.3247 234.84 39.1389 232.027 43.4991C230.824 45.3617 230.419 47.581 230.886 49.7483ZM237.375 40.4593C238.591 40.1972 239.824 40.231 240.992 40.5444C241.159 41.2135 240.983 42.2995 240.202 42.4303C239.653 42.4854 239.223 42.7703 238.991 43.2327C238.699 43.8136 238.756 44.625 239.133 45.2534C239.474 45.8966 240.195 46.324 240.939 46.2982C241.713 46.2863 242.326 45.7975 242.751 45.1403C243.131 44.7439 243.367 44.8656 243.901 45.199C244.548 45.7038 245.523 45.7686 246.348 45.6361C247.049 47.7996 246.764 50.196 245.481 52.1833C244.364 53.9145 242.639 55.1069 240.625 55.5409C239.891 55.6991 239.15 55.7491 238.422 55.6954C238.406 55.4865 238.382 55.2711 238.356 55.0465C238.253 54.1518 238.147 53.2265 238.609 52.5854C239.039 51.9694 239.314 51.2923 239.209 50.4967C239.198 50.3351 239.059 50.2127 238.898 50.2233C238.736 50.2338 238.614 50.3732 238.624 50.5347C238.722 51.0876 238.501 51.7449 238.134 52.2427C237.539 53.068 237.664 54.1546 237.774 55.1134C237.794 55.2917 237.813 55.4632 237.828 55.6283C236.768 55.4659 235.745 55.0801 234.817 54.4811C233.086 53.3638 231.893 51.6391 231.459 49.6249C231.309 48.9272 231.256 48.2237 231.297 47.5302C231.758 47.4768 232.331 47.4301 232.608 47.6585C232.72 47.7507 232.782 47.8923 232.796 48.0914C232.836 48.6271 233.247 48.9912 233.553 49.2185C234.642 49.8352 235.61 49.1322 236.302 48.5209C236.666 48.1627 237.173 47.8304 237.751 48.0373C238.045 48.1332 238.274 48.3301 238.395 48.5915C238.436 48.6699 238.472 48.7023 238.534 49.1833C238.552 49.3441 238.697 49.4596 238.858 49.4414C239.019 49.4231 239.134 49.278 239.116 49.1172C239.071 48.7259 239.01 48.4805 238.919 48.3277C238.726 47.9257 238.377 47.6252 237.933 47.4803C237.181 47.2321 236.508 47.5033 235.923 48.0733C235.261 48.6334 234.688 49.1179 233.881 48.7323C233.552 48.4836 233.397 48.2719 233.381 48.048C233.354 47.6859 233.219 47.4027 232.98 47.2061C232.553 46.8541 231.901 46.8764 231.356 46.9339C231.509 45.8362 231.9 44.7757 232.519 43.8168C233.636 42.0857 235.361 40.8933 237.375 40.4593Z" fill="white"/>
<path d="M234.168 39.919C235.623 39.0469 237.294 38.586 239 38.586C244.133 38.586 248.355 42.7603 248.413 47.8913C248.43 49.3579 248.118 50.7664 247.487 52.0777C247.345 52.3732 247.305 52.7116 247.375 53.0302C247.376 53.0347 247.377 53.0392 247.379 53.0437L247.678 54.1485C247.713 54.2791 247.831 54.365 247.96 54.365C247.986 54.365 248.012 54.3616 248.037 54.3547C248.193 54.3124 248.286 54.1515 248.243 53.9953L247.946 52.8977C247.906 52.7084 247.93 52.5078 248.015 52.3319C248.686 50.9385 249.017 49.4423 248.999 47.8847C248.939 42.2996 244.385 37.9871 239 38C237.188 38 235.413 38.4898 233.867 39.4164C233.728 39.4996 233.683 39.6795 233.766 39.8183C233.849 39.9571 234.029 40.002 234.168 39.919Z" fill="white"/>
<path d="M248.971 56.6804L248.601 55.3161C248.559 55.1599 248.398 55.0675 248.242 55.1099C248.086 55.1522 247.993 55.3131 248.036 55.4693L248.403 56.8262C248.437 56.9857 248.391 57.1444 248.278 57.2625C248.165 57.3811 248.008 57.4336 247.847 57.4072C247.842 57.4065 243.611 56.5304 243.602 56.529C243.318 56.4801 243.032 56.5138 242.774 56.6269C241.582 57.1493 240.313 57.414 239.001 57.414C233.826 57.4177 229.582 53.1822 229.586 47.9999C229.586 45.1533 230.854 42.4896 233.065 40.6917C233.191 40.5897 233.21 40.4051 233.108 40.2796C233.006 40.154 232.821 40.1349 232.696 40.2371C230.347 42.1467 229 44.9762 229 47.9999C228.998 53.628 233.567 58.0135 239.001 57.9999C240.394 57.9999 241.742 57.7186 243.009 57.1636C243.16 57.0974 243.329 57.0775 243.498 57.1057L247.733 57.9822C248.046 58.0469 248.459 57.924 248.702 57.6672C248.928 57.4403 249.055 57.0255 248.971 56.6804Z" fill="white"/>
<defs>
<filter id="filter0_d" x="0" y="0" width="309" height="114" filterUnits="userSpaceOnUse" color-interpolation-filters="sRGB">
<feFlood flood-opacity="0" result="BackgroundImageFix"/>
<feColorMatrix in="SourceAlpha" type="matrix" values="0 0 0 0 0 0 0 0 0 0 0 0 0 0 0 0 0 0 127 0"/>
<feOffset dx="4" dy="4"/>
<feGaussianBlur stdDeviation="2"/>
<feColorMatrix type="matrix" values="0 0 0 0 0 0 0 0 0 0 0 0 0 0 0 0 0 0 0.25 0"/>
<feBlend mode="normal" in2="BackgroundImageFix" result="effect1_dropShadow"/>
<feBlend mode="normal" in="SourceGraphic" in2="effect1_dropShadow" result="shape"/>
</filter>
</defs>
</svg>
