<svg width="309" height="114" viewBox="0 0 309 114" fill="none" xmlns="http://www.w3.org/2000/svg">
<g filter="url(#filter0_d)">
<rect width="301" height="106" rx="10" fill="#295677"/>
</g>
<path d="M50.6 31.04V45H47.8V35.92L44.06 45H41.94L38.18 35.92V45H35.38V31.04H38.56L43 41.42L47.44 31.04H50.6ZM53.6483 39.42C53.6483 38.3 53.8683 37.3067 54.3083 36.44C54.7616 35.5733 55.3683 34.9067 56.1283 34.44C56.9016 33.9733 57.7616 33.74 58.7083 33.74C59.5349 33.74 60.2549 33.9067 60.8683 34.24C61.4949 34.5733 61.9949 34.9933 62.3683 35.5V33.92H65.1883V45H62.3683V43.38C62.0083 43.9 61.5083 44.3333 60.8683 44.68C60.2416 45.0133 59.5149 45.18 58.6883 45.18C57.7549 45.18 56.9016 44.94 56.1283 44.46C55.3683 43.98 54.7616 43.3067 54.3083 42.44C53.8683 41.56 53.6483 40.5533 53.6483 39.42ZM62.3683 39.46C62.3683 38.78 62.2349 38.2 61.9683 37.72C61.7016 37.2267 61.3416 36.8533 60.8883 36.6C60.4349 36.3333 59.9483 36.2 59.4283 36.2C58.9083 36.2 58.4283 36.3267 57.9883 36.58C57.5483 36.8333 57.1883 37.2067 56.9083 37.7C56.6416 38.18 56.5083 38.7533 56.5083 39.42C56.5083 40.0867 56.6416 40.6733 56.9083 41.18C57.1883 41.6733 57.5483 42.0533 57.9883 42.32C58.4416 42.5867 58.9216 42.72 59.4283 42.72C59.9483 42.72 60.4349 42.5933 60.8883 42.34C61.3416 42.0733 61.7016 41.7 61.9683 41.22C62.2349 40.7267 62.3683 40.14 62.3683 39.46ZM72.183 36.22V41.58C72.183 41.9533 72.2696 42.2267 72.443 42.4C72.6296 42.56 72.9363 42.64 73.363 42.64H74.663V45H72.903C70.543 45 69.363 43.8533 69.363 41.56V36.22H68.043V33.92H69.363V31.18H72.183V33.92H74.663V36.22H72.183ZM83.9169 33.76C84.7569 33.76 85.5035 33.9467 86.1569 34.32C86.8102 34.68 87.3169 35.22 87.6769 35.94C88.0502 36.6467 88.2369 37.5 88.2369 38.5V45H85.4369V38.88C85.4369 38 85.2169 37.3267 84.7769 36.86C84.3369 36.38 83.7369 36.14 82.9769 36.14C82.2035 36.14 81.5902 36.38 81.1369 36.86C80.6969 37.3267 80.4769 38 80.4769 38.88V45H77.6769V30.2H80.4769V35.3C80.8369 34.82 81.3169 34.4467 81.9169 34.18C82.5169 33.9 83.1835 33.76 83.9169 33.76ZM96.1395 45.18C95.2329 45.18 94.4195 45.02 93.6995 44.7C92.9795 44.3667 92.4062 43.92 91.9795 43.36C91.5662 42.8 91.3395 42.18 91.2995 41.5H94.1195C94.1729 41.9267 94.3795 42.28 94.7395 42.56C95.1129 42.84 95.5729 42.98 96.1195 42.98C96.6529 42.98 97.0662 42.8733 97.3595 42.66C97.6662 42.4467 97.8195 42.1733 97.8195 41.84C97.8195 41.48 97.6329 41.2133 97.2595 41.04C96.8995 40.8533 96.3195 40.6533 95.5195 40.44C94.6929 40.24 94.0129 40.0333 93.4795 39.82C92.9595 39.6067 92.5062 39.28 92.1195 38.84C91.7462 38.4 91.5595 37.8067 91.5595 37.06C91.5595 36.4467 91.7329 35.8867 92.0795 35.38C92.4395 34.8733 92.9462 34.4733 93.5995 34.18C94.2662 33.8867 95.0462 33.74 95.9395 33.74C97.2595 33.74 98.3129 34.0733 99.0995 34.74C99.8862 35.3933 100.32 36.28 100.4 37.4H97.7195C97.6795 36.96 97.4929 36.6133 97.1595 36.36C96.8395 36.0933 96.4062 35.96 95.8595 35.96C95.3529 35.96 94.9595 36.0533 94.6795 36.24C94.4129 36.4267 94.2795 36.6867 94.2795 37.02C94.2795 37.3933 94.4662 37.68 94.8395 37.88C95.2129 38.0667 95.7929 38.26 96.5795 38.46C97.3795 38.66 98.0395 38.8667 98.5595 39.08C99.0795 39.2933 99.5262 39.6267 99.8995 40.08C100.286 40.52 100.486 41.1067 100.5 41.84C100.5 42.48 100.32 43.0533 99.9595 43.56C99.6129 44.0667 99.1062 44.4667 98.4395 44.76C97.7862 45.04 97.0195 45.18 96.1395 45.18Z" fill="white"/>
<path d="M284 106H185.592C184.387 106 183.217 105.562 182.312 104.767C162.86 87.6826 153.241 75.0573 151.292 50.2821C149.381 25.9896 157.059 16.0939 168.248 1.90996C169.197 0.706311 170.631 0 172.164 0H284.004C286.766 0 289 2.23858 289 5V101C289 103.761 286.761 106 284 106Z" fill="#64B3E2"/>
<path d="M296 106H197.592C196.387 106 195.217 105.562 194.312 104.767C174.86 87.6826 165.241 75.0573 163.292 50.2821C161.381 25.9896 169.059 16.0939 180.248 1.90996C181.197 0.706311 182.631 0 184.164 0H296.004C298.766 0 301 2.23858 301 5V101C301 103.761 298.761 106 296 106Z" fill="#379EDB"/>
<path d="M209 14C209 14.5304 208.789 15.0391 208.414 15.4142C208.039 15.7893 207.53 16 207 16C206.47 16 205.961 15.7893 205.586 15.4142C205.211 15.0391 205 14.5304 205 14C205 13.4696 205.211 12.9609 205.586 12.5858C205.961 12.2107 206.47 12 207 12C207.53 12 208.039 12.2107 208.414 12.5858C208.789 12.9609 209 13.4696 209 14Z" fill="white"/>
<path d="M198 19C198 18.7348 198.105 18.4804 198.293 18.2929C198.48 18.1054 198.735 18 199 18H215C215.265 18 215.52 18.1054 215.707 18.2929C215.895 18.4804 216 18.7348 216 19C216 19.2652 215.895 19.5196 215.707 19.7071C215.52 19.8946 215.265 20 215 20H199C198.735 20 198.48 19.8946 198.293 19.7071C198.105 19.5196 198 19.2652 198 19Z" fill="white"/>
<path d="M207 26C207.53 26 208.039 25.7893 208.414 25.4142C208.789 25.0391 209 24.5304 209 24C209 23.4696 208.789 22.9609 208.414 22.5858C208.039 22.2107 207.53 22 207 22C206.47 22 205.961 22.2107 205.586 22.5858C205.211 22.9609 205 23.4696 205 24C205 24.5304 205.211 25.0391 205.586 25.4142C205.961 25.7893 206.47 26 207 26Z" fill="white"/>
<path d="M195.8 46.6C195.588 46.4409 195.321 46.3726 195.059 46.4101C194.796 46.4476 194.559 46.5879 194.4 46.8L190.8 51.6L186 47.9999C185.788 47.8407 185.521 47.7724 185.259 47.8099C184.996 47.8474 184.759 47.9877 184.6 48.1998C184.441 48.412 184.373 48.6787 184.41 48.9413C184.448 49.2038 184.588 49.4407 184.8 49.5998L189.6 53.1999L186 57.9999C185.841 58.212 185.772 58.4787 185.81 58.7413C185.847 59.0038 185.988 59.2407 186.2 59.3999C186.412 59.559 186.679 59.6273 186.941 59.5898C187.204 59.5523 187.441 59.4121 187.6 59.1999L191.2 54.4L196 58.0001C196.212 58.1592 196.479 58.2275 196.741 58.19C197.004 58.1525 197.241 58.0122 197.4 57.8001C197.559 57.5879 197.627 57.3212 197.59 57.0587C197.552 56.7961 197.412 56.5592 197.2 56.4001L192.4 52.8L196 48.0001C196.159 47.7879 196.227 47.5212 196.19 47.2586C196.152 46.9961 196.012 46.7592 195.8 46.6Z" fill="white"/>
<path d="M224 40C223.47 40 222.961 40.2107 222.586 40.5858C222.211 40.9609 222 41.4696 222 42V48C222 48.5304 222.211 49.0391 222.586 49.4142C222.961 49.7893 223.47 50 224 50H226C226.53 50 227.039 49.7893 227.414 49.4142C227.789 49.0391 228 48.5304 228 48V47H226V48H224V42H226V43H228V42C228 41.4696 227.789 40.9609 227.414 40.5858C227.039 40.2107 226.53 40 226 40H224ZM231 40C230.47 40 229.961 40.2107 229.586 40.5858C229.211 40.9609 229 41.4696 229 42V48C229 48.5304 229.211 49.0391 229.586 49.4142C229.961 49.7893 230.47 50 231 50H233C233.53 50 234.039 49.7893 234.414 49.4142C234.789 49.0391 235 48.5304 235 48V42C235 41.4696 234.789 40.9609 234.414 40.5858C234.039 40.2107 233.53 40 233 40H231ZM231 42H233V48H231V42ZM238 40C237.47 40 236.961 40.2107 236.586 40.5858C236.211 40.9609 236 41.4696 236 42V44C236 44.5304 236.211 45.0391 236.586 45.4142C236.961 45.7893 237.47 46 238 46H240V48H236V50H240C240.53 50 241.039 49.7893 241.414 49.4142C241.789 49.0391 242 48.5304 242 48V46C242 45.4696 241.789 44.9609 241.414 44.5858C241.039 44.2107 240.53 44 240 44H238V42H242V40H238Z" fill="white"/>
<path d="M254.978 56.1266L255.56 58.04L257.473 57.458L259.801 65.1117L261.715 64.5297L259.387 56.8759L261.3 56.2939L260.718 54.3805L254.978 56.1266ZM263.588 53.5074C263.081 53.6618 262.655 54.0114 262.406 54.4794C262.156 54.9474 262.102 55.4954 262.257 56.0029L264.585 63.6566L266.498 63.0746L265.334 59.2477L267.248 58.6657L268.412 62.4925L270.325 61.9105L267.997 54.2567C267.843 53.7493 267.493 53.3239 267.025 53.0742C266.557 52.8245 266.009 52.771 265.502 52.9254L263.588 53.5074ZM264.17 55.4208L266.084 54.8388L266.666 56.7522L264.752 57.3343L264.17 55.4208ZM268.372 52.0523L271.282 61.6195L273.195 61.0374L271.74 56.2538L275.109 60.4554L277.022 59.8733L274.112 50.3062L272.199 50.8882L273.654 55.6718L270.285 51.4702L268.372 52.0523Z" fill="white"/>
<path d="M255 26H273" stroke="white" stroke-width="2" stroke-linecap="round" stroke-linejoin="round"/>
<path d="M264 17V35" stroke="white" stroke-width="2" stroke-linecap="round" stroke-linejoin="round"/>
<path d="M268.5 18.5L271.5 21.5" stroke="white" stroke-width="2" stroke-linecap="round" stroke-linejoin="round"/>
<path d="M271.5 18.5L268.5 21.5" stroke="white" stroke-width="2" stroke-linecap="round" stroke-linejoin="round"/>
<path d="M258 18V22" stroke="white" stroke-width="2" stroke-linecap="round" stroke-linejoin="round"/>
<path d="M256 20H260" stroke="white" stroke-width="2" stroke-linecap="round" stroke-linejoin="round"/>
<path d="M270 30H270.01" stroke="white" stroke-width="2" stroke-linecap="round" stroke-linejoin="round"/>
<path d="M270 34H270.01" stroke="white" stroke-width="2" stroke-linecap="round" stroke-linejoin="round"/>
<path d="M256 32H260" stroke="white" stroke-width="2" stroke-linecap="round" stroke-linejoin="round"/>
<path d="M226 84.88V87L224.2 85.83L219.41 76.83C220.07 76.62 220.67 76.28 221.19 75.83L226 84.88ZM221 72C221 72.7956 220.684 73.5587 220.121 74.1213C219.559 74.6839 218.796 75 218 75H217.56L211.8 85.83L210 87V84.88L215.79 74C214.69 72.77 214.79 70.87 216.03 69.76C216.57 69.28 217.27 69 218 69V67C218.265 67 218.52 67.1054 218.707 67.2929C218.895 67.4804 219 67.7348 219 68V69.18C220.2 69.6 221 70.73 221 72ZM219 72C219 71.7348 218.895 71.4804 218.707 71.2929C218.52 71.1054 218.265 71 218 71C217.735 71 217.48 71.1054 217.293 71.2929C217.105 71.4804 217 71.7348 217 72C217 72.2652 217.105 72.5196 217.293 72.7071C217.48 72.8946 217.735 73 218 73C218.265 73 218.52 72.8946 218.707 72.7071C218.895 72.5196 219 72.2652 219 72Z" fill="white"/>
<path d="M273 85C272.735 85 272.48 85.1054 272.293 85.2929C272.105 85.4804 272 85.7348 272 86C272 86.2652 272.105 86.5196 272.293 86.7071C272.48 86.8946 272.735 87 273 87H287C287.265 87 287.52 86.8946 287.707 86.7071C287.895 86.5196 288 86.2652 288 86C288 85.7348 287.895 85.4804 287.707 85.2929C287.52 85.1054 287.265 85 287 85H273Z" fill="white"/>
<path d="M273 89C272.735 89 272.48 89.1054 272.293 89.2929C272.105 89.4804 272 89.7348 272 90C272 90.2652 272.105 90.5196 272.293 90.7071C272.48 90.8946 272.735 91 273 91H287C287.265 91 287.52 90.8946 287.707 90.7071C287.895 90.5196 288 90.2652 288 90C288 89.7348 287.895 89.4804 287.707 89.2929C287.52 89.1054 287.265 89 287 89H273Z" fill="white"/>
<path d="M246.5 94.0766C246.3 95.1766 245.9 95.9766 245.2 96.4766C244.5 96.9766 243.6 97.0766 242.5 96.8766C242.1 96.7766 241.3 96.6766 241 96.4766L241.5 94.9766C241.8 95.0766 242.4 95.2766 242.7 95.2766C243.8 95.4766 244.4 94.9766 244.6 93.7766L247 80.1766C247.2 78.9766 247.7 78.1766 248.4 77.5766C249.1 77.0766 250.1 76.8766 251.2 77.0766C251.6 77.1766 252.4 77.2766 253 77.5766L252.5 78.9766C252.3 78.8766 251.6 78.7766 251.3 78.6766C250 78.4766 249.3 79.0766 249 80.5766L246.5 94.0766Z" fill="white"/>
<defs>
<filter id="filter0_d" x="0" y="0" width="309" height="114" filterUnits="userSpaceOnUse" color-interpolation-filters="sRGB">
<feFlood flood-opacity="0" result="BackgroundImageFix"/>
<feColorMatrix in="SourceAlpha" type="matrix" values="0 0 0 0 0 0 0 0 0 0 0 0 0 0 0 0 0 0 127 0"/>
<feOffset dx="4" dy="4"/>
<feGaussianBlur stdDeviation="2"/>
<feColorMatrix type="matrix" values="0 0 0 0 0 0 0 0 0 0 0 0 0 0 0 0 0 0 0.25 0"/>
<feBlend mode="normal" in2="BackgroundImageFix" result="effect1_dropShadow"/>
<feBlend mode="normal" in="SourceGraphic" in2="effect1_dropShadow" result="shape"/>
</filter>
</defs>
</svg>
