<svg width="309" height="114" viewBox="0 0 309 114" fill="none" xmlns="http://www.w3.org/2000/svg">
<g filter="url(#filter0_d)">
<rect width="301" height="106" rx="10" fill="#E35390"/>
</g>
<path d="M38.18 33.3V36.8H42.88V39.02H38.18V42.72H43.48V45H35.38V31.02H43.48V33.3H38.18ZM53.1645 33.76C54.4845 33.76 55.5512 34.18 56.3645 35.02C57.1779 35.8467 57.5845 37.0067 57.5845 38.5V45H54.7845V38.88C54.7845 38 54.5645 37.3267 54.1245 36.86C53.6845 36.38 53.0845 36.14 52.3245 36.14C51.5512 36.14 50.9379 36.38 50.4845 36.86C50.0445 37.3267 49.8245 38 49.8245 38.88V45H47.0245V33.92H49.8245V35.3C50.1979 34.82 50.6712 34.4467 51.2445 34.18C51.8312 33.9 52.4712 33.76 53.1645 33.76ZM65.5872 33.74C66.4139 33.74 67.1405 33.9067 67.7672 34.24C68.3939 34.56 68.8872 34.98 69.2472 35.5V33.92H72.0672V45.08C72.0672 46.1067 71.8605 47.02 71.4472 47.82C71.0339 48.6333 70.4139 49.2733 69.5872 49.74C68.7605 50.22 67.7605 50.46 66.5872 50.46C65.0139 50.46 63.7205 50.0933 62.7072 49.36C61.7072 48.6267 61.1405 47.6267 61.0072 46.36H63.7872C63.9339 46.8667 64.2472 47.2667 64.7272 47.56C65.2205 47.8667 65.8139 48.02 66.5072 48.02C67.3205 48.02 67.9805 47.7733 68.4872 47.28C68.9939 46.8 69.2472 46.0667 69.2472 45.08V43.36C68.8872 43.88 68.3872 44.3133 67.7472 44.66C67.1205 45.0067 66.4005 45.18 65.5872 45.18C64.6539 45.18 63.8005 44.94 63.0272 44.46C62.2539 43.98 61.6405 43.3067 61.1872 42.44C60.7472 41.56 60.5272 40.5533 60.5272 39.42C60.5272 38.3 60.7472 37.3067 61.1872 36.44C61.6405 35.5733 62.2472 34.9067 63.0072 34.44C63.7805 33.9733 64.6405 33.74 65.5872 33.74ZM69.2472 39.46C69.2472 38.78 69.1139 38.2 68.8472 37.72C68.5805 37.2267 68.2205 36.8533 67.7672 36.6C67.3139 36.3333 66.8272 36.2 66.3072 36.2C65.7872 36.2 65.3072 36.3267 64.8672 36.58C64.4272 36.8333 64.0672 37.2067 63.7872 37.7C63.5205 38.18 63.3872 38.7533 63.3872 39.42C63.3872 40.0867 63.5205 40.6733 63.7872 41.18C64.0672 41.6733 64.4272 42.0533 64.8672 42.32C65.3205 42.5867 65.8005 42.72 66.3072 42.72C66.8272 42.72 67.3139 42.5933 67.7672 42.34C68.2205 42.0733 68.5805 41.7 68.8472 41.22C69.1139 40.7267 69.2472 40.14 69.2472 39.46ZM78.6019 30.2V45H75.8019V30.2H78.6019ZM83.7883 32.6C83.2949 32.6 82.8816 32.4467 82.5483 32.14C82.2283 31.82 82.0683 31.4267 82.0683 30.96C82.0683 30.4933 82.2283 30.1067 82.5483 29.8C82.8816 29.48 83.2949 29.32 83.7883 29.32C84.2816 29.32 84.6883 29.48 85.0083 29.8C85.3416 30.1067 85.5083 30.4933 85.5083 30.96C85.5083 31.4267 85.3416 31.82 85.0083 32.14C84.6883 32.4467 84.2816 32.6 83.7883 32.6ZM85.1683 33.92V45H82.3683V33.92H85.1683ZM93.1747 45.18C92.268 45.18 91.4547 45.02 90.7347 44.7C90.0147 44.3667 89.4414 43.92 89.0147 43.36C88.6014 42.8 88.3747 42.18 88.3347 41.5H91.1547C91.208 41.9267 91.4147 42.28 91.7747 42.56C92.148 42.84 92.608 42.98 93.1547 42.98C93.688 42.98 94.1014 42.8733 94.3947 42.66C94.7014 42.4467 94.8547 42.1733 94.8547 41.84C94.8547 41.48 94.668 41.2133 94.2947 41.04C93.9347 40.8533 93.3547 40.6533 92.5547 40.44C91.728 40.24 91.048 40.0333 90.5147 39.82C89.9947 39.6067 89.5414 39.28 89.1547 38.84C88.7814 38.4 88.5947 37.8067 88.5947 37.06C88.5947 36.4467 88.768 35.8867 89.1147 35.38C89.4747 34.8733 89.9814 34.4733 90.6347 34.18C91.3014 33.8867 92.0814 33.74 92.9747 33.74C94.2947 33.74 95.348 34.0733 96.1347 34.74C96.9214 35.3933 97.3547 36.28 97.4347 37.4H94.7547C94.7147 36.96 94.528 36.6133 94.1947 36.36C93.8747 36.0933 93.4414 35.96 92.8947 35.96C92.388 35.96 91.9947 36.0533 91.7147 36.24C91.448 36.4267 91.3147 36.6867 91.3147 37.02C91.3147 37.3933 91.5014 37.68 91.8747 37.88C92.248 38.0667 92.828 38.26 93.6147 38.46C94.4147 38.66 95.0747 38.8667 95.5947 39.08C96.1147 39.2933 96.5614 39.6267 96.9347 40.08C97.3214 40.52 97.5214 41.1067 97.5347 41.84C97.5347 42.48 97.3547 43.0533 96.9947 43.56C96.648 44.0667 96.1414 44.4667 95.4747 44.76C94.8214 45.04 94.0547 45.18 93.1747 45.18ZM107.073 33.76C107.913 33.76 108.66 33.9467 109.313 34.32C109.966 34.68 110.473 35.22 110.833 35.94C111.206 36.6467 111.393 37.5 111.393 38.5V45H108.593V38.88C108.593 38 108.373 37.3267 107.933 36.86C107.493 36.38 106.893 36.14 106.133 36.14C105.36 36.14 104.746 36.38 104.293 36.86C103.853 37.3267 103.633 38 103.633 38.88V45H100.833V30.2H103.633V35.3C103.993 34.82 104.473 34.4467 105.073 34.18C105.673 33.9 106.34 33.76 107.073 33.76Z" fill="white"/>
<path d="M284 106H185.592C184.387 106 183.217 105.562 182.312 104.767C162.86 87.6826 153.241 75.0573 151.292 50.2821C149.381 25.9896 157.059 16.0939 168.248 1.90996C169.197 0.706311 170.631 0 172.164 0H284.004C286.766 0 289 2.23858 289 5V101C289 103.761 286.761 106 284 106Z" fill="#E977A7"/>
<path d="M296 106H197.592C196.387 106 195.217 105.562 194.312 104.767C174.86 87.6826 165.241 75.0573 163.292 50.2821C161.381 25.9896 169.059 16.0939 180.248 1.90996C181.197 0.706311 182.631 0 184.164 0H296.004C298.766 0 301 2.23858 301 5V101C301 103.761 298.761 106 296 106Z" fill="#E99ABB"/>
<path d="M279.276 95.1153L267.374 88.8253L267 89.4426L278.901 95.7325L279.276 95.1153Z" fill="white"/>
<path d="M239.075 43C233.561 43 229.075 47.4861 229.075 53.0001C229.075 54.9095 229.615 56.7619 230.638 58.3663L229.018 62.6217C228.978 62.7272 229.005 62.8462 229.087 62.9236C229.14 62.9737 229.209 63 229.279 63C229.317 63 229.356 62.9923 229.393 62.9757L233.357 61.2016C235.041 62.3788 237.014 63 239.075 63C244.589 63 249.075 58.5139 249.075 53.0001C249.075 47.4861 244.589 43 239.075 43ZM239.075 61.5247C237.273 61.5247 235.549 60.9673 234.089 59.9123C233.884 59.7642 233.641 59.6857 233.389 59.6857C233.219 59.6857 233.054 59.7208 232.9 59.79L231.424 60.4509L232.067 58.759C232.204 58.4006 232.16 57.9959 231.949 57.6762C231.035 56.2855 230.551 54.6688 230.551 53.0001C230.551 50.7271 231.438 48.5875 233.051 46.9754C234.662 45.3633 236.802 44.4756 239.075 44.4756C243.776 44.4756 247.6 48.2998 247.6 53.0001C247.599 57.7005 243.775 61.5247 239.075 61.5247Z" fill="white"/>
<path d="M238.31 51.2006H235.361V52.3838H238.068V53.3515H235.361V54.7843H238.446V55.7858H234.223V50.214H238.31V51.2006Z" fill="white"/>
<path d="M239.334 50.214H240.555L242.767 54.0991V50.214H243.851V55.7858H242.687L240.419 51.8323V55.7858H239.334V50.214Z" fill="white"/>
<path d="M281.891 78.5656L281.296 78.2511L281.979 75.3522L280.829 74.7445L278.519 76.7835L277.923 76.469L277.549 77.0862L277.941 77.2933L276.87 78.2377L277.392 78.753L278.633 77.6588L280.433 78.6103L280.066 80.1664L280.808 80.3188L281.125 78.9758L281.516 79.1829L281.891 78.5656ZM279.21 77.149L280.944 75.62L281.116 75.7112L280.604 77.8854L279.21 77.149Z" fill="white"/>
<path d="M285.266 79.9418C285.678 79.8609 286.053 79.6212 286.276 79.253C286.689 78.5722 286.431 77.705 285.702 77.3196L284.38 76.6207L281.76 80.9415L283.082 81.6403C283.811 82.0258 284.74 81.7856 285.153 81.1047C285.376 80.7365 285.404 80.3134 285.266 79.9418ZM283.456 81.0231L282.795 80.6737L283.544 79.4392L284.205 79.7886C284.57 79.9813 284.698 80.4149 284.492 80.7553C284.285 81.0957 283.821 81.2158 283.456 81.0231ZM284.579 79.1714L283.918 78.8219L284.667 77.5874L285.328 77.9369C285.692 78.1296 285.821 78.5631 285.615 78.9035C285.408 79.244 284.944 79.3641 284.579 79.1714Z" fill="white"/>
<path d="M289.626 80.2082L290 79.591C288.724 78.9165 287.098 79.337 286.376 80.5283C285.653 81.7196 286.104 83.2373 287.38 83.9117L287.754 83.2944C286.843 82.8127 286.521 81.7286 287.037 80.8777C287.553 80.0269 288.714 79.7265 289.626 80.2082Z" fill="white"/>
<path d="M275.434 78.4138L272.066 83.969L284.628 90.6084L287.997 85.0532L275.434 78.4138ZM284.341 89.6417L273.101 83.7012L275.721 79.3805L286.962 85.321L284.341 89.6417Z" fill="white"/>
<path d="M283.923 91.0509L272.022 84.761L271.648 85.3782L283.549 91.6682L283.923 91.0509Z" fill="white"/>
<path d="M283.175 92.2855L271.273 85.9956L270.899 86.6129L282.8 92.9028L283.175 92.2855Z" fill="white"/>
<path d="M281.104 92.821L270.525 87.23L270.15 87.8472L280.729 93.4383L281.104 92.821Z" fill="white"/>
<path d="M294.492 82.5526L292.033 81.1603L292.764 79.869L276.945 70.9138C276.055 70.4099 274.921 70.7241 274.417 71.6141L264.914 88.401C264.41 89.291 264.724 90.4251 265.614 90.9289L280.464 99.3359L281.433 99.8842L281.798 99.2385L280.83 98.6902C280.296 98.388 280.107 97.7074 280.409 97.1735C280.712 96.6395 281.392 96.451 281.926 96.7533L282.572 97.1188L282.895 97.3016L290.205 84.3886L292.664 85.7809L292.771 83.7098L294.492 82.5526ZM279.547 97.964L265.98 90.2833C265.446 89.981 265.257 89.3005 265.56 88.7665C265.862 88.2326 266.542 88.0441 267.076 88.3463L280.643 96.027C280.285 96.1815 279.97 96.4432 279.764 96.808C279.557 97.1728 279.495 97.5774 279.547 97.964ZM282.615 96.2904L282.292 96.1077L269.056 88.6145L269.787 87.3232L269.141 86.9577L268.41 88.249L267.442 87.7007C267.079 87.4951 266.675 87.4259 266.29 87.4759L275.063 71.9796C275.365 71.4457 276.046 71.2572 276.58 71.5594L277.548 72.1077L269.507 86.312L270.152 86.6775L278.194 72.4732L291.753 80.1492L282.615 96.2904ZM291.985 84.5438L290.571 83.7429L291.667 81.806L293.082 82.6068L292.049 83.3012L291.985 84.5438Z" fill="white"/>
<path d="M215.34 94.6369L212.482 94.6293L212.484 93.85L222.017 93.8755C222.375 93.8764 222.667 93.5859 222.668 93.2279L222.685 87.1238C222.685 86.9086 222.511 86.7337 222.296 86.7331C222.081 86.7326 221.906 86.9066 221.905 87.1217L221.889 93.0959L211.318 93.0677L211.325 90.4182C211.325 90.2031 211.151 90.0281 210.936 90.0276C210.721 90.027 210.546 90.201 210.545 90.4162L210.538 93.0656L199.967 93.0373L200.012 76.1538L201.155 76.1568C201.37 76.1574 201.545 75.9834 201.545 75.7682C201.546 75.5531 201.372 75.3782 201.157 75.3776L199.884 75.3742C199.526 75.3732 199.234 75.6637 199.233 76.0218L199.23 76.9309L198.321 76.9285C197.963 76.9275 197.671 77.218 197.67 77.5761L197.624 94.7194C197.623 95.0775 197.914 95.3696 198.272 95.3705L209.494 95.4005C209.613 95.5582 209.8 95.6611 210.012 95.6616L211.83 95.6665C212.042 95.6671 212.23 95.5652 212.349 95.4081L215.337 95.4161C215.553 95.4167 215.728 95.2427 215.728 95.0276C215.729 94.8124 215.555 94.6375 215.34 94.6369ZM198.449 77.7081L199.228 77.7102L199.187 93.1651C199.186 93.5232 199.477 93.8153 199.835 93.8162L209.367 93.8417L209.365 94.6209L198.404 94.5916L198.449 77.7081ZM210.144 94.8828L210.147 93.8438L210.926 93.8458L211.705 93.8479L211.702 94.8869L210.144 94.8828Z" fill="white"/>
<path d="M223.621 76.9961L222.712 76.9936L222.714 76.0845C222.715 75.7264 222.425 75.4344 222.066 75.4334L212.534 75.4079C211.897 75.4062 211.33 75.7117 210.973 76.1844C210.619 75.7098 210.053 75.4013 209.417 75.3996L202.975 75.3824C202.76 75.3818 202.585 75.5558 202.584 75.771C202.584 75.9861 202.758 76.1611 202.973 76.1616L209.415 76.1788C210.059 76.1806 210.582 76.7063 210.58 77.3508L210.55 88.5979C210.55 88.813 210.724 88.988 210.939 88.9885C211.154 88.9891 211.329 88.8151 211.33 88.5999L211.36 77.3529C211.361 76.7084 211.887 76.1855 212.532 76.1872L221.935 76.2123L221.91 85.2719C221.91 85.4871 222.084 85.662 222.299 85.6626C222.514 85.6631 222.689 85.4892 222.69 85.274L222.71 77.7729L223.489 77.7749L223.444 94.6585L217.158 94.6417C216.943 94.6411 216.768 94.8151 216.767 95.0303C216.767 95.2454 216.941 95.4204 217.156 95.4209L223.571 95.4381C223.93 95.439 224.222 95.1485 224.223 94.7904L224.268 77.6472C224.269 77.2891 223.979 76.997 223.621 76.9961Z" fill="white"/>
<path d="M201.293 80.8114C201.441 80.8635 201.681 80.8299 201.797 80.5874L201.972 80.1303L203.175 80.1335L203.346 80.5904C203.422 80.792 203.646 80.8943 203.848 80.8187C204.049 80.7433 204.152 80.5188 204.076 80.3172L203.01 77.4693C203.009 77.4657 203.007 77.4621 203.006 77.4586C202.936 77.2871 202.771 77.1761 202.586 77.1756C202.586 77.1756 202.586 77.1756 202.585 77.1756C202.4 77.1753 202.235 77.2858 202.164 77.4571C202.163 77.4601 202.161 77.4631 202.16 77.4661L201.069 80.3081C200.992 80.509 201.092 80.7343 201.293 80.8114ZM202.581 78.5452L202.883 79.3534L202.271 79.3518L202.581 78.5452Z" fill="white"/>
<path d="M212.588 88.0445C212.582 88.1925 212.696 88.476 212.984 88.4806C213.008 88.4806 213.574 88.4799 213.8 88.4766C214.663 88.4637 215.292 87.7154 215.295 86.697C215.298 85.6265 214.689 84.9056 213.779 84.9032L212.986 84.9011C212.883 84.9008 212.783 84.9417 212.71 85.0147C212.637 85.0878 212.596 85.1869 212.596 85.2904L212.596 85.2925L212.596 85.2926L212.588 88.0445L212.588 88.0445ZM213.777 85.6825C214.465 85.6843 214.516 86.4579 214.516 86.695C214.514 87.1886 214.289 87.69 213.788 87.6974C213.692 87.6988 213.528 87.6997 213.373 87.7004C213.373 87.3719 213.373 86.9199 213.373 86.6888C213.374 86.4952 213.374 86.0234 213.375 85.6814L213.777 85.6825Z" fill="white"/>
<path d="M202.518 84.8306L201.68 84.8283C201.465 84.8277 201.29 85.0017 201.289 85.2169L201.286 86.5456L201.286 86.5478L201.282 88.1025C201.281 88.2061 201.322 88.3056 201.396 88.3789C201.468 88.4518 201.567 88.4929 201.67 88.4931L201.672 88.4931C201.672 88.4931 202.442 88.4918 202.655 88.4923C203.298 88.4941 203.822 87.9722 203.824 87.3291C203.825 86.9718 203.664 86.6511 203.411 86.4363C203.51 86.2763 203.568 86.0886 203.569 85.887C203.57 85.306 203.099 84.8321 202.518 84.8306ZM202.516 85.6098C202.667 85.6102 202.79 85.7336 202.79 85.8849C202.789 86.0361 202.666 86.1589 202.515 86.1585C202.459 86.1582 202.231 86.1587 202.066 86.1581L202.067 85.6086L202.516 85.6098ZM202.657 87.7131C202.547 87.7128 202.287 87.713 202.062 87.7133L202.064 86.9379C202.062 86.9373 202.612 86.9387 202.659 86.9389C202.872 86.9395 203.045 87.1136 203.045 87.3271C203.044 87.5405 202.87 87.7137 202.657 87.7131Z" fill="white"/>
<path d="M214.234 77.9858C214.445 77.9864 214.648 78.049 214.822 78.167C215 78.288 215.242 78.2417 215.363 78.0637C215.484 77.8857 215.438 77.6434 215.26 77.5224C214.957 77.3167 214.603 77.2075 214.236 77.2066C213.225 77.2039 212.401 78.0237 212.399 79.0341C212.396 80.0445 213.216 80.8687 214.226 80.8714C214.674 80.863 215.119 80.7046 215.435 80.3283C215.574 80.1638 215.553 79.918 215.388 79.7792C215.224 79.6404 214.978 79.6612 214.839 79.8256C214.718 79.9674 214.52 80.0862 214.228 80.0922C213.647 80.0906 213.176 79.6169 213.178 79.0362C213.179 78.4555 213.653 77.9842 214.234 77.9858Z" fill="white"/>
<path d="M205.536 79.4055L209.172 79.4152C209.387 79.4158 209.562 79.2418 209.563 79.0267C209.563 78.8115 209.389 78.6366 209.174 78.636L205.538 78.6263C205.323 78.6257 205.148 78.7997 205.147 79.0149C205.147 79.23 205.321 79.405 205.536 79.4055Z" fill="white"/>
<path d="M205.532 80.964L207.09 80.9682C207.305 80.9687 207.48 80.7948 207.481 80.5796C207.481 80.3644 207.307 80.1895 207.092 80.1889L205.534 80.1848C205.318 80.1842 205.144 80.3582 205.143 80.5733C205.142 80.7885 205.316 80.9634 205.532 80.964Z" fill="white"/>
<path d="M205.527 82.5225L208.125 82.5294C208.34 82.53 208.515 82.356 208.516 82.1408C208.516 81.9257 208.342 81.7507 208.127 81.7502L205.53 81.7432C205.314 81.7427 205.139 81.9166 205.139 82.1318C205.138 82.347 205.312 82.5219 205.527 82.5225Z" fill="white"/>
<path d="M205.523 84.0809L209.16 84.0907C209.375 84.0912 209.55 83.9173 209.55 83.7021C209.551 83.4869 209.377 83.312 209.162 83.3114L205.525 83.3017C205.31 83.3011 205.135 83.4751 205.135 83.6903C205.134 83.9055 205.308 84.0804 205.523 84.0809Z" fill="white"/>
<path d="M205.516 86.9221L209.152 86.9318C209.367 86.9324 209.542 86.7584 209.543 86.5433C209.543 86.3281 209.369 86.1532 209.154 86.1526L205.518 86.1429C205.303 86.1423 205.128 86.3163 205.127 86.5315C205.127 86.7466 205.3 86.9216 205.516 86.9221Z" fill="white"/>
<path d="M205.512 88.4806L208.109 88.4875C208.324 88.4881 208.499 88.3141 208.5 88.099C208.5 87.8838 208.326 87.7089 208.111 87.7083L205.514 87.7014C205.298 87.7008 205.124 87.8748 205.123 88.0899C205.122 88.3051 205.296 88.48 205.512 88.4806Z" fill="white"/>
<path d="M205.507 90.0391L209.144 90.0488C209.359 90.0494 209.534 89.8754 209.534 89.6602C209.535 89.445 209.361 89.2701 209.146 89.2695L205.509 89.2598C205.294 89.2593 205.119 89.4332 205.119 89.6484C205.118 89.8636 205.292 90.0385 205.507 90.0391Z" fill="white"/>
<path d="M205.503 91.5975L207.062 91.6017C207.277 91.6023 207.452 91.4283 207.452 91.2131C207.453 90.998 207.279 90.823 207.064 90.8225L205.505 90.8183C205.29 90.8177 205.115 90.9917 205.115 91.2069C205.114 91.4221 205.288 91.597 205.503 91.5975Z" fill="white"/>
<path d="M216.965 79.436L218.523 79.4402C218.738 79.4408 218.913 79.2668 218.914 79.0516C218.914 78.8365 218.74 78.6615 218.525 78.661L216.967 78.6568C216.752 78.6562 216.577 78.8302 216.576 79.0454C216.576 79.2606 216.749 79.4355 216.965 79.436Z" fill="white"/>
<path d="M216.961 80.9945L220.597 81.0042C220.812 81.0048 220.987 80.8308 220.988 80.6157C220.988 80.4005 220.814 80.2256 220.599 80.225L216.963 80.2153C216.747 80.2147 216.573 80.3887 216.572 80.6039C216.571 80.819 216.745 80.9939 216.961 80.9945Z" fill="white"/>
<path d="M216.956 82.553L220.073 82.5613C220.289 82.5619 220.463 82.3879 220.464 82.1727C220.465 81.9576 220.291 81.7827 220.075 81.7821L216.958 81.7737C216.743 81.7732 216.568 81.9472 216.568 82.1623C216.567 82.3775 216.741 82.5524 216.956 82.553Z" fill="white"/>
<path d="M216.952 84.1115L219.03 84.117C219.245 84.1176 219.42 83.9436 219.421 83.7284C219.421 83.5133 219.248 83.3383 219.032 83.3378L216.954 83.3322C216.739 83.3316 216.564 83.5056 216.564 83.7208C216.563 83.936 216.737 84.1109 216.952 84.1115Z" fill="white"/>
<path d="M216.945 86.9526L219.542 86.9596C219.757 86.9602 219.932 86.7862 219.933 86.571C219.933 86.3558 219.759 86.1809 219.544 86.1803L216.947 86.1734C216.731 86.1728 216.557 86.3468 216.556 86.562C216.555 86.7772 216.729 86.9521 216.945 86.9526Z" fill="white"/>
<path d="M216.94 88.5111L220.577 88.5208C220.792 88.5214 220.967 88.3474 220.968 88.1323C220.968 87.9171 220.794 87.7422 220.579 87.7416L216.942 87.7319C216.727 87.7313 216.552 87.9053 216.552 88.1205C216.551 88.3356 216.725 88.5105 216.94 88.5111Z" fill="white"/>
<path d="M216.936 90.0696L218.495 90.0738C218.71 90.0743 218.885 89.9003 218.885 89.6852C218.886 89.47 218.712 89.2951 218.497 89.2945L216.938 89.2903C216.723 89.2898 216.548 89.4638 216.548 89.6789C216.547 89.8941 216.721 90.069 216.936 90.0696Z" fill="white"/>
<path d="M216.932 91.6281L220.049 91.6364C220.264 91.637 220.439 91.463 220.44 91.2478C220.44 91.0326 220.266 90.8577 220.051 90.8571L216.934 90.8488C216.719 90.8482 216.544 91.0222 216.543 91.2374C216.543 91.4526 216.717 91.6275 216.932 91.6281Z" fill="white"/>
<path d="M266.312 21.6845L266.336 21.6801C266.769 21.4771 267.211 21.3219 267.648 21.1429C267.72 21.1297 267.755 21.0491 267.718 20.9817C267.705 20.9098 267.624 20.8751 267.557 20.9122C267.091 21.0717 266.654 21.2508 266.221 21.4539C266.153 21.491 266.138 21.5432 266.151 21.6151C266.212 21.6781 266.264 21.6933 266.312 21.6845Z" fill="white"/>
<path d="M256.073 21.8525C256.559 21.6646 257.068 21.4724 257.586 21.328C258.315 21.1202 259.072 20.932 259.819 20.82C260.566 20.708 261.34 20.6156 262.105 20.5994C262.692 20.5659 263.265 20.5848 263.866 20.6232L263.89 20.6188C263.938 20.61 263.977 20.5534 263.992 20.5011C264.003 20.4249 263.942 20.3618 263.87 20.375C263.293 20.3322 262.701 20.3417 262.109 20.3512C261.344 20.3674 260.57 20.4598 259.799 20.5762C259.028 20.6926 258.271 20.8808 257.542 21.0886C257.024 21.2329 256.515 21.4252 256.006 21.6174C255.938 21.6545 255.899 21.7112 255.936 21.7786C255.949 21.8504 256.006 21.8896 256.073 21.8525Z" fill="white"/>
<path d="M256.324 23.2171C256.809 23.0292 257.318 22.837 257.836 22.6926C258.565 22.4849 259.322 22.2966 260.069 22.1846C260.816 22.0726 261.591 21.9802 262.355 21.964C262.943 21.9306 263.515 21.9494 264.116 21.9878L264.14 21.9834C264.188 21.9747 264.227 21.918 264.242 21.8657C264.253 21.7895 264.192 21.7265 264.12 21.7396C263.543 21.6968 262.951 21.7063 262.359 21.7158C261.595 21.732 260.82 21.8244 260.049 21.9408C259.279 22.0572 258.521 22.2454 257.792 22.4532C257.274 22.5976 256.765 22.7898 256.256 22.982C256.188 23.0191 256.149 23.0758 256.186 23.1432C256.199 23.2151 256.256 23.2542 256.324 23.2171Z" fill="white"/>
<path d="M256.573 24.582C257.059 24.3941 257.568 24.2019 258.086 24.0575C258.815 23.8497 259.572 23.6615 260.319 23.5495C261.066 23.4375 261.84 23.3451 262.605 23.3288C263.192 23.2954 263.765 23.3143 264.366 23.3527L264.39 23.3483C264.438 23.3395 264.477 23.2829 264.492 23.2306C264.503 23.1544 264.442 23.0913 264.37 23.1045C263.793 23.0617 263.201 23.0712 262.609 23.0806C261.844 23.0969 261.07 23.1893 260.299 23.3057C259.528 23.4221 258.771 23.6103 258.042 23.8181C257.524 23.9624 257.015 24.1547 256.506 24.3469C256.438 24.384 256.399 24.4407 256.436 24.5081C256.449 24.5799 256.506 24.6191 256.573 24.582Z" fill="white"/>
<path d="M256.823 25.9467C257.309 25.7588 257.818 25.5666 258.336 25.4222C259.065 25.2145 259.822 25.0263 260.569 24.9143C261.315 24.8023 262.09 24.7098 262.854 24.6936C263.442 24.6602 264.015 24.679 264.616 24.7174L264.64 24.7131C264.688 24.7043 264.727 24.6476 264.742 24.5954C264.753 24.5191 264.692 24.4561 264.62 24.4692C264.043 24.4264 263.451 24.4359 262.859 24.4454C262.094 24.4616 261.319 24.5541 260.549 24.6704C259.778 24.7868 259.021 24.975 258.292 25.1828C257.774 25.3272 257.265 25.5194 256.755 25.7117C256.688 25.7488 256.649 25.8054 256.686 25.8729C256.699 25.9447 256.751 25.9599 256.823 25.9467Z" fill="white"/>
<path d="M257.073 27.3113C257.559 27.1235 258.068 26.9312 258.586 26.7869C259.315 26.5791 260.072 26.3909 260.819 26.2789C261.565 26.1669 262.34 26.0744 263.104 26.0582C263.692 26.0248 264.265 26.0437 264.866 26.0821L264.89 26.0777C264.938 26.0689 264.977 26.0123 264.992 25.96C265.003 25.8838 264.942 25.8207 264.87 25.8339C264.293 25.7911 263.701 25.8005 263.109 25.81C262.344 25.8262 261.569 25.9187 260.799 26.0351C260.028 26.1515 259.271 26.3397 258.542 26.5474C258.024 26.6918 257.515 26.884 257.005 27.0763C256.938 27.1134 256.899 27.17 256.936 27.2375C256.945 27.2854 257.001 27.3245 257.073 27.3113Z" fill="white"/>
<path d="M257.323 28.6761C257.809 28.4882 258.318 28.296 258.836 28.1516C259.565 27.9438 260.322 27.7556 261.069 27.6436C261.815 27.5316 262.59 27.4392 263.354 27.423C263.942 27.3895 264.515 27.4084 265.116 27.4468L265.14 27.4424C265.188 27.4337 265.227 27.377 265.242 27.3247C265.253 27.2485 265.192 27.1855 265.12 27.1986C264.543 27.1558 263.951 27.1653 263.359 27.1748C262.594 27.191 261.819 27.2834 261.049 27.3998C260.278 27.5162 259.521 27.7044 258.792 27.9122C258.274 28.0565 257.765 28.2488 257.255 28.441C257.188 28.4781 257.149 28.5348 257.186 28.6022C257.195 28.6501 257.251 28.6892 257.323 28.6761Z" fill="white"/>
<path d="M257.573 30.0408C258.058 29.853 258.568 29.6607 259.086 29.5164C259.815 29.3086 260.572 29.1204 261.319 29.0084C262.065 28.8964 262.84 28.8039 263.604 28.7877C264.192 28.7543 264.765 28.7731 265.366 28.8116L265.39 28.8072C265.438 28.7984 265.477 28.7417 265.492 28.6895C265.503 28.6133 265.442 28.5502 265.37 28.5634C264.793 28.5206 264.201 28.53 263.608 28.5395C262.844 28.5557 262.069 28.6482 261.299 28.7646C260.528 28.8809 259.771 29.0692 259.042 29.2769C258.524 29.4213 258.015 29.6135 257.505 29.8058C257.438 29.8429 257.399 29.8995 257.436 29.967C257.445 30.0149 257.501 30.054 257.573 30.0408Z" fill="white"/>
<path d="M257.819 31.3816C258.304 31.1938 258.813 31.0015 259.331 30.8572C260.06 30.6494 260.818 30.4612 261.564 30.3492C262.311 30.2372 263.086 30.1448 263.85 30.1285C264.438 30.0951 265.01 30.114 265.611 30.1524L265.635 30.148C265.683 30.1392 265.722 30.0826 265.737 30.0303C265.748 29.9541 265.687 29.891 265.615 29.9042C265.038 29.8614 264.446 29.8709 263.854 29.8803C263.09 29.8966 262.315 29.989 261.544 30.1054C260.774 30.2218 260.016 30.41 259.287 30.6177C258.769 30.7621 258.26 30.9544 257.751 31.1466C257.684 31.1837 257.644 31.2404 257.681 31.3078C257.695 31.3796 257.751 31.4187 257.819 31.3816Z" fill="white"/>
<path d="M258.069 32.7464C258.554 32.5585 259.063 32.3663 259.581 32.2219C260.31 32.0142 261.068 31.8259 261.814 31.7139C262.561 31.6019 263.336 31.5095 264.1 31.4933C264.688 31.4599 265.26 31.4787 265.861 31.5171L265.885 31.5127C265.933 31.504 265.972 31.4473 265.987 31.395C265.998 31.3188 265.937 31.2558 265.865 31.2689C265.288 31.2261 264.696 31.2356 264.104 31.2451C263.34 31.2613 262.565 31.3537 261.794 31.4701C261.024 31.5865 260.266 31.7747 259.537 31.9825C259.019 32.1269 258.51 32.3191 258.001 32.5113C257.934 32.5484 257.894 32.6051 257.931 32.6725C257.945 32.7444 258.001 32.7835 258.069 32.7464Z" fill="white"/>
<path d="M258.319 34.111C258.804 33.9232 259.313 33.7309 259.831 33.5865C260.56 33.3788 261.318 33.1906 262.064 33.0786C262.811 32.9666 263.586 32.8741 264.35 32.8579C264.938 32.8245 265.51 32.8433 266.111 32.8817L266.135 32.8774C266.183 32.8686 266.222 32.8119 266.237 32.7597C266.248 32.6834 266.187 32.6204 266.115 32.6335C265.538 32.5907 264.946 32.6002 264.354 32.6097C263.59 32.6259 262.815 32.7184 262.044 32.8348C261.274 32.9511 260.516 33.1393 259.787 33.3471C259.269 33.4915 258.76 33.6837 258.251 33.876C258.183 33.9131 258.144 33.9697 258.181 34.0372C258.195 34.109 258.251 34.1481 258.319 34.111Z" fill="white"/>
<path d="M276.701 18.1485L275.839 18.3064L275.796 18.0669C275.787 18.0191 275.73 17.9799 275.678 17.9648L275.353 17.9499C275.177 17.9328 274.977 17.92 274.805 17.9267C274.665 17.4327 274.613 17.4175 274.536 17.4067C273.711 17.3599 272.899 17.3849 272.091 17.4338C271.776 17.4669 271.484 17.4956 271.168 17.5286L275.432 11.3531C275.428 11.3292 275.447 11.3009 275.443 11.2769L275.405 10.3931C275.405 10.3931 275.405 10.3931 275.4 10.3691C275.396 10.3452 275.392 10.3212 275.368 10.3256C275.368 10.3256 275.368 10.3256 275.363 10.3017L274.938 10.0083C274.938 10.0083 274.938 10.0083 274.914 10.0127C274.886 9.99313 274.858 9.97357 274.834 9.97796C274.834 9.97796 274.834 9.97796 274.81 9.98234L273.97 10.2599C273.946 10.2643 273.926 10.2926 273.902 10.297L268.631 17.9935C268.204 18.0963 267.758 18.2276 267.34 18.3783C266.572 18.6427 265.812 18.9551 265.062 19.3152C265.014 19.324 264.999 19.3763 264.984 19.4286L264.93 20.0818L264.62 19.4704C264.611 19.4225 264.559 19.4073 264.507 19.3922C263.701 19.317 262.88 19.2941 262.044 19.3235C261.232 19.3485 260.409 19.4497 259.615 19.5705C258.82 19.6913 258.015 19.8882 257.238 20.1048C256.466 20.3453 255.673 20.6141 254.942 20.9459C254.875 20.983 254.827 20.9918 254.876 21.5273C254.717 21.6059 254.53 21.6649 254.371 21.7435L254.125 21.8875C254.081 21.9202 254.042 21.9769 254.051 22.0248L254.095 22.2642L253.233 22.4221C253.089 22.4484 253.016 22.5856 253.037 22.7053L255.831 37.9569C255.844 38.0287 255.881 38.0962 255.962 38.1309C256.014 38.1461 256.066 38.1613 256.114 38.1525C256.138 38.1481 256.162 38.1437 256.162 38.1437L256.662 37.9036C259.952 36.4102 263.592 35.7436 267.197 35.9741L267.75 36.0213C267.798 36.0125 267.822 36.0081 267.87 35.9993L268.37 35.7592C271.66 34.2658 275.3 33.5993 278.905 33.8297L279.458 33.8769C279.535 33.8877 279.602 33.8506 279.665 33.7896C279.704 33.7329 279.739 33.6523 279.726 33.5805L276.937 18.3528C276.958 18.2004 276.821 18.1266 276.701 18.1485ZM256.917 36.3227L257.124 36.2353C257.899 35.8707 258.702 35.5257 259.546 35.2721C261.182 34.7496 262.906 34.4339 264.622 34.3424C265.458 34.313 266.326 34.3271 267.156 34.3979L267.352 34.6589L267.328 34.6633C266.447 34.5773 265.578 34.5632 264.694 34.6014C263.834 34.6351 262.963 34.7451 262.101 34.903C261.239 35.0609 260.386 35.2666 259.57 35.5398C258.73 35.8174 257.923 36.1385 257.129 36.5314L256.994 36.6056L256.941 36.3183L256.917 36.3227ZM267.918 34.2336C268.692 33.869 269.476 33.5524 270.268 33.2835C271.904 32.7611 273.628 32.4454 275.344 32.3539C276.204 32.3201 277.072 32.3342 277.95 32.3962L278.174 32.4046L278.218 32.6441L278.07 32.6464C277.188 32.5605 276.319 32.5464 275.436 32.5845C273.696 32.6804 271.948 33.0005 270.288 33.5274C269.448 33.8049 268.641 34.126 267.846 34.5189L267.822 34.5233L267.918 34.2336ZM275.345 18.1742L275.569 18.1826L278.13 32.1652L277.982 32.1676C277.1 32.0816 276.232 32.0675 275.348 32.1057C273.608 32.2015 271.861 32.5217 270.2 33.0485C269.428 33.289 268.692 33.5969 267.961 33.9288L268.017 33.6957C268.724 33.3683 269.268 33.0954 270.013 32.8354C270.781 32.571 271.562 32.3784 272.348 32.2097C273.134 32.041 273.932 31.9442 274.736 31.8713C275.539 31.7985 276.355 31.7974 277.157 31.8486C277.205 31.8398 277.229 31.8355 277.272 31.8027C277.335 31.7417 277.374 31.685 277.019 29.4735C276.81 28.2002 276.494 26.4763 276.152 24.6088C275.806 22.7173 275.466 20.9978 275.206 19.7093C275.05 18.9954 274.958 18.4926 274.868 18.1378C275.045 18.155 275.193 18.1526 275.345 18.1742ZM275.19 11.2489L270.071 18.6948L270.059 18.2268L270.587 17.4619L275.179 10.7809L275.19 11.2489ZM268.372 19.8226L268.513 19.9204L268.315 20.0556L268.372 19.8226ZM268.735 19.7808L268.452 19.5852L268.759 18.2916L269.321 18.1145C269.369 18.1057 269.441 18.0926 269.488 18.0838L269.8 18.2989L269.836 19.0348L268.735 19.7808ZM274.862 10.2697L275.089 10.4261L272.497 14.2416L269.9 18.0332L269.673 17.8767L272.27 14.0852L274.862 10.2697ZM274.085 10.4862L274.527 10.3311L269.94 17.036L269.412 17.8009L269.249 17.8555C269.153 17.8731 269.081 17.8862 268.99 17.9277L274.085 10.4862ZM265.245 19.5044C265.952 19.1769 266.688 18.869 267.432 18.609C267.782 18.4953 268.156 18.3773 268.511 18.2875L268.297 19.1434C268.062 19.2112 267.851 19.2746 267.64 19.338C267.078 19.5151 266.525 19.7401 266.001 19.9846C265.934 20.0217 265.918 20.074 265.932 20.1458C265.964 20.1893 266.021 20.2284 266.069 20.2196L266.093 20.2153C266.617 19.9707 267.174 19.7697 267.731 19.5687C267.894 19.5141 268.082 19.455 268.249 19.4243L268.02 20.3325C268.004 20.3848 268.037 20.4283 268.07 20.4718C268.098 20.4913 268.127 20.5109 268.174 20.5021C268.198 20.4977 268.198 20.4977 268.222 20.4933L270.067 19.2152C270.067 19.2152 270.062 19.1912 270.086 19.1868L270.11 19.1825L270.267 18.9558C270.267 18.9558 270.267 18.9558 270.291 18.9514C270.937 18.833 271.588 18.7386 272.224 18.6964C272.759 18.6478 273.304 18.6471 273.824 18.6508L273.848 18.6464C273.896 18.6376 273.959 18.5766 273.95 18.5287C273.961 18.4525 273.904 18.4134 273.828 18.4026C273.284 18.4033 272.739 18.404 272.204 18.4526C271.616 18.486 271.037 18.5673 270.462 18.6725L271.049 17.8227C271.437 17.7765 271.796 17.7107 272.188 17.6884C272.967 17.6199 273.759 17.6233 274.532 17.6549C274.578 17.7702 274.709 18.2164 275.023 19.7922C275.251 21.0373 275.571 22.7851 275.913 24.6526C276.255 26.5202 276.547 28.2484 276.76 29.5457C276.99 30.9388 277.034 31.4504 277.041 31.6223C276.268 31.5907 275.48 31.6113 274.696 31.6558C273.889 31.7048 273.07 31.8299 272.284 31.9986C271.499 32.1673 270.693 32.3642 269.925 32.6287C269.133 32.8975 268.565 33.1747 267.839 33.5305C267.815 33.5349 267.771 33.5676 267.78 33.6155L267.617 34.2144L265.113 20.5431L265.245 19.5044ZM255.429 23.3314C255.163 21.7468 255.128 21.2832 255.13 21.1591C255.841 20.8555 256.581 20.5715 257.334 20.3594C258.107 20.1189 258.893 19.9502 259.687 19.8295C260.482 19.7087 261.28 19.6119 262.093 19.5869C262.881 19.5663 263.673 19.5696 264.455 19.6491L264.922 20.5782L267.426 34.2495L267.062 33.7471C267.033 33.7275 267.005 33.7079 266.977 33.6884C266.171 33.6132 265.542 33.5553 264.706 33.5846C263.894 33.6096 263.071 33.7108 262.276 33.8316C262.157 33.8535 262.037 33.8755 261.941 33.893C261.247 34.0202 260.585 34.1909 259.904 34.3899C259.151 34.602 258.435 34.8816 257.7 35.1895C257.645 35.0263 257.533 34.5518 257.227 33.148C256.942 31.8639 256.622 30.116 256.28 28.2485C255.938 26.381 255.622 24.6571 255.429 23.3314ZM254.308 22.0767L254.515 21.9893C254.65 21.9151 254.789 21.8649 254.952 21.8102C254.99 22.1498 255.082 22.6526 255.194 23.3992C255.378 24.677 255.698 26.4248 256.04 28.2923C256.382 30.1599 256.703 31.9077 256.959 33.1723C257.41 35.3663 257.463 35.3814 257.548 35.4401C257.576 35.4597 257.624 35.4509 257.672 35.4421C258.403 35.1102 259.171 34.8458 259.943 34.6053C260.716 34.3649 261.502 34.1962 262.296 34.0754C263.091 33.9547 263.89 33.8578 264.702 33.8328C265.49 33.8122 266.115 33.8463 266.872 33.9302L267.008 34.1281C266.206 34.0769 265.386 34.054 264.602 34.0986C263.742 34.1323 262.871 34.2423 262.009 34.4002C261.147 34.5581 260.294 34.7638 259.478 35.037C258.634 35.2907 257.802 35.6161 257.008 36.009L256.873 36.0832L254.308 22.0767ZM279.238 33.3481L278.99 33.3441C275.308 33.1029 271.573 33.7869 268.215 35.3175L267.758 35.5249L267.258 35.4929C265.407 35.3864 263.567 35.4759 261.748 35.8091C259.928 36.1424 258.172 36.6868 256.483 37.4662L256.253 37.5579L253.565 22.881L254.187 22.767L256.66 36.2707L256.752 36.7735C256.761 36.8214 256.79 36.841 256.818 36.8605C256.846 36.8801 256.894 36.8713 256.918 36.8669L257.212 36.7142C257.986 36.3496 258.789 36.0046 259.634 35.7509C261.27 35.2285 262.994 34.9127 264.71 34.8212C265.569 34.7875 266.438 34.8016 267.316 34.8636L267.64 34.8784C267.64 34.8784 267.64 34.8784 267.664 34.874C267.664 34.874 267.664 34.874 267.688 34.8696C267.712 34.8653 267.688 34.8696 267.712 34.8653C267.712 34.8653 267.712 34.8653 267.736 34.8609L268.034 34.732C268.808 34.3675 269.611 34.0224 270.456 33.7688C272.092 33.2463 273.816 32.9306 275.532 32.8391C276.392 32.8054 277.26 32.8195 278.138 32.8815L278.462 32.8963L278.486 32.8919C278.51 32.8875 278.534 32.8831 278.554 32.8548C278.573 32.8265 278.593 32.7982 278.584 32.7503L278.492 32.2475L276.023 18.7677L276.55 18.6712L279.238 33.3481Z" fill="white"/>
<path d="M206.682 19H194.5C194.354 19 194.236 19.118 194.236 19.2637C194.236 19.4093 194.354 19.5273 194.5 19.5273H198.744L198.747 22.2245C198.742 22.5271 199.017 22.8548 199.38 22.8408C199.571 22.8408 199.756 22.7849 199.915 22.6791C200.102 22.5549 200.32 22.4893 200.546 22.4893C201.157 22.4752 201.744 23.0487 201.686 23.7121C201.647 24.2774 201.174 24.7434 200.607 24.7728C200.36 24.7856 200.122 24.721 199.918 24.5861C199.793 24.5034 199.569 24.4176 199.357 24.4228C199.018 24.4228 198.742 24.6983 198.742 25.037L198.741 25.6089C198.74 25.7545 198.858 25.8728 199.004 25.873H199.004C199.15 25.873 199.268 25.7553 199.268 25.6099L199.269 25.0379C199.269 24.9896 199.309 24.9502 199.357 24.9502C199.429 24.9495 199.503 24.9589 199.627 25.0262C199.926 25.2236 200.274 25.3179 200.634 25.2994C201.477 25.2556 202.155 24.5885 202.212 23.7477C202.299 22.8352 201.498 21.9437 200.546 21.9619C200.216 21.9619 199.897 22.058 199.623 22.2398C199.578 22.2697 199.482 22.3112 199.362 22.3134C199.331 22.3134 199.31 22.2973 199.3 22.2877C199.291 22.278 199.274 22.2571 199.274 22.224L199.274 19.5273H206.682C207.118 19.5273 207.473 19.8822 207.473 20.3184V27.7363H204.767C204.767 27.7363 204.767 27.7363 204.766 27.7363C204.605 27.7363 204.452 27.8001 204.336 27.9161C204.219 28.0336 204.151 28.1957 204.151 28.3609C204.15 28.506 204.197 28.7237 204.315 28.9047C204.449 29.1082 204.514 29.346 204.501 29.5925C204.472 30.168 204.017 30.6321 203.443 30.6722C202.832 30.7296 202.205 30.198 202.217 29.5324C202.217 29.3067 202.283 29.0888 202.407 28.9021C202.487 28.7822 202.571 28.5664 202.569 28.3565C202.569 28.0151 202.294 27.7369 201.954 27.7363H199.264L199.266 26.8403C199.266 26.6946 199.148 26.5764 199.003 26.5761C199.002 26.5761 199.002 26.5761 199.002 26.5761C198.857 26.5761 198.739 26.6939 198.738 26.8393L198.737 27.7363H196.043C195.994 27.7362 195.95 27.6919 195.95 27.6434V27.6357C195.95 27.5493 195.976 27.4653 196.024 27.3926C196.206 27.1188 196.302 26.7999 196.302 26.4706C196.321 25.5594 195.47 24.7172 194.519 24.8044C193.678 24.8599 193.01 25.5367 192.964 26.3788C192.945 26.7404 193.04 27.0899 193.238 27.3895C193.287 27.4644 193.313 27.5495 193.313 27.6388C193.313 27.6656 193.302 27.6924 193.282 27.7124C193.27 27.7241 193.251 27.738 193.226 27.738C193.226 27.738 193.226 27.738 193.226 27.738L190.527 27.7363V20.3184C190.527 19.8822 190.882 19.5273 191.318 19.5273H193.27C193.415 19.5273 193.533 19.4093 193.533 19.2637C193.533 19.118 193.415 19 193.27 19H191.318C190.591 19 190 19.5914 190 20.3184V35.6816C190 36.4086 190.591 37 191.318 37H206.682C207.409 37 208 36.4086 208 35.6816V34.5742C208 34.4286 207.882 34.3105 207.736 34.3105C207.591 34.3105 207.473 34.4286 207.473 34.5742V35.6816C207.473 36.1178 207.118 36.4727 206.682 36.4727H199.264C199.262 36.3601 199.268 33.8356 199.262 33.7177C199.237 33.4 198.963 33.1511 198.639 33.1511H198.633C198.443 33.1511 198.258 33.2076 198.095 33.3147C197.892 33.4491 197.654 33.5135 197.407 33.5013C196.832 33.4719 196.368 33.0169 196.328 32.4427C196.316 32.2718 196.341 32.1056 196.401 31.9486C196.454 31.8128 196.386 31.6602 196.25 31.6077C196.114 31.5551 195.962 31.6228 195.909 31.7587C195.821 31.9883 195.784 32.2308 195.802 32.4793C195.86 33.3193 196.539 33.9851 197.381 34.0279C197.74 34.046 198.088 33.9516 198.386 33.7548C198.434 33.7246 198.511 33.6884 198.633 33.6784C198.681 33.6784 198.733 33.7171 198.737 33.7581C198.738 33.7681 198.736 36.4655 198.737 36.4727H191.318C190.882 36.4727 190.527 36.1178 190.527 35.6816V28.2637L193.224 28.2655H193.225C193.386 28.2655 193.538 28.2017 193.655 28.0857C193.773 27.9676 193.841 27.8048 193.841 27.6358C193.841 27.4459 193.784 27.2602 193.678 27.0987C193.542 26.8941 193.478 26.655 193.491 26.4072C193.522 25.8315 193.979 25.3687 194.554 25.3307C195.163 25.276 195.787 25.8067 195.774 26.4707C195.774 26.696 195.709 26.914 195.585 27.1011C195.479 27.2603 195.423 27.4453 195.423 27.6358V27.6436C195.423 27.9849 195.701 28.2631 196.042 28.2637H198.736L198.736 30.9624C198.736 30.9892 198.719 31.0281 198.633 31.0418C198.547 31.0462 198.462 31.0163 198.39 30.9682C198.117 30.7863 197.798 30.6902 197.468 30.6902C197.322 30.6902 197.178 30.7089 197.039 30.7458C196.898 30.7831 196.814 30.9275 196.852 31.0683C196.889 31.209 197.033 31.2927 197.174 31.2556C197.269 31.2303 197.368 31.2175 197.468 31.2175C197.694 31.2175 197.911 31.2831 198.098 31.4072C198.218 31.4873 198.434 31.5711 198.644 31.5691C198.961 31.5691 199.226 31.3306 199.26 31.0181C199.273 30.9378 199.259 28.3447 199.264 28.2637H201.954C202.001 28.2638 202.042 28.3072 202.042 28.3567C202.042 28.4204 202.03 28.4957 201.968 28.6104C201.786 28.8838 201.69 29.2027 201.69 29.5325C201.672 30.4568 202.528 31.2838 203.479 31.1983C204.319 31.1398 204.985 30.461 205.028 29.6194C205.046 29.2597 204.952 28.912 204.755 28.614C204.725 28.5671 204.686 28.4816 204.678 28.361C204.678 28.3348 204.69 28.3087 204.709 28.2894C204.721 28.2777 204.74 28.2638 204.767 28.2638H204.767H207.473V33.3438C207.473 33.4894 207.591 33.6074 207.736 33.6074C207.882 33.6074 208 33.4894 208 33.3438V20.3184C208 19.5914 207.409 19 206.682 19Z" fill="white"/>
<path d="M192.136 33.7287C192.136 33.7481 192.139 33.767 192.143 33.7852C192.145 33.8515 192.173 33.9146 192.22 33.9616C192.269 34.0106 192.336 34.0381 192.406 34.0381H192.407C192.431 34.038 192.998 34.0358 193.224 34.0319C194.019 34.0179 194.596 33.3183 194.596 32.3682C194.596 31.3693 194.034 30.6982 193.197 30.6982H192.4C192.33 30.6982 192.263 30.7261 192.213 30.7757C192.164 30.8252 192.136 30.8924 192.136 30.9624V30.9648V30.9649V33.7287ZM193.197 31.2256C193.84 31.2256 194.069 31.8158 194.069 32.3682C194.069 32.9083 193.802 33.4943 193.215 33.5046C193.091 33.5068 192.854 33.5084 192.669 33.5095C192.667 33.1798 192.666 32.6274 192.666 32.3651C192.666 32.1451 192.665 31.5674 192.664 31.2256H193.197Z" fill="white"/>
<path d="M193.057 20.5606C192.914 20.5889 192.821 20.7276 192.85 20.8705C192.869 20.955 193.383 23.5945 193.408 23.6778C193.454 23.8083 193.578 23.8955 193.716 23.8955H193.718C193.857 23.8945 193.981 23.8054 194.026 23.6736C194.027 23.6713 194.027 23.669 194.028 23.6667L194.632 21.7155L195.233 23.6672C195.234 23.6708 195.236 23.6743 195.237 23.6778C195.283 23.8083 195.407 23.8955 195.545 23.8955H195.547C195.686 23.8945 195.81 23.8054 195.855 23.6736C195.872 23.6212 196.403 20.9209 196.414 20.8759C196.442 20.7331 196.35 20.5943 196.207 20.5659C196.064 20.5373 195.925 20.6302 195.897 20.773L195.503 22.7515L194.884 20.7417C194.841 20.6025 194.693 20.5244 194.554 20.5673C194.458 20.5969 194.391 20.6765 194.373 20.7687L193.759 22.7516L193.367 20.7681C193.339 20.6253 193.2 20.5323 193.057 20.5606Z" fill="white"/>
<path d="M204.392 33.0991C204.392 32.5507 203.927 32.1045 203.356 32.1045H202.609C202.609 32.1045 202.608 32.1045 202.608 32.1045C202.608 32.1045 202.608 32.1045 202.608 32.1045C202.462 32.1045 202.344 32.2225 202.344 32.3682V35.1807C202.344 35.3263 202.462 35.4443 202.608 35.4443C202.753 35.4443 202.871 35.3263 202.871 35.1807V34.1516L203.93 35.3549C203.983 35.4141 204.055 35.4443 204.128 35.4443C204.19 35.4443 204.252 35.4227 204.303 35.3786C204.412 35.2824 204.422 35.1158 204.326 35.0065L203.513 34.0823C204.01 34.0095 204.392 33.5963 204.392 33.0991ZM203.356 33.5664C203.245 33.5664 203.042 33.5673 202.876 33.5682C202.875 33.4048 202.874 33.2064 202.874 33.0991C202.874 33.0087 202.874 32.8024 202.873 32.6318H203.356C203.632 32.6318 203.865 32.8458 203.865 33.0991C203.865 33.3524 203.632 33.5664 203.356 33.5664Z" fill="white"/>
<path d="M204.774 25.3018C205.695 25.3018 206.444 24.5526 206.444 23.6318C206.444 22.7111 205.695 21.9619 204.774 21.9619C203.854 21.9619 203.104 22.7111 203.104 23.6318C203.104 24.5526 203.854 25.3018 204.774 25.3018ZM204.774 22.4893C205.404 22.4893 205.917 23.0018 205.917 23.6318C205.917 24.2619 205.404 24.7744 204.774 24.7744C204.144 24.7744 203.632 24.2619 203.632 23.6318C203.632 23.0018 204.144 22.4893 204.774 22.4893Z" fill="white"/>
<defs>
<filter id="filter0_d" x="0" y="0" width="309" height="114" filterUnits="userSpaceOnUse" color-interpolation-filters="sRGB">
<feFlood flood-opacity="0" result="BackgroundImageFix"/>
<feColorMatrix in="SourceAlpha" type="matrix" values="0 0 0 0 0 0 0 0 0 0 0 0 0 0 0 0 0 0 127 0"/>
<feOffset dx="4" dy="4"/>
<feGaussianBlur stdDeviation="2"/>
<feColorMatrix type="matrix" values="0 0 0 0 0 0 0 0 0 0 0 0 0 0 0 0 0 0 0.25 0"/>
<feBlend mode="normal" in2="BackgroundImageFix" result="effect1_dropShadow"/>
<feBlend mode="normal" in="SourceGraphic" in2="effect1_dropShadow" result="shape"/>
</filter>
</defs>
</svg>
