<svg width="309" height="114" viewBox="0 0 309 114" fill="none" xmlns="http://www.w3.org/2000/svg">
<g filter="url(#filter0_d)">
<rect width="301" height="106" rx="10" fill="#23B3A1"/>
</g>
<path d="M28.18 31.52C28.54 31.0133 29.0333 30.5933 29.66 30.26C30.3 29.9133 31.0267 29.74 31.84 29.74C32.7867 29.74 33.64 29.9733 34.4 30.44C35.1733 30.9067 35.78 31.5733 36.22 32.44C36.6733 33.2933 36.9 34.2867 36.9 35.42C36.9 36.5533 36.6733 37.56 36.22 38.44C35.78 39.3067 35.1733 39.98 34.4 40.46C33.64 40.94 32.7867 41.18 31.84 41.18C31.0267 41.18 30.3067 41.0133 29.68 40.68C29.0667 40.3467 28.5667 39.9267 28.18 39.42V46.28H25.38V29.92H28.18V31.52ZM34.04 35.42C34.04 34.7533 33.9 34.18 33.62 33.7C33.3533 33.2067 32.9933 32.8333 32.54 32.58C32.1 32.3267 31.62 32.2 31.1 32.2C30.5933 32.2 30.1133 32.3333 29.66 32.6C29.22 32.8533 28.86 33.2267 28.58 33.72C28.3133 34.2133 28.18 34.7933 28.18 35.46C28.18 36.1267 28.3133 36.7067 28.58 37.2C28.86 37.6933 29.22 38.0733 29.66 38.34C30.1133 38.5933 30.5933 38.72 31.1 38.72C31.62 38.72 32.1 38.5867 32.54 38.32C32.9933 38.0533 33.3533 37.6733 33.62 37.18C33.9 36.6867 34.04 36.1 34.04 35.42ZM46.1747 29.76C47.0147 29.76 47.7614 29.9467 48.4147 30.32C49.068 30.68 49.5747 31.22 49.9347 31.94C50.308 32.6467 50.4947 33.5 50.4947 34.5V41H47.6947V34.88C47.6947 34 47.4747 33.3267 47.0347 32.86C46.5947 32.38 45.9947 32.14 45.2347 32.14C44.4614 32.14 43.848 32.38 43.3947 32.86C42.9547 33.3267 42.7347 34 42.7347 34.88V41H39.9347V26.2H42.7347V31.3C43.0947 30.82 43.5747 30.4467 44.1747 30.18C44.7747 29.9 45.4414 29.76 46.1747 29.76ZM64.7573 29.92L57.8973 46.24H54.9173L57.3173 40.72L52.8773 29.92H56.0173L58.8773 37.66L61.7773 29.92H64.7573ZM71.5067 41.18C70.6001 41.18 69.7867 41.02 69.0667 40.7C68.3467 40.3667 67.7734 39.92 67.3467 39.36C66.9334 38.8 66.7067 38.18 66.6667 37.5H69.4867C69.5401 37.9267 69.7467 38.28 70.1067 38.56C70.4801 38.84 70.9401 38.98 71.4867 38.98C72.0201 38.98 72.4334 38.8733 72.7267 38.66C73.0334 38.4467 73.1867 38.1733 73.1867 37.84C73.1867 37.48 73.0001 37.2133 72.6267 37.04C72.2667 36.8533 71.6867 36.6533 70.8867 36.44C70.0601 36.24 69.3801 36.0333 68.8467 35.82C68.3267 35.6067 67.8734 35.28 67.4867 34.84C67.1134 34.4 66.9267 33.8067 66.9267 33.06C66.9267 32.4467 67.1001 31.8867 67.4467 31.38C67.8067 30.8733 68.3134 30.4733 68.9667 30.18C69.6334 29.8867 70.4134 29.74 71.3067 29.74C72.6267 29.74 73.6801 30.0733 74.4667 30.74C75.2534 31.3933 75.6867 32.28 75.7667 33.4H73.0867C73.0467 32.96 72.8601 32.6133 72.5267 32.36C72.2067 32.0933 71.7734 31.96 71.2267 31.96C70.7201 31.96 70.3267 32.0533 70.0467 32.24C69.7801 32.4267 69.6467 32.6867 69.6467 33.02C69.6467 33.3933 69.8334 33.68 70.2067 33.88C70.5801 34.0667 71.1601 34.26 71.9467 34.46C72.7467 34.66 73.4067 34.8667 73.9267 35.08C74.4467 35.2933 74.8934 35.6267 75.2667 36.08C75.6534 36.52 75.8534 37.1067 75.8667 37.84C75.8667 38.48 75.6867 39.0533 75.3267 39.56C74.9801 40.0667 74.4734 40.4667 73.8067 40.76C73.1534 41.04 72.3867 41.18 71.5067 41.18ZM80.5852 28.6C80.0918 28.6 79.6785 28.4467 79.3452 28.14C79.0252 27.82 78.8652 27.4267 78.8652 26.96C78.8652 26.4933 79.0252 26.1067 79.3452 25.8C79.6785 25.48 80.0918 25.32 80.5852 25.32C81.0785 25.32 81.4852 25.48 81.8052 25.8C82.1385 26.1067 82.3052 26.4933 82.3052 26.96C82.3052 27.4267 82.1385 27.82 81.8052 28.14C81.4852 28.4467 81.0785 28.6 80.5852 28.6ZM81.9652 29.92V41H79.1652V29.92H81.9652ZM85.0116 35.46C85.0116 34.3133 85.2449 33.3133 85.7116 32.46C86.1782 31.5933 86.8249 30.9267 87.6516 30.46C88.4782 29.98 89.4249 29.74 90.4916 29.74C91.8649 29.74 92.9982 30.0867 93.8916 30.78C94.7982 31.46 95.4049 32.42 95.7116 33.66H92.6916C92.5316 33.18 92.2582 32.8067 91.8716 32.54C91.4982 32.26 91.0316 32.12 90.4716 32.12C89.6716 32.12 89.0382 32.4133 88.5716 33C88.1049 33.5733 87.8716 34.3933 87.8716 35.46C87.8716 36.5133 88.1049 37.3333 88.5716 37.92C89.0382 38.4933 89.6716 38.78 90.4716 38.78C91.6049 38.78 92.3449 38.2733 92.6916 37.26H95.7116C95.4049 38.46 94.7982 39.4133 93.8916 40.12C92.9849 40.8267 91.8516 41.18 90.4916 41.18C89.4249 41.18 88.4782 40.9467 87.6516 40.48C86.8249 40 86.1782 39.3333 85.7116 38.48C85.2449 37.6133 85.0116 36.6067 85.0116 35.46ZM103.003 41.18C102.096 41.18 101.283 41.02 100.563 40.7C99.8428 40.3667 99.2695 39.92 98.8428 39.36C98.4295 38.8 98.2028 38.18 98.1628 37.5H100.983C101.036 37.9267 101.243 38.28 101.603 38.56C101.976 38.84 102.436 38.98 102.983 38.98C103.516 38.98 103.929 38.8733 104.223 38.66C104.529 38.4467 104.683 38.1733 104.683 37.84C104.683 37.48 104.496 37.2133 104.123 37.04C103.763 36.8533 103.183 36.6533 102.383 36.44C101.556 36.24 100.876 36.0333 100.343 35.82C99.8228 35.6067 99.3695 35.28 98.9828 34.84C98.6095 34.4 98.4228 33.8067 98.4228 33.06C98.4228 32.4467 98.5961 31.8867 98.9428 31.38C99.3028 30.8733 99.8095 30.4733 100.463 30.18C101.129 29.8867 101.909 29.74 102.803 29.74C104.123 29.74 105.176 30.0733 105.963 30.74C106.749 31.3933 107.183 32.28 107.263 33.4H104.583C104.543 32.96 104.356 32.6133 104.023 32.36C103.703 32.0933 103.269 31.96 102.723 31.96C102.216 31.96 101.823 32.0533 101.543 32.24C101.276 32.4267 101.143 32.6867 101.143 33.02C101.143 33.3933 101.329 33.68 101.703 33.88C102.076 34.0667 102.656 34.26 103.443 34.46C104.243 34.66 104.903 34.8667 105.423 35.08C105.943 35.2933 106.389 35.6267 106.763 36.08C107.149 36.52 107.349 37.1067 107.363 37.84C107.363 38.48 107.183 39.0533 106.823 39.56C106.476 40.0667 105.969 40.4667 105.303 40.76C104.649 41.04 103.883 41.18 103.003 41.18Z" fill="white"/>
<path d="M284 106H185.592C184.387 106 183.217 105.562 182.312 104.767C162.86 87.6826 153.241 75.0573 151.292 50.2821C149.381 25.9896 157.059 16.0939 168.248 1.90996C169.197 0.706311 170.631 0 172.164 0H284.004C286.766 0 289 2.23858 289 5V101C289 103.761 286.761 106 284 106Z" fill="#1EC9B4"/>
<path d="M296 106H197.592C196.387 106 195.217 105.562 194.312 104.767C174.86 87.6826 165.241 75.0573 163.292 50.2821C161.381 25.9896 169.059 16.0939 180.248 1.90996C181.197 0.706311 182.631 0 184.164 0H296.004C298.766 0 301 2.23858 301 5V101C301 103.761 298.761 106 296 106Z" fill="#56D1C3"/>
<path d="M251.437 84.2569C251.506 84.2569 251.576 84.2404 251.641 84.2055C251.962 84.0338 252.208 83.736 252.316 83.3885C252.387 83.1596 252.259 82.9165 252.03 82.8454C251.802 82.7744 251.558 82.9022 251.487 83.1311C251.447 83.2607 251.351 83.3764 251.232 83.4404C251.02 83.5535 250.941 83.8165 251.054 84.0277C251.132 84.1738 251.282 84.2569 251.437 84.2569Z" fill="white"/>
<path d="M261.09 84.2569C261.159 84.2569 261.229 84.2404 261.294 84.2055C261.615 84.0338 261.861 83.736 261.969 83.3885C262.04 83.1596 261.912 82.9165 261.683 82.8454C261.454 82.7744 261.211 82.9022 261.14 83.1311C261.1 83.2607 261.004 83.3763 260.885 83.4404C260.673 83.5535 260.594 83.8165 260.707 84.0277C260.785 84.1738 260.935 84.2569 261.09 84.2569Z" fill="white"/>
<path d="M276.713 63.8113H274.326C274.087 63.8113 273.892 64.0056 273.892 64.2453C273.892 64.4849 274.087 64.6792 274.326 64.6792H276.713C277.26 64.6792 277.705 64.2341 277.705 63.687V62.3119C277.705 61.7648 277.26 61.3197 276.713 61.3197H248.992C248.445 61.3197 248 61.7648 248 62.3119V63.687C248 64.2341 248.445 64.6792 248.992 64.6792H250.641V80.295C250.366 80.3369 250.1 80.418 249.846 80.5394C249.629 80.6427 249.538 80.9018 249.641 81.118C249.744 81.3342 250.003 81.4257 250.22 81.3224C250.488 81.1944 250.775 81.1295 251.075 81.1295C251.92 81.1295 252.693 81.6868 252.961 82.4883C253.117 82.9557 253.098 83.44 252.905 83.893C252.744 84.2724 252.463 84.597 252.112 84.8126C251.801 85.0034 251.44 85.1049 251.075 85.1049C249.979 85.1049 249.088 84.2132 249.088 83.1172C249.088 82.9155 249.118 82.7166 249.177 82.5263C249.248 82.2974 249.12 82.0542 248.891 81.9831C248.663 81.9121 248.419 82.0398 248.348 82.2687C248.263 82.5425 248.22 82.828 248.22 83.1173C248.22 84.6918 249.501 85.9728 251.075 85.9728C252.09 85.9728 252.982 85.4405 253.489 84.641C253.995 85.4405 254.887 85.9728 255.902 85.9728C256.916 85.9728 257.808 85.4405 258.315 84.641C258.822 85.4405 259.714 85.9728 260.728 85.9728C261.743 85.9728 262.635 85.4405 263.141 84.641C263.648 85.4405 264.54 85.9728 265.555 85.9728C267.129 85.9728 268.41 84.6918 268.41 83.1173C268.41 81.6901 267.358 80.5042 265.988 80.2946V64.6792H268.535L273.348 79.574C272.807 79.844 272.367 80.2776 272.087 80.8261C271.739 81.5051 271.677 82.2788 271.912 83.0046C272.146 83.7304 272.649 84.3215 273.329 84.6688C273.737 84.8778 274.18 84.9835 274.626 84.9835C274.921 84.9835 275.218 84.9372 275.507 84.8438C276.233 84.6093 276.824 84.1061 277.171 83.4271C277.519 82.748 277.581 81.9743 277.346 81.2485C276.907 79.8906 275.541 79.0857 274.174 79.3072L269.447 64.6791H272.326C272.566 64.6791 272.76 64.4848 272.76 64.2452C272.76 64.0056 272.566 63.8113 272.326 63.8113C272.326 63.8113 268.847 63.8113 268.846 63.8113H248.992C248.924 63.8113 248.868 63.7555 248.868 63.687V62.3119C248.868 62.2433 248.924 62.1875 248.992 62.1875H276.713C276.781 62.1875 276.837 62.2433 276.837 62.3119V63.687C276.837 63.7555 276.781 63.8113 276.713 63.8113ZM274.628 80.1386C275.467 80.1386 276.249 80.6749 276.52 81.5154C276.684 82.0206 276.64 82.5591 276.399 83.0318C276.157 83.5045 275.745 83.8547 275.24 84.0179C274.735 84.1812 274.196 84.1379 273.724 83.8962C273.251 83.6543 272.901 83.2429 272.738 82.7377C272.401 81.6948 272.975 80.5722 274.018 80.2351C274.22 80.1697 274.425 80.1386 274.628 80.1386ZM267.542 83.1172C267.542 84.2132 266.65 85.1049 265.554 85.1049C264.524 85.1049 263.674 84.3165 263.576 83.3111C263.564 83.1823 263.564 83.0536 263.576 82.9232C263.674 81.9179 264.524 81.1294 265.554 81.1294C266.65 81.1295 267.542 82.0212 267.542 83.1172ZM261.162 64.6792H265.12V80.2946C264.289 80.422 263.574 80.9101 263.141 81.5933C262.708 80.9101 261.994 80.4219 261.162 80.2946V64.6792H261.162ZM262.709 82.9226C262.736 83.1964 262.705 83.4737 262.614 83.7458C262.346 84.5475 261.573 85.1049 260.728 85.1049C259.697 85.1049 258.848 84.3165 258.75 83.3111C258.723 83.0334 258.754 82.7533 258.842 82.4885C259.11 81.6868 259.883 81.1294 260.728 81.1294C261.098 81.1294 261.465 81.2341 261.779 81.4304C262.13 81.6499 262.408 81.9786 262.566 82.3613C262.642 82.5449 262.689 82.7329 262.709 82.9226ZM256.336 64.6792H260.294V80.2946C259.462 80.422 258.748 80.9101 258.315 81.5933C257.882 80.9101 257.168 80.4219 256.336 80.2946V64.6792ZM257.877 82.9232C257.905 83.1949 257.878 83.4744 257.788 83.7437C257.521 84.5465 256.748 85.1049 255.902 85.1049C255.625 85.1049 255.35 85.047 255.097 84.9347C254.32 84.5891 253.842 83.7616 253.923 82.9233C254.021 81.9179 254.871 81.1295 255.902 81.1295C256.275 81.1295 256.645 81.2361 256.961 81.4356C257.487 81.7684 257.816 82.3272 257.877 82.9232ZM255.468 80.2946C254.636 80.422 253.921 80.9101 253.488 81.5933C253.055 80.9101 252.341 80.4219 251.509 80.2946V64.6792H255.468V80.2946H255.468Z" fill="white"/>
<path d="M275.19 83.121C275.303 83.121 275.417 83.0765 275.502 82.9881C275.755 82.7261 275.897 82.3672 275.893 82.0033C275.89 81.7654 275.696 81.5743 275.459 81.5743C275.457 81.5743 275.456 81.5743 275.454 81.5743C275.214 81.5771 275.022 81.7735 275.025 82.0131C275.027 82.1488 274.971 82.2882 274.877 82.3859C274.711 82.5585 274.716 82.8332 274.888 82.9995C274.973 83.0807 275.081 83.121 275.19 83.121Z" fill="white"/>
<path d="M265.916 84.2569C265.985 84.2569 266.055 84.2404 266.12 84.2055C266.441 84.0338 266.687 83.736 266.795 83.3885C266.866 83.1596 266.738 82.9165 266.509 82.8454C266.281 82.7744 266.037 82.9022 265.966 83.1311C265.926 83.2607 265.83 83.3764 265.711 83.4404C265.499 83.5535 265.42 83.8165 265.533 84.0277C265.611 84.1738 265.761 84.2569 265.916 84.2569Z" fill="white"/>
<path d="M256.263 84.2569C256.332 84.2569 256.403 84.2404 256.468 84.2055C256.789 84.0338 257.034 83.736 257.142 83.3885C257.213 83.1596 257.086 82.9165 256.857 82.8454C256.628 82.7744 256.385 82.9022 256.314 83.1311C256.273 83.2607 256.178 83.3764 256.058 83.4404C255.847 83.5535 255.767 83.8165 255.88 84.0277C255.959 84.1738 256.108 84.2569 256.263 84.2569Z" fill="white"/>
<path d="M270.375 41H261.625C261.376 41 261.151 40.8507 261.052 40.6192C260.952 40.3852 260.998 40.1183 261.168 39.9362L265.543 35.1926C265.78 34.9358 266.221 34.9358 266.457 35.1926L270.832 39.9362C271.002 40.1209 271.047 40.3852 270.948 40.6192C270.848 40.8507 270.623 41 270.375 41ZM263.061 39.735H268.935L265.997 36.5499L263.061 39.735Z" fill="white"/>
<path d="M253.61 39C253.362 39 253.128 38.846 253.037 38.5979C252.921 38.2802 253.086 37.9295 253.402 37.8134L280.183 28.0368C280.5 27.922 280.847 28.0845 280.963 28.4035C281.079 28.7212 280.914 29.0719 280.599 29.1868L253.819 38.9633C253.749 38.9878 253.68 39 253.61 39Z" fill="white"/>
<path d="M257.5 29.125C259.364 29.125 260.875 30.637 260.875 32.5C260.875 34.363 259.364 35.875 257.5 35.875C255.636 35.875 254.125 34.363 254.125 32.5C254.125 30.637 255.636 29.125 257.5 29.125ZM257.5 28C255.018 28 253 30.0194 253 32.5C253 34.9806 255.018 37 257.5 37C259.982 37 262 34.9806 262 32.5C262 30.0194 259.982 28 257.5 28Z" fill="white"/>
<path d="M274.5 14.2857C276.272 14.2857 277.714 15.727 277.714 17.5C277.714 19.273 276.272 20.7143 274.5 20.7143C272.728 20.7143 271.286 19.273 271.286 17.5C271.286 15.727 272.728 14.2857 274.5 14.2857ZM274.5 13C272.013 13 270 15.0134 270 17.5C270 19.9866 272.013 22 274.5 22C276.985 22 279 19.9866 279 17.5C279 15.0134 276.985 13 274.5 13Z" fill="white"/>
<g clip-path="url(#clip0)">
<path d="M214.688 33.6332V35.8H217.5V33.6332C217.073 33.8339 216.597 33.95 216.094 33.95C215.59 33.95 215.115 33.8339 214.688 33.6332Z" fill="white"/>
<path d="M201.562 33.6332V35.8H204.375V33.6332C203.948 33.8339 203.472 33.95 202.969 33.95C202.465 33.95 201.99 33.8339 201.562 33.6332Z" fill="white"/>
<path d="M205.312 30.7125C205.312 29.4374 204.261 28.4 202.969 28.4C201.676 28.4 200.625 29.4374 200.625 30.7125C200.625 31.9876 201.676 33.025 202.969 33.025C204.261 33.025 205.312 31.9876 205.312 30.7125ZM201.562 31.175V30.25H202.5V29.325H203.438V30.25H204.375V31.175H203.438V32.1H202.5V31.175H201.562Z" fill="white"/>
<path d="M214.688 39.9625C214.688 42.7675 212.374 45.05 209.531 45.05C206.688 45.05 204.375 42.7675 204.375 39.9625V36.725H201.562V39.9625C201.562 44.2979 205.137 47.825 209.531 47.825C213.925 47.825 217.5 44.2979 217.5 39.9625V36.725H214.688V39.9625Z" fill="white"/>
<path d="M216.094 28.4C214.801 28.4 213.75 29.4374 213.75 30.7125C213.75 31.9876 214.801 33.025 216.094 33.025C217.386 33.025 218.438 31.9876 218.438 30.7125C218.438 29.4374 217.386 28.4 216.094 28.4ZM217.5 31.175H214.688V30.25H217.5V31.175Z" fill="white"/>
<path d="M202.5 21H199.688V24.7H202.5V21Z" fill="white"/>
<path d="M215.625 21H203.438V24.7H215.625V21Z" fill="white"/>
<path d="M219.375 21H216.562V24.7H219.375V21Z" fill="white"/>
<path d="M195.938 24.7H195V38.575H195.938V24.7Z" fill="white"/>
<path d="M197.812 27.475H196.875V33.95H197.812V27.475Z" fill="white"/>
<path d="M224.062 22.85H223.125V36.725H224.062V22.85Z" fill="white"/>
<path d="M222.188 25.625H221.25V32.1H222.188V25.625Z" fill="white"/>
</g>
<path d="M212.641 77.4704C213.505 77.4704 214.206 76.7699 214.206 75.9057C214.206 75.0415 213.505 74.3409 212.641 74.3409C211.777 74.3409 211.076 75.0415 211.076 75.9057C211.076 76.7699 211.777 77.4704 212.641 77.4704Z" fill="white"/>
<path d="M220.941 75.9057C221.213 75.5996 221.485 75.2934 221.723 74.9533C223.22 72.9463 223.662 71.1774 222.948 69.9529C222.37 68.9664 221.111 68.4221 219.342 68.4221C218.56 68.4221 217.709 68.5242 216.791 68.7283C216.655 68.3201 216.519 67.9459 216.349 67.5717C215.396 65.2926 214.07 64 212.641 64C211.212 64 209.886 65.2586 208.933 67.5717C208.763 67.9459 208.627 68.3201 208.491 68.7283C207.572 68.5242 206.722 68.4221 205.94 68.4221C204.137 68.4221 202.912 68.9324 202.334 69.9529C201.62 71.1774 202.062 72.9803 203.559 74.9533C203.797 75.2594 204.069 75.5996 204.341 75.9057C204.069 76.2119 203.797 76.518 203.559 76.8582C202.062 78.8651 201.62 80.634 202.334 81.8586C202.912 82.8451 204.171 83.3893 205.94 83.3893C206.722 83.3893 207.572 83.2873 208.491 83.0832C208.627 83.4914 208.763 83.8655 208.933 84.2397C209.886 86.5188 211.212 87.8114 212.641 87.8114C214.07 87.8114 215.396 86.5528 216.349 84.2397C216.519 83.8655 216.655 83.4914 216.791 83.0832C217.709 83.2873 218.56 83.3893 219.342 83.3893C221.145 83.3893 222.37 82.8791 222.948 81.8586C223.662 80.634 223.22 78.8311 221.723 76.8582C221.485 76.518 221.213 76.2119 220.941 75.9057ZM219.342 68.9664C221.349 68.9664 222.166 69.6467 222.472 70.225C223.05 71.2455 222.608 72.8442 221.281 74.6471C221.077 74.9533 220.805 75.2254 220.567 75.5315C219.75 74.6811 218.764 73.8307 217.675 73.0143C217.539 71.6877 217.301 70.3951 216.961 69.2725C217.811 69.0684 218.594 68.9664 219.342 68.9664ZM214.954 79.9196C214.172 80.3619 213.423 80.7701 212.641 81.1102C211.859 80.7701 211.076 80.3619 210.328 79.9196C209.545 79.4774 208.831 79.0012 208.151 78.525C208.083 77.6746 208.015 76.8242 208.015 75.9057C208.015 75.0213 208.049 74.1369 208.151 73.2865C208.831 72.8102 209.579 72.334 210.328 71.8918C211.11 71.4496 211.859 71.0414 212.641 70.7012C213.423 71.0414 214.206 71.4496 214.954 71.8918C215.736 72.334 216.451 72.8102 217.131 73.2865C217.199 74.1369 217.267 74.9873 217.267 75.9057C217.267 76.7901 217.233 77.6746 217.131 78.525C216.451 79.0012 215.736 79.4774 214.954 79.9196ZM217.063 79.2393C216.927 80.3959 216.689 81.4844 216.417 82.4709C215.43 82.2328 214.376 81.8586 213.287 81.4164C213.934 81.1102 214.58 80.7701 215.226 80.3959C215.872 80.0217 216.485 79.6135 217.063 79.2393ZM211.995 81.3824C210.94 81.8246 209.886 82.1987 208.865 82.4369C208.559 81.4504 208.355 80.3619 208.219 79.2053C208.797 79.6135 209.409 79.9877 210.056 80.3619C210.702 80.7701 211.348 81.0762 211.995 81.3824ZM207.538 78.0828C206.62 77.3684 205.77 76.6541 205.089 75.9057C205.804 75.1574 206.62 74.409 207.538 73.7287C207.47 74.443 207.436 75.1574 207.436 75.9057C207.47 76.6541 207.504 77.3684 207.538 78.0828ZM208.219 72.5721C208.355 71.4156 208.593 70.327 208.865 69.3406C209.852 69.5787 210.906 69.9529 211.995 70.3951C211.348 70.7012 210.702 71.0414 210.056 71.4156C209.409 71.7897 208.797 72.1979 208.219 72.5721ZM213.287 70.4291C214.342 69.9869 215.396 69.6127 216.417 69.3746C216.723 70.3611 216.927 71.4496 217.063 72.6061C216.485 72.1979 215.872 71.8238 215.226 71.4496C214.58 71.0414 213.934 70.7352 213.287 70.4291ZM217.743 73.7287C218.662 74.443 219.512 75.1574 220.193 75.9057C219.478 76.6541 218.662 77.4024 217.743 78.0828C217.811 77.3684 217.845 76.6541 217.845 75.9057C217.811 75.1574 217.777 74.443 217.743 73.7287ZM209.409 67.7758C210.294 65.7008 211.45 64.5443 212.641 64.5443C213.832 64.5443 214.988 65.7348 215.872 67.7758C216.009 68.116 216.145 68.4561 216.281 68.8303C215.124 69.1025 213.9 69.5447 212.675 70.0889C211.45 69.5447 210.226 69.1025 209.069 68.8303C209.137 68.4902 209.273 68.116 209.409 67.7758ZM204.001 74.6471C202.64 72.8783 202.232 71.2455 202.81 70.225C203.423 69.2045 204.851 68.9664 205.94 68.9664C206.654 68.9664 207.47 69.0684 208.321 69.2385C207.981 70.3951 207.743 71.6537 207.607 72.9803C206.518 73.7627 205.532 74.6131 204.715 75.4975C204.477 75.2254 204.239 74.9192 204.001 74.6471ZM205.94 82.8451C203.933 82.8451 203.116 82.1647 202.81 81.5865C202.232 80.566 202.674 78.9672 204.001 77.1643C204.205 76.8582 204.477 76.586 204.715 76.2799C205.532 77.1303 206.518 77.9807 207.607 78.7971C207.743 80.1237 207.981 81.4164 208.321 82.5389C207.47 82.743 206.688 82.8451 205.94 82.8451ZM215.872 84.0356C214.988 86.1106 213.832 87.2672 212.641 87.2672C211.45 87.2672 210.294 86.0766 209.409 84.0356C209.273 83.6955 209.137 83.3553 209.001 82.9811C210.158 82.709 211.382 82.2668 212.607 81.7225C213.832 82.2668 215.056 82.709 216.213 82.9811C216.145 83.3213 216.009 83.6955 215.872 84.0356ZM222.472 81.5865C221.859 82.6069 220.431 82.8451 219.342 82.8451C218.628 82.8451 217.811 82.743 216.961 82.5729C217.301 81.4164 217.539 80.1578 217.675 78.8311C218.764 78.0487 219.75 77.1983 220.567 76.3139C220.839 76.6201 221.077 76.8922 221.281 77.1983C222.642 78.9672 223.05 80.566 222.472 81.5865Z" fill="white"/>
<defs>
<filter id="filter0_d" x="0" y="0" width="309" height="114" filterUnits="userSpaceOnUse" color-interpolation-filters="sRGB">
<feFlood flood-opacity="0" result="BackgroundImageFix"/>
<feColorMatrix in="SourceAlpha" type="matrix" values="0 0 0 0 0 0 0 0 0 0 0 0 0 0 0 0 0 0 127 0"/>
<feOffset dx="4" dy="4"/>
<feGaussianBlur stdDeviation="2"/>
<feColorMatrix type="matrix" values="0 0 0 0 0 0 0 0 0 0 0 0 0 0 0 0 0 0 0.25 0"/>
<feBlend mode="normal" in2="BackgroundImageFix" result="effect1_dropShadow"/>
<feBlend mode="normal" in="SourceGraphic" in2="effect1_dropShadow" result="shape"/>
</filter>
<clipPath id="clip0">
<rect width="30" height="37" fill="white" transform="translate(195 15)"/>
</clipPath>
</defs>
</svg>
