<svg width="309" height="114" viewBox="0 0 309 114" fill="none" xmlns="http://www.w3.org/2000/svg">
<g filter="url(#filter0_d)">
<rect width="301" height="106" rx="10" fill="#FFD953"/>
</g>
<path d="M284 106H185.592C184.387 106 183.217 105.562 182.312 104.767C162.86 87.6826 153.241 75.0573 151.292 50.2821C149.381 25.9896 157.059 16.0939 168.248 1.90996C169.197 0.706311 170.631 0 172.164 0H284.004C286.766 0 289 2.23858 289 5V101C289 103.761 286.761 106 284 106Z" fill="#E8BF2F"/>
<path d="M296 106H197.592C196.387 106 195.217 105.562 194.312 104.767C174.86 87.6826 165.241 75.0573 163.292 50.2821C161.381 25.9896 169.059 16.0939 180.248 1.90996C181.197 0.706311 182.631 0 184.164 0H296.004C298.766 0 301 2.23858 301 5V101C301 103.761 298.761 106 296 106Z" fill="#FCD036"/>
<path d="M194 28C194 28.5304 193.789 29.0391 193.414 29.4142C193.039 29.7893 192.53 30 192 30C191.47 30 190.961 29.7893 190.586 29.4142C190.211 29.0391 190 28.5304 190 28C190 27.4696 190.211 26.9609 190.586 26.5858C190.961 26.2107 191.47 26 192 26C192.53 26 193.039 26.2107 193.414 26.5858C193.789 26.9609 194 27.4696 194 28Z" fill="white"/>
<path d="M183 33C183 32.7348 183.105 32.4804 183.293 32.2929C183.48 32.1054 183.735 32 184 32H200C200.265 32 200.52 32.1054 200.707 32.2929C200.895 32.4804 201 32.7348 201 33C201 33.2652 200.895 33.5196 200.707 33.7071C200.52 33.8946 200.265 34 200 34H184C183.735 34 183.48 33.8946 183.293 33.7071C183.105 33.5196 183 33.2652 183 33Z" fill="white"/>
<path d="M192 40C192.53 40 193.039 39.7893 193.414 39.4142C193.789 39.0391 194 38.5304 194 38C194 37.4696 193.789 36.9609 193.414 36.5858C193.039 36.2107 192.53 36 192 36C191.47 36 190.961 36.2107 190.586 36.5858C190.211 36.9609 190 37.4696 190 38C190 38.5304 190.211 39.0391 190.586 39.4142C190.961 39.7893 191.47 40 192 40Z" fill="white"/>
<path d="M242 38.8001C241.788 38.641 241.521 38.5727 241.259 38.6102C240.996 38.6477 240.759 38.7879 240.6 39.0001L237 43.8L232.2 40.1999C231.988 40.0408 231.721 39.9725 231.459 40.01C231.196 40.0475 230.959 40.1877 230.8 40.3999C230.641 40.6121 230.573 40.8788 230.61 41.1413C230.648 41.4039 230.788 41.6408 231 41.7999L235.8 45.4L232.2 50.1999C232.041 50.4121 231.972 50.6788 232.01 50.9414C232.047 51.2039 232.188 51.4408 232.4 51.5999C232.612 51.7591 232.879 51.8274 233.141 51.7899C233.404 51.7524 233.641 51.6121 233.8 51.4L237.4 46.6L242.2 50.2001C242.412 50.3593 242.679 50.4276 242.941 50.3901C243.204 50.3526 243.441 50.2123 243.6 50.0001C243.759 49.788 243.827 49.5213 243.79 49.2587C243.752 48.9962 243.612 48.7593 243.4 48.6001L238.6 45.0001L242.2 40.2001C242.359 39.988 242.428 39.7213 242.39 39.4587C242.353 39.1962 242.212 38.9593 242 38.8001Z" fill="white"/>
<path d="M256.2 22H274.2" stroke="white" stroke-width="2" stroke-linecap="round" stroke-linejoin="round"/>
<path d="M265.2 13V31" stroke="white" stroke-width="2" stroke-linecap="round" stroke-linejoin="round"/>
<path d="M269.7 14.5L272.7 17.5" stroke="white" stroke-width="2" stroke-linecap="round" stroke-linejoin="round"/>
<path d="M272.7 14.5L269.7 17.5" stroke="white" stroke-width="2" stroke-linecap="round" stroke-linejoin="round"/>
<path d="M259.2 14V18" stroke="white" stroke-width="2" stroke-linecap="round" stroke-linejoin="round"/>
<path d="M257.2 16H261.2" stroke="white" stroke-width="2" stroke-linecap="round" stroke-linejoin="round"/>
<path d="M271.2 26H271.21" stroke="white" stroke-width="2" stroke-linecap="round" stroke-linejoin="round"/>
<path d="M271.2 30H271.21" stroke="white" stroke-width="2" stroke-linecap="round" stroke-linejoin="round"/>
<path d="M257.2 28H261.2" stroke="white" stroke-width="2" stroke-linecap="round" stroke-linejoin="round"/>
<path d="M208 74.88V77L206.2 75.83L201.41 66.83C202.07 66.62 202.67 66.28 203.19 65.83L208 74.88ZM203 62C203 62.7956 202.684 63.5587 202.121 64.1213C201.559 64.6839 200.796 65 200 65H199.56L193.8 75.83L192 77V74.88L197.79 64C196.69 62.77 196.79 60.87 198.03 59.76C198.57 59.28 199.27 59 200 59V57C200.265 57 200.52 57.1054 200.707 57.2929C200.895 57.4804 201 57.7348 201 58V59.18C202.2 59.6 203 60.73 203 62ZM201 62C201 61.7348 200.895 61.4804 200.707 61.2929C200.52 61.1054 200.265 61 200 61C199.735 61 199.48 61.1054 199.293 61.2929C199.105 61.4804 199 61.7348 199 62C199 62.2652 199.105 62.5196 199.293 62.7071C199.48 62.8946 199.735 63 200 63C200.265 63 200.52 62.8946 200.707 62.7071C200.895 62.5196 201 62.2652 201 62Z" fill="white"/>
<path d="M275 71C274.735 71 274.48 71.1054 274.293 71.2929C274.105 71.4804 274 71.7348 274 72C274 72.2652 274.105 72.5196 274.293 72.7071C274.48 72.8946 274.735 73 275 73H289C289.265 73 289.52 72.8946 289.707 72.7071C289.895 72.5196 290 72.2652 290 72C290 71.7348 289.895 71.4804 289.707 71.2929C289.52 71.1054 289.265 71 289 71H275Z" fill="white"/>
<path d="M275 75C274.735 75 274.48 75.1054 274.293 75.2929C274.105 75.4804 274 75.7348 274 76C274 76.2652 274.105 76.5196 274.293 76.7071C274.48 76.8946 274.735 77 275 77H289C289.265 77 289.52 76.8946 289.707 76.7071C289.895 76.5196 290 76.2652 290 76C290 75.7348 289.895 75.4804 289.707 75.2929C289.52 75.1054 289.265 75 289 75H275Z" fill="white"/>
<path d="M240.5 89.0766C240.3 90.1766 239.9 90.9766 239.2 91.4766C238.5 91.9766 237.6 92.0766 236.5 91.8766C236.1 91.7766 235.3 91.6766 235 91.4766L235.5 89.9766C235.8 90.0766 236.4 90.2766 236.7 90.2766C237.8 90.4766 238.4 89.9766 238.6 88.7766L241 75.1766C241.2 73.9766 241.7 73.1766 242.4 72.5766C243.1 72.0766 244.1 71.8766 245.2 72.0766C245.6 72.1766 246.4 72.2766 247 72.5766L246.5 73.9766C246.3 73.8766 245.6 73.7766 245.3 73.6766C244 73.4766 243.3 74.0766 243 75.5766L240.5 89.0766Z" fill="white"/>
<path d="M45.92 27.04L40.8 41H37.4L32.28 27.04H35.28L39.12 38.14L42.94 27.04H45.92ZM58.8988 35.22C58.8988 35.62 58.8721 35.98 58.8188 36.3H50.7188C50.7854 37.1 51.0654 37.7267 51.5588 38.18C52.0521 38.6333 52.6588 38.86 53.3788 38.86C54.4188 38.86 55.1588 38.4133 55.5988 37.52H58.6188C58.2988 38.5867 57.6854 39.4667 56.7788 40.16C55.8721 40.84 54.7588 41.18 53.4388 41.18C52.3721 41.18 51.4121 40.9467 50.5588 40.48C49.7188 40 49.0588 39.3267 48.5788 38.46C48.1121 37.5933 47.8787 36.5933 47.8787 35.46C47.8787 34.3133 48.1121 33.3067 48.5788 32.44C49.0454 31.5733 49.6988 30.9067 50.5388 30.44C51.3788 29.9733 52.3454 29.74 53.4388 29.74C54.4921 29.74 55.4321 29.9667 56.2588 30.42C57.0988 30.8733 57.7454 31.52 58.1988 32.36C58.6654 33.1867 58.8988 34.14 58.8988 35.22ZM55.9988 34.42C55.9854 33.7 55.7254 33.1267 55.2188 32.7C54.7121 32.26 54.0921 32.04 53.3588 32.04C52.6654 32.04 52.0788 32.2533 51.5988 32.68C51.1321 33.0933 50.8454 33.6733 50.7388 34.42H55.9988ZM61.2225 35.42C61.2225 34.3 61.4425 33.3067 61.8825 32.44C62.3358 31.5733 62.9492 30.9067 63.7225 30.44C64.4958 29.9733 65.3558 29.74 66.3025 29.74C67.0225 29.74 67.7092 29.9 68.3625 30.22C69.0158 30.5267 69.5358 30.94 69.9225 31.46V26.2H72.7625V41H69.9225V39.36C69.5758 39.9067 69.0892 40.3467 68.4625 40.68C67.8358 41.0133 67.1092 41.18 66.2825 41.18C65.3492 41.18 64.4958 40.94 63.7225 40.46C62.9492 39.98 62.3358 39.3067 61.8825 38.44C61.4425 37.56 61.2225 36.5533 61.2225 35.42ZM69.9425 35.46C69.9425 34.78 69.8092 34.2 69.5425 33.72C69.2758 33.2267 68.9158 32.8533 68.4625 32.6C68.0092 32.3333 67.5225 32.2 67.0025 32.2C66.4825 32.2 66.0025 32.3267 65.5625 32.58C65.1225 32.8333 64.7625 33.2067 64.4825 33.7C64.2158 34.18 64.0825 34.7533 64.0825 35.42C64.0825 36.0867 64.2158 36.6733 64.4825 37.18C64.7625 37.6733 65.1225 38.0533 65.5625 38.32C66.0158 38.5867 66.4958 38.72 67.0025 38.72C67.5225 38.72 68.0092 38.5933 68.4625 38.34C68.9158 38.0733 69.2758 37.7 69.5425 37.22C69.8092 36.7267 69.9425 36.14 69.9425 35.46ZM77.9172 28.6C77.4239 28.6 77.0105 28.4467 76.6772 28.14C76.3572 27.82 76.1972 27.4267 76.1972 26.96C76.1972 26.4933 76.3572 26.1067 76.6772 25.8C77.0105 25.48 77.4239 25.32 77.9172 25.32C78.4105 25.32 78.8172 25.48 79.1372 25.8C79.4705 26.1067 79.6372 26.4933 79.6372 26.96C79.6372 27.4267 79.4705 27.82 79.1372 28.14C78.8172 28.4467 78.4105 28.6 77.9172 28.6ZM79.2972 29.92V41H76.4972V29.92H79.2972ZM82.3436 35.46C82.3436 34.3133 82.5769 33.3133 83.0436 32.46C83.5103 31.5933 84.1569 30.9267 84.9836 30.46C85.8103 29.98 86.7569 29.74 87.8236 29.74C89.1969 29.74 90.3303 30.0867 91.2236 30.78C92.1303 31.46 92.7369 32.42 93.0436 33.66H90.0236C89.8636 33.18 89.5903 32.8067 89.2036 32.54C88.8303 32.26 88.3636 32.12 87.8036 32.12C87.0036 32.12 86.3703 32.4133 85.9036 33C85.4369 33.5733 85.2036 34.3933 85.2036 35.46C85.2036 36.5133 85.4369 37.3333 85.9036 37.92C86.3703 38.4933 87.0036 38.78 87.8036 38.78C88.9369 38.78 89.6769 38.2733 90.0236 37.26H93.0436C92.7369 38.46 92.1303 39.4133 91.2236 40.12C90.3169 40.8267 89.1836 41.18 87.8236 41.18C86.7569 41.18 85.8103 40.9467 84.9836 40.48C84.1569 40 83.5103 39.3333 83.0436 38.48C82.5769 37.6133 82.3436 36.6067 82.3436 35.46ZM48.6 49.04V63H45.8V53.92L42.06 63H39.94L36.18 53.92V63H33.38V49.04H36.56L41 59.42L45.44 49.04H48.6ZM51.6483 57.42C51.6483 56.3 51.8683 55.3067 52.3083 54.44C52.7616 53.5733 53.3683 52.9067 54.1283 52.44C54.9016 51.9733 55.7616 51.74 56.7083 51.74C57.5349 51.74 58.2549 51.9067 58.8683 52.24C59.4949 52.5733 59.9949 52.9933 60.3683 53.5V51.92H63.1883V63H60.3683V61.38C60.0083 61.9 59.5083 62.3333 58.8683 62.68C58.2416 63.0133 57.5149 63.18 56.6883 63.18C55.7549 63.18 54.9016 62.94 54.1283 62.46C53.3683 61.98 52.7616 61.3067 52.3083 60.44C51.8683 59.56 51.6483 58.5533 51.6483 57.42ZM60.3683 57.46C60.3683 56.78 60.2349 56.2 59.9683 55.72C59.7016 55.2267 59.3416 54.8533 58.8883 54.6C58.4349 54.3333 57.9483 54.2 57.4283 54.2C56.9083 54.2 56.4283 54.3267 55.9883 54.58C55.5483 54.8333 55.1883 55.2067 54.9083 55.7C54.6416 56.18 54.5083 56.7533 54.5083 57.42C54.5083 58.0867 54.6416 58.6733 54.9083 59.18C55.1883 59.6733 55.5483 60.0533 55.9883 60.32C56.4416 60.5867 56.9216 60.72 57.4283 60.72C57.9483 60.72 58.4349 60.5933 58.8883 60.34C59.3416 60.0733 59.7016 59.7 59.9683 59.22C60.2349 58.7267 60.3683 58.14 60.3683 57.46ZM70.183 54.22V59.58C70.183 59.9533 70.2696 60.2267 70.443 60.4C70.6296 60.56 70.9363 60.64 71.363 60.64H72.663V63H70.903C68.543 63 67.363 61.8533 67.363 59.56V54.22H66.043V51.92H67.363V49.18H70.183V51.92H72.663V54.22H70.183ZM81.9169 51.76C82.7569 51.76 83.5035 51.9467 84.1569 52.32C84.8102 52.68 85.3169 53.22 85.6769 53.94C86.0502 54.6467 86.2369 55.5 86.2369 56.5V63H83.4369V56.88C83.4369 56 83.2169 55.3267 82.7769 54.86C82.3369 54.38 81.7369 54.14 80.9769 54.14C80.2035 54.14 79.5902 54.38 79.1369 54.86C78.6969 55.3267 78.4769 56 78.4769 56.88V63H75.6769V48.2H78.4769V53.3C78.8369 52.82 79.3169 52.4467 79.9169 52.18C80.5169 51.9 81.1835 51.76 81.9169 51.76ZM94.1395 63.18C93.2329 63.18 92.4195 63.02 91.6995 62.7C90.9795 62.3667 90.4062 61.92 89.9795 61.36C89.5662 60.8 89.3395 60.18 89.2995 59.5H92.1195C92.1729 59.9267 92.3795 60.28 92.7395 60.56C93.1129 60.84 93.5729 60.98 94.1195 60.98C94.6529 60.98 95.0662 60.8733 95.3595 60.66C95.6662 60.4467 95.8195 60.1733 95.8195 59.84C95.8195 59.48 95.6329 59.2133 95.2595 59.04C94.8995 58.8533 94.3195 58.6533 93.5195 58.44C92.6929 58.24 92.0129 58.0333 91.4795 57.82C90.9595 57.6067 90.5062 57.28 90.1195 56.84C89.7462 56.4 89.5595 55.8067 89.5595 55.06C89.5595 54.4467 89.7329 53.8867 90.0795 53.38C90.4395 52.8733 90.9462 52.4733 91.5995 52.18C92.2662 51.8867 93.0462 51.74 93.9395 51.74C95.2595 51.74 96.3129 52.0733 97.0995 52.74C97.8862 53.3933 98.3195 54.28 98.3995 55.4H95.7195C95.6795 54.96 95.4929 54.6133 95.1595 54.36C94.8395 54.0933 94.4062 53.96 93.8595 53.96C93.3529 53.96 92.9595 54.0533 92.6795 54.24C92.4129 54.4267 92.2795 54.6867 92.2795 55.02C92.2795 55.3933 92.4662 55.68 92.8395 55.88C93.2129 56.0667 93.7929 56.26 94.5795 56.46C95.3795 56.66 96.0395 56.8667 96.5595 57.08C97.0795 57.2933 97.5262 57.6267 97.8995 58.08C98.2862 58.52 98.4862 59.1067 98.4995 59.84C98.4995 60.48 98.3195 61.0533 97.9595 61.56C97.6129 62.0667 97.1062 62.4667 96.4395 62.76C95.7862 63.04 95.0195 63.18 94.1395 63.18Z" fill="white"/>
<defs>
<filter id="filter0_d" x="0" y="0" width="309" height="114" filterUnits="userSpaceOnUse" color-interpolation-filters="sRGB">
<feFlood flood-opacity="0" result="BackgroundImageFix"/>
<feColorMatrix in="SourceAlpha" type="matrix" values="0 0 0 0 0 0 0 0 0 0 0 0 0 0 0 0 0 0 127 0"/>
<feOffset dx="4" dy="4"/>
<feGaussianBlur stdDeviation="2"/>
<feColorMatrix type="matrix" values="0 0 0 0 0 0 0 0 0 0 0 0 0 0 0 0 0 0 0.25 0"/>
<feBlend mode="normal" in2="BackgroundImageFix" result="effect1_dropShadow"/>
<feBlend mode="normal" in="SourceGraphic" in2="effect1_dropShadow" result="shape"/>
</filter>
</defs>
</svg>
